<?xml version="1.0" encoding="utf-8" standalone="no"?>
<!DOCTYPE svg PUBLIC "-//W3C//DTD SVG 1.1//EN"
  "http://www.w3.org/Graphics/SVG/1.1/DTD/svg11.dtd">
<svg xmlns:xlink="http://www.w3.org/1999/xlink" width="101.0525pt" height="136.522578pt" viewBox="0 0 101.0525 136.522578" xmlns="http://www.w3.org/2000/svg" version="1.1">
 <metadata>
  <rdf:RDF xmlns:dc="http://purl.org/dc/elements/1.1/" xmlns:cc="http://creativecommons.org/ns#" xmlns:rdf="http://www.w3.org/1999/02/22-rdf-syntax-ns#">
   <cc:Work>
    <dc:type rdf:resource="http://purl.org/dc/dcmitype/StillImage"/>
    <dc:date>2025-08-21T00:23:05.098943</dc:date>
    <dc:format>image/svg+xml</dc:format>
    <dc:creator>
     <cc:Agent>
      <dc:title>Matplotlib v3.10.5, https://matplotlib.org/</dc:title>
     </cc:Agent>
    </dc:creator>
   </cc:Work>
  </rdf:RDF>
 </metadata>
 <defs>
  <style type="text/css">*{stroke-linejoin: round; stroke-linecap: butt}</style>
 </defs>
 <g id="figure_1">
  <g id="patch_1">
   <path d="M 0 136.522578 
L 101.0525 136.522578 
L 101.0525 0 
L 0 0 
L 0 136.522578 
z
" style="fill: none"/>
  </g>
  <g id="axes_1">
   <g id="patch_2">
    <path d="M 30.7425 121.68 
L 93.8525 121.68 
L 93.8525 7.2 
L 30.7425 7.2 
L 30.7425 121.68 
z
" style="fill: none"/>
   </g>
   <g id="patch_3">
    <path d="M 37.0535 121.68 
L 55.9865 121.68 
L 55.9865 23.554286 
L 37.0535 23.554286 
z
" clip-path="url(#p0fa70dbbfb)" style="fill: #7284ac"/>
   </g>
   <g id="patch_4">
    <path d="M 68.6085 121.68 
L 87.5415 121.68 
L 87.5415 51.901714 
L 68.6085 51.901714 
z
" clip-path="url(#p0fa70dbbfb)" style="fill: #cc6868"/>
   </g>
   <g id="matplotlib.axis_1"/>
   <g id="matplotlib.axis_2">
    <g id="ytick_1">
     <g id="line2d_1">
      <defs>
       <path id="m04c4c2487f" d="M 0 0 
L -3.5 0 
" style="stroke: #000000"/>
      </defs>
      <g>
       <use xlink:href="#m04c4c2487f" x="30.7425" y="121.68" style="stroke: #000000"/>
      </g>
     </g>
     <g id="text_1">
      <!-- 0 -->
      <g transform="translate(15.47125 126.618984) scale(0.13 -0.13)">
       <defs>
        <path id="DejaVuSans-30" d="M 2034 4250 
Q 1547 4250 1301 3770 
Q 1056 3291 1056 2328 
Q 1056 1369 1301 889 
Q 1547 409 2034 409 
Q 2525 409 2770 889 
Q 3016 1369 3016 2328 
Q 3016 3291 2770 3770 
Q 2525 4250 2034 4250 
z
M 2034 4750 
Q 2819 4750 3233 4129 
Q 3647 3509 3647 2328 
Q 3647 1150 3233 529 
Q 2819 -91 2034 -91 
Q 1250 -91 836 529 
Q 422 1150 422 2328 
Q 422 3509 836 4129 
Q 1250 4750 2034 4750 
z
" transform="scale(0.015625)"/>
       </defs>
       <use xlink:href="#DejaVuSans-30"/>
      </g>
     </g>
    </g>
    <g id="ytick_2">
     <g id="line2d_2">
      <g>
       <use xlink:href="#m04c4c2487f" x="30.7425" y="67.165714" style="stroke: #000000"/>
      </g>
     </g>
     <g id="text_2">
      <!-- 5 -->
      <g transform="translate(15.47125 72.104699) scale(0.13 -0.13)">
       <defs>
        <path id="DejaVuSans-35" d="M 691 4666 
L 3169 4666 
L 3169 4134 
L 1269 4134 
L 1269 2991 
Q 1406 3038 1543 3061 
Q 1681 3084 1819 3084 
Q 2600 3084 3056 2656 
Q 3513 2228 3513 1497 
Q 3513 744 3044 326 
Q 2575 -91 1722 -91 
Q 1428 -91 1123 -41 
Q 819 9 494 109 
L 494 744 
Q 775 591 1075 516 
Q 1375 441 1709 441 
Q 2250 441 2565 725 
Q 2881 1009 2881 1497 
Q 2881 1984 2565 2268 
Q 2250 2553 1709 2553 
Q 1456 2553 1204 2497 
Q 953 2441 691 2322 
L 691 4666 
z
" transform="scale(0.015625)"/>
       </defs>
       <use xlink:href="#DejaVuSans-35"/>
      </g>
     </g>
    </g>
    <g id="ytick_3">
     <g id="line2d_3">
      <g>
       <use xlink:href="#m04c4c2487f" x="30.7425" y="12.651429" style="stroke: #000000"/>
      </g>
     </g>
     <g id="text_3">
      <!-- 10 -->
      <g transform="translate(7.2 17.590413) scale(0.13 -0.13)">
       <defs>
        <path id="DejaVuSans-31" d="M 794 531 
L 1825 531 
L 1825 4091 
L 703 3866 
L 703 4441 
L 1819 4666 
L 2450 4666 
L 2450 531 
L 3481 531 
L 3481 0 
L 794 0 
L 794 531 
z
" transform="scale(0.015625)"/>
       </defs>
       <use xlink:href="#DejaVuSans-31"/>
       <use xlink:href="#DejaVuSans-30" transform="translate(63.623047 0)"/>
      </g>
     </g>
    </g>
   </g>
   <g id="LineCollection_1">
    <path d="M 46.52 30.055494 
L 46.52 17.053078 
" clip-path="url(#p0fa70dbbfb)" style="fill: none; stroke: #000000"/>
    <path d="M 78.075 57.341015 
L 78.075 46.462413 
" clip-path="url(#p0fa70dbbfb)" style="fill: none; stroke: #000000"/>
   </g>
   <g id="patch_5">
    <path d="M 30.7425 121.68 
L 30.7425 7.2 
" style="fill: none; stroke: #000000; stroke-linejoin: miter; stroke-linecap: square"/>
   </g>
   <g id="PathCollection_1">
    <defs>
     <path id="mb3ae903069" d="M 0 1.5 
C 0.397805 1.5 0.77937 1.341951 1.06066 1.06066 
C 1.341951 0.77937 1.5 0.397805 1.5 0 
C 1.5 -0.397805 1.341951 -0.77937 1.06066 -1.06066 
C 0.77937 -1.341951 0.397805 -1.5 0 -1.5 
C -0.397805 -1.5 -0.77937 -1.341951 -1.06066 -1.06066 
C -1.341951 -0.77937 -1.5 -0.397805 -1.5 0 
C -1.5 0.397805 -1.341951 0.77937 -1.06066 1.06066 
C -0.77937 1.341951 -0.397805 1.5 0 1.5 
z
"/>
    </defs>
    <g clip-path="url(#p0fa70dbbfb)">
     <use xlink:href="#mb3ae903069" x="47.933318" y="12.651429" style="fill: #808080; fill-opacity: 0.5"/>
     <use xlink:href="#mb3ae903069" x="47.25669" y="12.651429" style="fill: #808080; fill-opacity: 0.5"/>
     <use xlink:href="#mb3ae903069" x="49.633221" y="67.165714" style="fill: #808080; fill-opacity: 0.5"/>
     <use xlink:href="#mb3ae903069" x="44.554699" y="12.651429" style="fill: #808080; fill-opacity: 0.5"/>
     <use xlink:href="#mb3ae903069" x="45.702079" y="56.262857" style="fill: #808080; fill-opacity: 0.5"/>
     <use xlink:href="#mb3ae903069" x="44.948015" y="12.651429" style="fill: #808080; fill-opacity: 0.5"/>
     <use xlink:href="#mb3ae903069" x="46.845172" y="12.651429" style="fill: #808080; fill-opacity: 0.5"/>
     <use xlink:href="#mb3ae903069" x="47.438231" y="12.651429" style="fill: #808080; fill-opacity: 0.5"/>
     <use xlink:href="#mb3ae903069" x="46.87341" y="12.651429" style="fill: #808080; fill-opacity: 0.5"/>
     <use xlink:href="#mb3ae903069" x="45.244362" y="23.554286" style="fill: #808080; fill-opacity: 0.5"/>
    </g>
   </g>
   <g id="PathCollection_2">
    <g clip-path="url(#p0fa70dbbfb)">
     <use xlink:href="#mb3ae903069" x="79.421642" y="67.165714" style="fill: #808080; fill-opacity: 0.5"/>
     <use xlink:href="#mb3ae903069" x="76.618908" y="34.457143" style="fill: #808080; fill-opacity: 0.5"/>
     <use xlink:href="#mb3ae903069" x="80.514929" y="56.262857" style="fill: #808080; fill-opacity: 0.5"/>
     <use xlink:href="#mb3ae903069" x="78.229129" y="45.36" style="fill: #808080; fill-opacity: 0.5"/>
     <use xlink:href="#mb3ae903069" x="77.105087" y="56.262857" style="fill: #808080; fill-opacity: 0.5"/>
     <use xlink:href="#mb3ae903069" x="80.471656" y="12.651429" style="fill: #808080; fill-opacity: 0.5"/>
     <use xlink:href="#mb3ae903069" x="78.163517" y="67.165714" style="fill: #808080; fill-opacity: 0.5"/>
     <use xlink:href="#mb3ae903069" x="78.642818" y="56.262857" style="fill: #808080; fill-opacity: 0.5"/>
     <use xlink:href="#mb3ae903069" x="75.541695" y="56.262857" style="fill: #808080; fill-opacity: 0.5"/>
     <use xlink:href="#mb3ae903069" x="79.459205" y="67.165714" style="fill: #808080; fill-opacity: 0.5"/>
    </g>
   </g>
  </g>
 </g>
 <defs>
  <clipPath id="p0fa70dbbfb">
   <rect x="30.7425" y="7.2" width="63.11" height="114.48"/>
  </clipPath>
 </defs>
</svg>
