<?xml version="1.0" encoding="utf-8" standalone="no"?>
<!DOCTYPE svg PUBLIC "-//W3C//DTD SVG 1.1//EN"
  "http://www.w3.org/Graphics/SVG/1.1/DTD/svg11.dtd">
<svg xmlns:xlink="http://www.w3.org/1999/xlink" width="100.9625pt" height="136.522578pt" viewBox="0 0 100.9625 136.522578" xmlns="http://www.w3.org/2000/svg" version="1.1">
 <metadata>
  <rdf:RDF xmlns:dc="http://purl.org/dc/elements/1.1/" xmlns:cc="http://creativecommons.org/ns#" xmlns:rdf="http://www.w3.org/1999/02/22-rdf-syntax-ns#">
   <cc:Work>
    <dc:type rdf:resource="http://purl.org/dc/dcmitype/StillImage"/>
    <dc:date>2025-08-21T00:23:05.303361</dc:date>
    <dc:format>image/svg+xml</dc:format>
    <dc:creator>
     <cc:Agent>
      <dc:title>Matplotlib v3.10.5, https://matplotlib.org/</dc:title>
     </cc:Agent>
    </dc:creator>
   </cc:Work>
  </rdf:RDF>
 </metadata>
 <defs>
  <style type="text/css">*{stroke-linejoin: round; stroke-linecap: butt}</style>
 </defs>
 <g id="figure_1">
  <g id="patch_1">
   <path d="M -0 136.522578 
L 100.9625 136.522578 
L 100.9625 0 
L -0 0 
L -0 136.522578 
z
" style="fill: none"/>
  </g>
  <g id="axes_1">
   <g id="patch_2">
    <path d="M 30.7425 121.68 
L 93.7625 121.68 
L 93.7625 7.2 
L 30.7425 7.2 
L 30.7425 121.68 
z
" style="fill: none"/>
   </g>
   <g id="patch_3">
    <path d="M 37.0445 121.68 
L 55.9505 121.68 
L 55.9505 52.71467 
L 37.0445 52.71467 
z
" clip-path="url(#p83d788107a)" style="fill: #7284ac"/>
   </g>
   <g id="patch_4">
    <path d="M 68.5545 121.68 
L 87.4605 121.68 
L 87.4605 35.592174 
L 68.5545 35.592174 
z
" clip-path="url(#p83d788107a)" style="fill: #cc6868"/>
   </g>
   <g id="matplotlib.axis_1"/>
   <g id="matplotlib.axis_2">
    <g id="ytick_1">
     <g id="line2d_1">
      <defs>
       <path id="m07d5b4d7ee" d="M 0 0 
L -3.5 0 
" style="stroke: #000000"/>
      </defs>
      <g>
       <use xlink:href="#m07d5b4d7ee" x="30.7425" y="121.68" style="stroke: #000000"/>
      </g>
     </g>
     <g id="text_1">
      <!-- 0 -->
      <g transform="translate(15.47125 126.618984) scale(0.13 -0.13)">
       <defs>
        <path id="DejaVuSans-30" d="M 2034 4250 
Q 1547 4250 1301 3770 
Q 1056 3291 1056 2328 
Q 1056 1369 1301 889 
Q 1547 409 2034 409 
Q 2525 409 2770 889 
Q 3016 1369 3016 2328 
Q 3016 3291 2770 3770 
Q 2525 4250 2034 4250 
z
M 2034 4750 
Q 2819 4750 3233 4129 
Q 3647 3509 3647 2328 
Q 3647 1150 3233 529 
Q 2819 -91 2034 -91 
Q 1250 -91 836 529 
Q 422 1150 422 2328 
Q 422 3509 836 4129 
Q 1250 4750 2034 4750 
z
" transform="scale(0.015625)"/>
       </defs>
       <use xlink:href="#DejaVuSans-30"/>
      </g>
     </g>
    </g>
    <g id="ytick_2">
     <g id="line2d_2">
      <g>
       <use xlink:href="#m07d5b4d7ee" x="30.7425" y="73.673393" style="stroke: #000000"/>
      </g>
     </g>
     <g id="text_2">
      <!-- 10 -->
      <g transform="translate(7.2 78.612377) scale(0.13 -0.13)">
       <defs>
        <path id="DejaVuSans-31" d="M 794 531 
L 1825 531 
L 1825 4091 
L 703 3866 
L 703 4441 
L 1819 4666 
L 2450 4666 
L 2450 531 
L 3481 531 
L 3481 0 
L 794 0 
L 794 531 
z
" transform="scale(0.015625)"/>
       </defs>
       <use xlink:href="#DejaVuSans-31"/>
       <use xlink:href="#DejaVuSans-30" transform="translate(63.623047 0)"/>
      </g>
     </g>
    </g>
    <g id="ytick_3">
     <g id="line2d_3">
      <g>
       <use xlink:href="#m07d5b4d7ee" x="30.7425" y="25.666786" style="stroke: #000000"/>
      </g>
     </g>
     <g id="text_3">
      <!-- 20 -->
      <g transform="translate(7.2 30.60577) scale(0.13 -0.13)">
       <defs>
        <path id="DejaVuSans-32" d="M 1228 531 
L 3431 531 
L 3431 0 
L 469 0 
L 469 531 
Q 828 903 1448 1529 
Q 2069 2156 2228 2338 
Q 2531 2678 2651 2914 
Q 2772 3150 2772 3378 
Q 2772 3750 2511 3984 
Q 2250 4219 1831 4219 
Q 1534 4219 1204 4116 
Q 875 4013 500 3803 
L 500 4441 
Q 881 4594 1212 4672 
Q 1544 4750 1819 4750 
Q 2544 4750 2975 4387 
Q 3406 4025 3406 3419 
Q 3406 3131 3298 2873 
Q 3191 2616 2906 2266 
Q 2828 2175 2409 1742 
Q 1991 1309 1228 531 
z
" transform="scale(0.015625)"/>
       </defs>
       <use xlink:href="#DejaVuSans-32"/>
       <use xlink:href="#DejaVuSans-30" transform="translate(63.623047 0)"/>
      </g>
     </g>
    </g>
   </g>
   <g id="LineCollection_1">
    <path d="M 46.4975 54.646588 
L 46.4975 50.782753 
" clip-path="url(#p83d788107a)" style="fill: none; stroke: #000000"/>
    <path d="M 78.0075 39.842083 
L 78.0075 31.342264 
" clip-path="url(#p83d788107a)" style="fill: none; stroke: #000000"/>
   </g>
   <g id="patch_5">
    <path d="M 30.7425 121.68 
L 30.7425 7.2 
" style="fill: none; stroke: #000000; stroke-linejoin: miter; stroke-linecap: square"/>
   </g>
   <g id="PathCollection_1">
    <defs>
     <path id="m4b6999163c" d="M 0 1.5 
C 0.397805 1.5 0.77937 1.341951 1.06066 1.06066 
C 1.341951 0.77937 1.5 0.397805 1.5 0 
C 1.5 -0.397805 1.341951 -0.77937 1.06066 -1.06066 
C 0.77937 -1.341951 0.397805 -1.5 0 -1.5 
C -0.397805 -1.5 -0.77937 -1.341951 -1.06066 -1.06066 
C -1.341951 -0.77937 -1.5 -0.397805 -1.5 0 
C -1.5 0.397805 -1.341951 0.77937 -1.06066 1.06066 
C -0.77937 1.341951 -0.397805 1.5 0 1.5 
z
"/>
    </defs>
    <g clip-path="url(#p83d788107a)">
     <use xlink:href="#m4b6999163c" x="45.432671" y="40.774419" style="fill: #808080; fill-opacity: 0.5"/>
     <use xlink:href="#m4b6999163c" x="49.442158" y="52.734147" style="fill: #808080; fill-opacity: 0.5"/>
     <use xlink:href="#m4b6999163c" x="44.808657" y="63.30069" style="fill: #808080; fill-opacity: 0.5"/>
     <use xlink:href="#m4b6999163c" x="47.361857" y="50.927777" style="fill: #808080; fill-opacity: 0.5"/>
     <use xlink:href="#m4b6999163c" x="44.209605" y="52.195793" style="fill: #808080; fill-opacity: 0.5"/>
     <use xlink:href="#m4b6999163c" x="46.618526" y="59.784082" style="fill: #808080; fill-opacity: 0.5"/>
     <use xlink:href="#m4b6999163c" x="45.790994" y="54.566568" style="fill: #808080; fill-opacity: 0.5"/>
     <use xlink:href="#m4b6999163c" x="46.581274" y="52.619947" style="fill: #808080; fill-opacity: 0.5"/>
     <use xlink:href="#m4b6999163c" x="47.086771" y="47.781902" style="fill: #808080; fill-opacity: 0.5"/>
     <use xlink:href="#m4b6999163c" x="47.024737" y="52.46138" style="fill: #808080; fill-opacity: 0.5"/>
    </g>
   </g>
   <g id="PathCollection_2">
    <g clip-path="url(#p83d788107a)">
     <use xlink:href="#m4b6999163c" x="77.862461" y="41.085937" style="fill: #808080; fill-opacity: 0.5"/>
     <use xlink:href="#m4b6999163c" x="76.3218" y="41.076185" style="fill: #808080; fill-opacity: 0.5"/>
     <use xlink:href="#m4b6999163c" x="77.514733" y="12.651429" style="fill: #808080; fill-opacity: 0.5"/>
     <use xlink:href="#m4b6999163c" x="75.918955" y="13.275449" style="fill: #808080; fill-opacity: 0.5"/>
     <use xlink:href="#m4b6999163c" x="78.309467" y="40.527856" style="fill: #808080; fill-opacity: 0.5"/>
     <use xlink:href="#m4b6999163c" x="80.858966" y="34.894335" style="fill: #808080; fill-opacity: 0.5"/>
     <use xlink:href="#m4b6999163c" x="78.012577" y="55.594266" style="fill: #808080; fill-opacity: 0.5"/>
     <use xlink:href="#m4b6999163c" x="80.520699" y="46.314224" style="fill: #808080; fill-opacity: 0.5"/>
     <use xlink:href="#m4b6999163c" x="79.189818" y="34.595595" style="fill: #808080; fill-opacity: 0.5"/>
     <use xlink:href="#m4b6999163c" x="80.297781" y="35.906462" style="fill: #808080; fill-opacity: 0.5"/>
    </g>
   </g>
  </g>
 </g>
 <defs>
  <clipPath id="p83d788107a">
   <rect x="30.7425" y="7.2" width="63.02" height="114.48"/>
  </clipPath>
 </defs>
</svg>
