<?xml version="1.0" encoding="utf-8" standalone="no"?>
<!DOCTYPE svg PUBLIC "-//W3C//DTD SVG 1.1//EN"
  "http://www.w3.org/Graphics/SVG/1.1/DTD/svg11.dtd">
<svg xmlns:xlink="http://www.w3.org/1999/xlink" width="100.86pt" height="132.621289pt" viewBox="0 0 100.86 132.621289" xmlns="http://www.w3.org/2000/svg" version="1.1">
 <metadata>
  <rdf:RDF xmlns:dc="http://purl.org/dc/elements/1.1/" xmlns:cc="http://creativecommons.org/ns#" xmlns:rdf="http://www.w3.org/1999/02/22-rdf-syntax-ns#">
   <cc:Work>
    <dc:type rdf:resource="http://purl.org/dc/dcmitype/StillImage"/>
    <dc:date>2025-08-21T00:25:34.684231</dc:date>
    <dc:format>image/svg+xml</dc:format>
    <dc:creator>
     <cc:Agent>
      <dc:title>Matplotlib v3.10.5, https://matplotlib.org/</dc:title>
     </cc:Agent>
    </dc:creator>
   </cc:Work>
  </rdf:RDF>
 </metadata>
 <defs>
  <style type="text/css">*{stroke-linejoin: round; stroke-linecap: butt}</style>
 </defs>
 <g id="figure_1">
  <g id="patch_1">
   <path d="M -0 132.621289 
L 100.86 132.621289 
L 100.86 0 
L -0 0 
L -0 132.621289 
z
" style="fill: none"/>
  </g>
  <g id="axes_1">
   <g id="patch_2">
    <path d="M 29.47 106.807539 
L 93.66 106.807539 
L 93.66 18.364885 
L 29.47 18.364885 
L 29.47 106.807539 
z
" style="fill: none"/>
   </g>
   <g id="matplotlib.axis_1">
    <g id="xtick_1">
     <g id="line2d_1">
      <defs>
       <path id="m102141fc2e" d="M 0 0 
L 0 3.5 
" style="stroke: #000000; stroke-width: 0.8"/>
      </defs>
      <g>
       <use xlink:href="#m102141fc2e" x="37.732079" y="106.807539" style="stroke: #000000; stroke-width: 0.8"/>
      </g>
     </g>
     <g id="text_1">
      <!-- 1 -->
      <g transform="translate(33.914579 122.925664) scale(0.12 -0.12)">
       <defs>
        <path id="DejaVuSans-31" d="M 794 531 
L 1825 531 
L 1825 4091 
L 703 3866 
L 703 4441 
L 1819 4666 
L 2450 4666 
L 2450 531 
L 3481 531 
L 3481 0 
L 794 0 
L 794 531 
z
" transform="scale(0.015625)"/>
       </defs>
       <use xlink:href="#DejaVuSans-31"/>
      </g>
     </g>
    </g>
    <g id="xtick_2">
     <g id="line2d_2">
      <g>
       <use xlink:href="#m102141fc2e" x="53.620693" y="106.807539" style="stroke: #000000; stroke-width: 0.8"/>
      </g>
     </g>
     <g id="text_2">
      <!-- 2 -->
      <g transform="translate(49.803193 122.925664) scale(0.12 -0.12)">
       <defs>
        <path id="DejaVuSans-32" d="M 1228 531 
L 3431 531 
L 3431 0 
L 469 0 
L 469 531 
Q 828 903 1448 1529 
Q 2069 2156 2228 2338 
Q 2531 2678 2651 2914 
Q 2772 3150 2772 3378 
Q 2772 3750 2511 3984 
Q 2250 4219 1831 4219 
Q 1534 4219 1204 4116 
Q 875 4013 500 3803 
L 500 4441 
Q 881 4594 1212 4672 
Q 1544 4750 1819 4750 
Q 2544 4750 2975 4387 
Q 3406 4025 3406 3419 
Q 3406 3131 3298 2873 
Q 3191 2616 2906 2266 
Q 2828 2175 2409 1742 
Q 1991 1309 1228 531 
z
" transform="scale(0.015625)"/>
       </defs>
       <use xlink:href="#DejaVuSans-32"/>
      </g>
     </g>
    </g>
    <g id="xtick_3">
     <g id="line2d_3">
      <g>
       <use xlink:href="#m102141fc2e" x="69.509307" y="106.807539" style="stroke: #000000; stroke-width: 0.8"/>
      </g>
     </g>
     <g id="text_3">
      <!-- 3 -->
      <g transform="translate(65.691807 122.925664) scale(0.12 -0.12)">
       <defs>
        <path id="DejaVuSans-33" d="M 2597 2516 
Q 3050 2419 3304 2112 
Q 3559 1806 3559 1356 
Q 3559 666 3084 287 
Q 2609 -91 1734 -91 
Q 1441 -91 1130 -33 
Q 819 25 488 141 
L 488 750 
Q 750 597 1062 519 
Q 1375 441 1716 441 
Q 2309 441 2620 675 
Q 2931 909 2931 1356 
Q 2931 1769 2642 2001 
Q 2353 2234 1838 2234 
L 1294 2234 
L 1294 2753 
L 1863 2753 
Q 2328 2753 2575 2939 
Q 2822 3125 2822 3475 
Q 2822 3834 2567 4026 
Q 2313 4219 1838 4219 
Q 1578 4219 1281 4162 
Q 984 4106 628 3988 
L 628 4550 
Q 988 4650 1302 4700 
Q 1616 4750 1894 4750 
Q 2613 4750 3031 4423 
Q 3450 4097 3450 3541 
Q 3450 3153 3228 2886 
Q 3006 2619 2597 2516 
z
" transform="scale(0.015625)"/>
       </defs>
       <use xlink:href="#DejaVuSans-33"/>
      </g>
     </g>
    </g>
    <g id="xtick_4">
     <g id="line2d_4">
      <g>
       <use xlink:href="#m102141fc2e" x="85.397921" y="106.807539" style="stroke: #000000; stroke-width: 0.8"/>
      </g>
     </g>
     <g id="text_4">
      <!-- 4 -->
      <g transform="translate(81.580421 122.925664) scale(0.12 -0.12)">
       <defs>
        <path id="DejaVuSans-34" d="M 2419 4116 
L 825 1625 
L 2419 1625 
L 2419 4116 
z
M 2253 4666 
L 3047 4666 
L 3047 1625 
L 3713 1625 
L 3713 1100 
L 3047 1100 
L 3047 0 
L 2419 0 
L 2419 1100 
L 313 1100 
L 313 1709 
L 2253 4666 
z
" transform="scale(0.015625)"/>
       </defs>
       <use xlink:href="#DejaVuSans-34"/>
      </g>
     </g>
    </g>
   </g>
   <g id="matplotlib.axis_2">
    <g id="ytick_1">
     <g id="line2d_5">
      <defs>
       <path id="m16f9d91285" d="M 0 0 
L -3.5 0 
" style="stroke: #000000; stroke-width: 0.8"/>
      </defs>
      <g>
       <use xlink:href="#m16f9d91285" x="29.47" y="102.788279" style="stroke: #000000; stroke-width: 0.8"/>
      </g>
     </g>
     <g id="text_5">
      <!-- 0 -->
      <g transform="translate(14.835 107.347342) scale(0.12 -0.12)">
       <defs>
        <path id="DejaVuSans-30" d="M 2034 4250 
Q 1547 4250 1301 3770 
Q 1056 3291 1056 2328 
Q 1056 1369 1301 889 
Q 1547 409 2034 409 
Q 2525 409 2770 889 
Q 3016 1369 3016 2328 
Q 3016 3291 2770 3770 
Q 2525 4250 2034 4250 
z
M 2034 4750 
Q 2819 4750 3233 4129 
Q 3647 3509 3647 2328 
Q 3647 1150 3233 529 
Q 2819 -91 2034 -91 
Q 1250 -91 836 529 
Q 422 1150 422 2328 
Q 422 3509 836 4129 
Q 1250 4750 2034 4750 
z
" transform="scale(0.015625)"/>
       </defs>
       <use xlink:href="#DejaVuSans-30"/>
      </g>
     </g>
    </g>
    <g id="ytick_2">
     <g id="line2d_6">
      <g>
       <use xlink:href="#m16f9d91285" x="29.47" y="58.328614" style="stroke: #000000; stroke-width: 0.8"/>
      </g>
     </g>
     <g id="text_6">
      <!-- 20 -->
      <g transform="translate(7.2 62.887677) scale(0.12 -0.12)">
       <use xlink:href="#DejaVuSans-32"/>
       <use xlink:href="#DejaVuSans-30" transform="translate(63.623047 0)"/>
      </g>
     </g>
    </g>
   </g>
   <g id="patch_3">
    <path d="M 32.118102 102.604833 
L 37.414307 102.604833 
L 37.414307 100.048584 
L 32.118102 100.048584 
L 32.118102 102.604833 
z
" clip-path="url(#p343658051a)" style="fill: #374f88; opacity: 0.7"/>
   </g>
   <g id="line2d_7">
    <path d="M 34.766205 102.604833 
L 34.766205 102.775124 
" clip-path="url(#p343658051a)" style="fill: none; stroke: #808080; stroke-linecap: square"/>
   </g>
   <g id="line2d_8">
    <path d="M 34.766205 100.048584 
L 34.766205 96.364303 
" clip-path="url(#p343658051a)" style="fill: none; stroke: #808080; stroke-linecap: square"/>
   </g>
   <g id="line2d_9">
    <path d="M 33.442153 102.775124 
L 36.090256 102.775124 
" clip-path="url(#p343658051a)" style="fill: none; stroke: #808080; stroke-linecap: square"/>
   </g>
   <g id="line2d_10">
    <path d="M 33.442153 96.364303 
L 36.090256 96.364303 
" clip-path="url(#p343658051a)" style="fill: none; stroke: #808080; stroke-linecap: square"/>
   </g>
   <g id="patch_4">
    <path d="M 32.118102 91.176328 
L 37.414307 91.176328 
L 37.414307 53.104298 
L 32.118102 53.104298 
L 32.118102 91.176328 
z
" clip-path="url(#p343658051a)" style="fill: #b53b3a; opacity: 0.7"/>
   </g>
   <g id="line2d_11">
    <path d="M 34.766205 91.176328 
L 34.766205 102.623098 
" clip-path="url(#p343658051a)" style="fill: none; stroke: #808080; stroke-linecap: square"/>
   </g>
   <g id="line2d_12">
    <path d="M 34.766205 53.104298 
L 34.766205 30.397915 
" clip-path="url(#p343658051a)" style="fill: none; stroke: #808080; stroke-linecap: square"/>
   </g>
   <g id="line2d_13">
    <path d="M 33.442153 102.623098 
L 36.090256 102.623098 
" clip-path="url(#p343658051a)" style="fill: none; stroke: #808080; stroke-linecap: square"/>
   </g>
   <g id="line2d_14">
    <path d="M 33.442153 30.397915 
L 36.090256 30.397915 
" clip-path="url(#p343658051a)" style="fill: none; stroke: #808080; stroke-linecap: square"/>
   </g>
   <g id="patch_5">
    <path d="M 38.049851 99.034664 
L 43.346056 99.034664 
L 43.346056 67.586138 
L 38.049851 67.586138 
L 38.049851 99.034664 
z
" clip-path="url(#p343658051a)" style="fill: #afafaf; opacity: 0.6"/>
   </g>
   <g id="line2d_15">
    <path d="M 40.697954 99.034664 
L 40.697954 102.73729 
" clip-path="url(#p343658051a)" style="fill: none; stroke: #808080; stroke-linecap: square"/>
   </g>
   <g id="line2d_16">
    <path d="M 40.697954 67.586138 
L 40.697954 22.385006 
" clip-path="url(#p343658051a)" style="fill: none; stroke: #808080; stroke-linecap: square"/>
   </g>
   <g id="line2d_17">
    <path d="M 39.373903 102.73729 
L 42.022005 102.73729 
" clip-path="url(#p343658051a)" style="fill: none; stroke: #808080; stroke-linecap: square"/>
   </g>
   <g id="line2d_18">
    <path d="M 39.373903 22.385006 
L 42.022005 22.385006 
" clip-path="url(#p343658051a)" style="fill: none; stroke: #808080; stroke-linecap: square"/>
   </g>
   <g id="patch_6">
    <path d="M 48.006716 102.500053 
L 53.302921 102.500053 
L 53.302921 100.093815 
L 48.006716 100.093815 
L 48.006716 102.500053 
z
" clip-path="url(#p343658051a)" style="fill: #374f88; opacity: 0.7"/>
   </g>
   <g id="line2d_19">
    <path d="M 50.654818 102.500053 
L 50.654818 102.684218 
" clip-path="url(#p343658051a)" style="fill: none; stroke: #808080; stroke-linecap: square"/>
   </g>
   <g id="line2d_20">
    <path d="M 50.654818 100.093815 
L 50.654818 96.667 
" clip-path="url(#p343658051a)" style="fill: none; stroke: #808080; stroke-linecap: square"/>
   </g>
   <g id="line2d_21">
    <path d="M 49.330767 102.684218 
L 51.97887 102.684218 
" clip-path="url(#p343658051a)" style="fill: none; stroke: #808080; stroke-linecap: square"/>
   </g>
   <g id="line2d_22">
    <path d="M 49.330767 96.667 
L 51.97887 96.667 
" clip-path="url(#p343658051a)" style="fill: none; stroke: #808080; stroke-linecap: square"/>
   </g>
   <g id="patch_7">
    <path d="M 48.006716 102.141206 
L 53.302921 102.141206 
L 53.302921 79.359375 
L 48.006716 79.359375 
L 48.006716 102.141206 
z
" clip-path="url(#p343658051a)" style="fill: #b53b3a; opacity: 0.7"/>
   </g>
   <g id="line2d_23">
    <path d="M 50.654818 102.141206 
L 50.654818 102.59933 
" clip-path="url(#p343658051a)" style="fill: none; stroke: #808080; stroke-linecap: square"/>
   </g>
   <g id="line2d_24">
    <path d="M 50.654818 79.359375 
L 50.654818 65.240487 
" clip-path="url(#p343658051a)" style="fill: none; stroke: #808080; stroke-linecap: square"/>
   </g>
   <g id="line2d_25">
    <path d="M 49.330767 102.59933 
L 51.97887 102.59933 
" clip-path="url(#p343658051a)" style="fill: none; stroke: #808080; stroke-linecap: square"/>
   </g>
   <g id="line2d_26">
    <path d="M 49.330767 65.240487 
L 51.97887 65.240487 
" clip-path="url(#p343658051a)" style="fill: none; stroke: #808080; stroke-linecap: square"/>
   </g>
   <g id="patch_8">
    <path d="M 53.938465 102.49135 
L 59.23467 102.49135 
L 59.23467 96.231933 
L 53.938465 96.231933 
L 53.938465 102.49135 
z
" clip-path="url(#p343658051a)" style="fill: #afafaf; opacity: 0.6"/>
   </g>
   <g id="line2d_27">
    <path d="M 56.586568 102.49135 
L 56.586568 102.754147 
" clip-path="url(#p343658051a)" style="fill: none; stroke: #808080; stroke-linecap: square"/>
   </g>
   <g id="line2d_28">
    <path d="M 56.586568 96.231933 
L 56.586568 87.647702 
" clip-path="url(#p343658051a)" style="fill: none; stroke: #808080; stroke-linecap: square"/>
   </g>
   <g id="line2d_29">
    <path d="M 55.262517 102.754147 
L 57.910619 102.754147 
" clip-path="url(#p343658051a)" style="fill: none; stroke: #808080; stroke-linecap: square"/>
   </g>
   <g id="line2d_30">
    <path d="M 55.262517 87.647702 
L 57.910619 87.647702 
" clip-path="url(#p343658051a)" style="fill: none; stroke: #808080; stroke-linecap: square"/>
   </g>
   <g id="patch_9">
    <path d="M 63.89533 100.392446 
L 69.191535 100.392446 
L 69.191535 84.007217 
L 63.89533 84.007217 
L 63.89533 100.392446 
z
" clip-path="url(#p343658051a)" style="fill: #374f88; opacity: 0.7"/>
   </g>
   <g id="line2d_31">
    <path d="M 66.543432 100.392446 
L 66.543432 102.711131 
" clip-path="url(#p343658051a)" style="fill: none; stroke: #808080; stroke-linecap: square"/>
   </g>
   <g id="line2d_32">
    <path d="M 66.543432 84.007217 
L 66.543432 70.647395 
" clip-path="url(#p343658051a)" style="fill: none; stroke: #808080; stroke-linecap: square"/>
   </g>
   <g id="line2d_33">
    <path d="M 65.219381 102.711131 
L 67.867483 102.711131 
" clip-path="url(#p343658051a)" style="fill: none; stroke: #808080; stroke-linecap: square"/>
   </g>
   <g id="line2d_34">
    <path d="M 65.219381 70.647395 
L 67.867483 70.647395 
" clip-path="url(#p343658051a)" style="fill: none; stroke: #808080; stroke-linecap: square"/>
   </g>
   <g id="patch_10">
    <path d="M 63.89533 94.319422 
L 69.191535 94.319422 
L 69.191535 82.592293 
L 63.89533 82.592293 
L 63.89533 94.319422 
z
" clip-path="url(#p343658051a)" style="fill: #b53b3a; opacity: 0.7"/>
   </g>
   <g id="line2d_35">
    <path d="M 66.543432 94.319422 
L 66.543432 102.751586 
" clip-path="url(#p343658051a)" style="fill: none; stroke: #808080; stroke-linecap: square"/>
   </g>
   <g id="line2d_36">
    <path d="M 66.543432 82.592293 
L 66.543432 65.078172 
" clip-path="url(#p343658051a)" style="fill: none; stroke: #808080; stroke-linecap: square"/>
   </g>
   <g id="line2d_37">
    <path d="M 65.219381 102.751586 
L 67.867483 102.751586 
" clip-path="url(#p343658051a)" style="fill: none; stroke: #808080; stroke-linecap: square"/>
   </g>
   <g id="line2d_38">
    <path d="M 65.219381 65.078172 
L 67.867483 65.078172 
" clip-path="url(#p343658051a)" style="fill: none; stroke: #808080; stroke-linecap: square"/>
   </g>
   <g id="patch_11">
    <path d="M 69.827079 97.689982 
L 75.123284 97.689982 
L 75.123284 76.952792 
L 69.827079 76.952792 
L 69.827079 97.689982 
z
" clip-path="url(#p343658051a)" style="fill: #afafaf; opacity: 0.6"/>
   </g>
   <g id="line2d_39">
    <path d="M 72.475182 97.689982 
L 72.475182 102.746825 
" clip-path="url(#p343658051a)" style="fill: none; stroke: #808080; stroke-linecap: square"/>
   </g>
   <g id="line2d_40">
    <path d="M 72.475182 76.952792 
L 72.475182 64.151749 
" clip-path="url(#p343658051a)" style="fill: none; stroke: #808080; stroke-linecap: square"/>
   </g>
   <g id="line2d_41">
    <path d="M 71.15113 102.746825 
L 73.799233 102.746825 
" clip-path="url(#p343658051a)" style="fill: none; stroke: #808080; stroke-linecap: square"/>
   </g>
   <g id="line2d_42">
    <path d="M 71.15113 64.151749 
L 73.799233 64.151749 
" clip-path="url(#p343658051a)" style="fill: none; stroke: #808080; stroke-linecap: square"/>
   </g>
   <g id="patch_12">
    <path d="M 79.783944 102.521898 
L 85.080149 102.521898 
L 85.080149 98.522594 
L 79.783944 98.522594 
L 79.783944 102.521898 
z
" clip-path="url(#p343658051a)" style="fill: #374f88; opacity: 0.7"/>
   </g>
   <g id="line2d_43">
    <path d="M 82.432046 102.521898 
L 82.432046 102.787418 
" clip-path="url(#p343658051a)" style="fill: none; stroke: #808080; stroke-linecap: square"/>
   </g>
   <g id="line2d_44">
    <path d="M 82.432046 98.522594 
L 82.432046 93.765618 
" clip-path="url(#p343658051a)" style="fill: none; stroke: #808080; stroke-linecap: square"/>
   </g>
   <g id="line2d_45">
    <path d="M 81.107995 102.787418 
L 83.756097 102.787418 
" clip-path="url(#p343658051a)" style="fill: none; stroke: #808080; stroke-linecap: square"/>
   </g>
   <g id="line2d_46">
    <path d="M 81.107995 93.765618 
L 83.756097 93.765618 
" clip-path="url(#p343658051a)" style="fill: none; stroke: #808080; stroke-linecap: square"/>
   </g>
   <g id="patch_13">
    <path d="M 79.783944 99.520524 
L 85.080149 99.520524 
L 85.080149 86.775481 
L 79.783944 86.775481 
L 79.783944 99.520524 
z
" clip-path="url(#p343658051a)" style="fill: #b53b3a; opacity: 0.7"/>
   </g>
   <g id="line2d_47">
    <path d="M 82.432046 99.520524 
L 82.432046 102.663983 
" clip-path="url(#p343658051a)" style="fill: none; stroke: #808080; stroke-linecap: square"/>
   </g>
   <g id="line2d_48">
    <path d="M 82.432046 86.775481 
L 82.432046 72.159734 
" clip-path="url(#p343658051a)" style="fill: none; stroke: #808080; stroke-linecap: square"/>
   </g>
   <g id="line2d_49">
    <path d="M 81.107995 102.663983 
L 83.756097 102.663983 
" clip-path="url(#p343658051a)" style="fill: none; stroke: #808080; stroke-linecap: square"/>
   </g>
   <g id="line2d_50">
    <path d="M 81.107995 72.159734 
L 83.756097 72.159734 
" clip-path="url(#p343658051a)" style="fill: none; stroke: #808080; stroke-linecap: square"/>
   </g>
   <g id="patch_14">
    <path d="M 85.715693 102.302606 
L 91.011898 102.302606 
L 91.011898 93.226412 
L 85.715693 93.226412 
L 85.715693 102.302606 
z
" clip-path="url(#p343658051a)" style="fill: #afafaf; opacity: 0.6"/>
   </g>
   <g id="line2d_51">
    <path d="M 88.363795 102.302606 
L 88.363795 102.765852 
" clip-path="url(#p343658051a)" style="fill: none; stroke: #808080; stroke-linecap: square"/>
   </g>
   <g id="line2d_52">
    <path d="M 88.363795 93.226412 
L 88.363795 85.373248 
" clip-path="url(#p343658051a)" style="fill: none; stroke: #808080; stroke-linecap: square"/>
   </g>
   <g id="line2d_53">
    <path d="M 87.039744 102.765852 
L 89.687847 102.765852 
" clip-path="url(#p343658051a)" style="fill: none; stroke: #808080; stroke-linecap: square"/>
   </g>
   <g id="line2d_54">
    <path d="M 87.039744 85.373248 
L 89.687847 85.373248 
" clip-path="url(#p343658051a)" style="fill: none; stroke: #808080; stroke-linecap: square"/>
   </g>
   <g id="line2d_55">
    <path d="M 32.118102 102.349969 
L 37.414307 102.349969 
" clip-path="url(#p343658051a)" style="fill: none; stroke: #808080"/>
   </g>
   <g id="line2d_56">
    <path d="M 32.118102 70.941936 
L 37.414307 70.941936 
" clip-path="url(#p343658051a)" style="fill: none; stroke: #808080"/>
   </g>
   <g id="line2d_57">
    <path d="M 38.049851 82.527384 
L 43.346056 82.527384 
" clip-path="url(#p343658051a)" style="fill: none; stroke: #808080"/>
   </g>
   <g id="line2d_58">
    <path d="M 48.006716 101.937431 
L 53.302921 101.937431 
" clip-path="url(#p343658051a)" style="fill: none; stroke: #808080"/>
   </g>
   <g id="line2d_59">
    <path d="M 48.006716 98.125338 
L 53.302921 98.125338 
" clip-path="url(#p343658051a)" style="fill: none; stroke: #808080"/>
   </g>
   <g id="line2d_60">
    <path d="M 53.938465 102.095692 
L 59.23467 102.095692 
" clip-path="url(#p343658051a)" style="fill: none; stroke: #808080"/>
   </g>
   <g id="line2d_61">
    <path d="M 63.89533 93.496783 
L 69.191535 93.496783 
" clip-path="url(#p343658051a)" style="fill: none; stroke: #808080"/>
   </g>
   <g id="line2d_62">
    <path d="M 63.89533 88.676541 
L 69.191535 88.676541 
" clip-path="url(#p343658051a)" style="fill: none; stroke: #808080"/>
   </g>
   <g id="line2d_63">
    <path d="M 69.827079 90.477138 
L 75.123284 90.477138 
" clip-path="url(#p343658051a)" style="fill: none; stroke: #808080"/>
   </g>
   <g id="line2d_64">
    <path d="M 79.783944 101.017088 
L 85.080149 101.017088 
" clip-path="url(#p343658051a)" style="fill: none; stroke: #808080"/>
   </g>
   <g id="line2d_65">
    <path d="M 79.783944 92.873808 
L 85.080149 92.873808 
" clip-path="url(#p343658051a)" style="fill: none; stroke: #808080"/>
   </g>
   <g id="line2d_66">
    <path d="M 85.715693 99.849631 
L 91.011898 99.849631 
" clip-path="url(#p343658051a)" style="fill: none; stroke: #808080"/>
   </g>
   <g id="patch_15">
    <path d="M 29.47 102.788279 
L 29.47 7.2 
" style="fill: none; stroke: #000000; stroke-width: 0.8; stroke-linejoin: miter; stroke-linecap: square"/>
   </g>
   <g id="patch_16">
    <path d="M 32.435875 106.807539 
L 90.694125 106.807539 
" style="fill: none; stroke: #000000; stroke-width: 0.8; stroke-linejoin: miter; stroke-linecap: square"/>
   </g>
  </g>
 </g>
 <defs>
  <clipPath id="p343658051a">
   <rect x="29.47" y="18.364885" width="64.19" height="88.442654"/>
  </clipPath>
 </defs>
</svg>
