<?xml version="1.0" encoding="utf-8" standalone="no"?>
<!DOCTYPE svg PUBLIC "-//W3C//DTD SVG 1.1//EN"
  "http://www.w3.org/Graphics/SVG/1.1/DTD/svg11.dtd">
<svg xmlns:xlink="http://www.w3.org/1999/xlink" width="172.7975pt" height="136.685625pt" viewBox="0 0 172.7975 136.685625" xmlns="http://www.w3.org/2000/svg" version="1.1">
 <metadata>
  <rdf:RDF xmlns:dc="http://purl.org/dc/elements/1.1/" xmlns:cc="http://creativecommons.org/ns#" xmlns:rdf="http://www.w3.org/1999/02/22-rdf-syntax-ns#">
   <cc:Work>
    <dc:type rdf:resource="http://purl.org/dc/dcmitype/StillImage"/>
    <dc:date>2025-08-21T00:23:04.811981</dc:date>
    <dc:format>image/svg+xml</dc:format>
    <dc:creator>
     <cc:Agent>
      <dc:title>Matplotlib v3.10.5, https://matplotlib.org/</dc:title>
     </cc:Agent>
    </dc:creator>
   </cc:Work>
  </rdf:RDF>
 </metadata>
 <defs>
  <style type="text/css">*{stroke-linejoin: round; stroke-linecap: butt}</style>
 </defs>
 <g id="figure_1">
  <g id="patch_1">
   <path d="M 0 136.685625 
L 172.7975 136.685625 
L 172.7975 0 
L 0 0 
L 0 136.685625 
z
" style="fill: none"/>
  </g>
  <g id="axes_1">
   <g id="patch_2">
    <path d="M 23.1075 106.297772 
L 165.5975 106.297772 
L 165.5975 7.2 
L 23.1075 7.2 
L 23.1075 106.297772 
z
" style="fill: none"/>
   </g>
   <g id="FillBetweenPolyCollection_1">
    <defs>
     <path id="m979b59d75c" d="M 29.584318 -39.189438 
L 29.584318 -40.006515 
L 36.402022 -39.226139 
L 43.219725 -38.538873 
L 50.037428 -37.936031 
L 56.855132 -37.40846 
L 63.672835 -39.851461 
L 70.490538 -43.334771 
L 77.308242 -48.806326 
L 84.125945 -52.930503 
L 90.943648 -56.91555 
L 97.761352 -59.111956 
L 104.579055 -59.338871 
L 111.396758 -58.903102 
L 118.214462 -59.642849 
L 125.032165 -61.318301 
L 131.849868 -59.849051 
L 138.667572 -58.072874 
L 145.485275 -56.097084 
L 152.302978 -54.028759 
L 159.120682 -51.964833 
L 159.120682 -47.763248 
L 159.120682 -47.763248 
L 152.302978 -49.469778 
L 145.485275 -51.17925 
L 138.667572 -52.819601 
L 131.849868 -54.309634 
L 125.032165 -55.565756 
L 118.214462 -54.427671 
L 111.396758 -54.497427 
L 104.579055 -55.039697 
L 97.761352 -56.074358 
L 90.943648 -53.597377 
L 84.125945 -49.394885 
L 77.308242 -45.243277 
L 70.490538 -41.183669 
L 63.672835 -38.582053 
L 56.855132 -36.773198 
L 50.037428 -37.252855 
L 43.219725 -37.80901 
L 36.402022 -38.451459 
L 29.584318 -39.189438 
z
" style="stroke: #374f88; stroke-opacity: 0.25"/>
    </defs>
    <g clip-path="url(#pafa45eb65f)">
     <use xlink:href="#m979b59d75c" x="0" y="136.685625" style="fill: #374f88; fill-opacity: 0.25; stroke: #374f88; stroke-opacity: 0.25"/>
    </g>
   </g>
   <g id="FillBetweenPolyCollection_2">
    <defs>
     <path id="m77d270cce9" d="M 29.584318 -39.189438 
L 29.584318 -40.006515 
L 36.402022 -39.226139 
L 43.219725 -38.538873 
L 50.037428 -37.936031 
L 56.855132 -37.40846 
L 63.672835 -39.518326 
L 70.490538 -41.753051 
L 77.308242 -46.035829 
L 84.125945 -52.898909 
L 90.943648 -53.704425 
L 97.761352 -54.143086 
L 104.579055 -56.337552 
L 111.396758 -55.93891 
L 118.214462 -56.713895 
L 125.032165 -56.821725 
L 131.849868 -55.842071 
L 138.667572 -54.714963 
L 145.485275 -53.495805 
L 152.302978 -52.2293 
L 159.120682 -50.954791 
L 159.120682 -47.61899 
L 159.120682 -47.61899 
L 152.302978 -49.191371 
L 145.485275 -50.720942 
L 138.667572 -52.130704 
L 131.849868 -53.342112 
L 125.032165 -54.290189 
L 118.214462 -53.479903 
L 111.396758 -52.447415 
L 104.579055 -53.334921 
L 97.761352 -52.165876 
L 90.943648 -50.502747 
L 84.125945 -49.374061 
L 77.308242 -43.450528 
L 70.490538 -40.39274 
L 63.672835 -38.272807 
L 56.855132 -36.773198 
L 50.037428 -37.252855 
L 43.219725 -37.80901 
L 36.402022 -38.451459 
L 29.584318 -39.189438 
z
" style="stroke: #b53b3a; stroke-opacity: 0.25"/>
    </defs>
    <g clip-path="url(#pafa45eb65f)">
     <use xlink:href="#m77d270cce9" x="0" y="136.685625" style="fill: #b53b3a; fill-opacity: 0.25; stroke: #b53b3a; stroke-opacity: 0.25"/>
    </g>
   </g>
   <g id="matplotlib.axis_1">
    <g id="xtick_1">
     <g id="line2d_1">
      <defs>
       <path id="m0fd7f675e3" d="M 0 0 
L 0 3.5 
" style="stroke: #000000"/>
      </defs>
      <g>
       <use xlink:href="#m0fd7f675e3" x="29.584318" y="106.297772" style="stroke: #000000"/>
      </g>
     </g>
     <g id="text_1">
      <!-- 0 -->
      <g transform="translate(27.65882 126.964138) rotate(-30) scale(0.14 -0.14)">
       <defs>
        <path id="DejaVuSans-30" d="M 2034 4250 
Q 1547 4250 1301 3770 
Q 1056 3291 1056 2328 
Q 1056 1369 1301 889 
Q 1547 409 2034 409 
Q 2525 409 2770 889 
Q 3016 1369 3016 2328 
Q 3016 3291 2770 3770 
Q 2525 4250 2034 4250 
z
M 2034 4750 
Q 2819 4750 3233 4129 
Q 3647 3509 3647 2328 
Q 3647 1150 3233 529 
Q 2819 -91 2034 -91 
Q 1250 -91 836 529 
Q 422 1150 422 2328 
Q 422 3509 836 4129 
Q 1250 4750 2034 4750 
z
" transform="scale(0.015625)"/>
       </defs>
       <use xlink:href="#DejaVuSans-30"/>
      </g>
     </g>
    </g>
    <g id="xtick_2">
     <g id="line2d_2">
      <g>
       <use xlink:href="#m0fd7f675e3" x="56.855132" y="106.297772" style="stroke: #000000"/>
      </g>
     </g>
     <g id="text_2">
      <!-- 1 -->
      <g transform="translate(54.929633 126.964138) rotate(-30) scale(0.14 -0.14)">
       <defs>
        <path id="DejaVuSans-31" d="M 794 531 
L 1825 531 
L 1825 4091 
L 703 3866 
L 703 4441 
L 1819 4666 
L 2450 4666 
L 2450 531 
L 3481 531 
L 3481 0 
L 794 0 
L 794 531 
z
" transform="scale(0.015625)"/>
       </defs>
       <use xlink:href="#DejaVuSans-31"/>
      </g>
     </g>
    </g>
    <g id="xtick_3">
     <g id="line2d_3">
      <g>
       <use xlink:href="#m0fd7f675e3" x="84.125945" y="106.297772" style="stroke: #000000"/>
      </g>
     </g>
     <g id="text_3">
      <!-- 2 -->
      <g transform="translate(82.200447 126.964138) rotate(-30) scale(0.14 -0.14)">
       <defs>
        <path id="DejaVuSans-32" d="M 1228 531 
L 3431 531 
L 3431 0 
L 469 0 
L 469 531 
Q 828 903 1448 1529 
Q 2069 2156 2228 2338 
Q 2531 2678 2651 2914 
Q 2772 3150 2772 3378 
Q 2772 3750 2511 3984 
Q 2250 4219 1831 4219 
Q 1534 4219 1204 4116 
Q 875 4013 500 3803 
L 500 4441 
Q 881 4594 1212 4672 
Q 1544 4750 1819 4750 
Q 2544 4750 2975 4387 
Q 3406 4025 3406 3419 
Q 3406 3131 3298 2873 
Q 3191 2616 2906 2266 
Q 2828 2175 2409 1742 
Q 1991 1309 1228 531 
z
" transform="scale(0.015625)"/>
       </defs>
       <use xlink:href="#DejaVuSans-32"/>
      </g>
     </g>
    </g>
    <g id="xtick_4">
     <g id="line2d_4">
      <g>
       <use xlink:href="#m0fd7f675e3" x="111.396758" y="106.297772" style="stroke: #000000"/>
      </g>
     </g>
     <g id="text_4">
      <!-- 3 -->
      <g transform="translate(109.47126 126.964138) rotate(-30) scale(0.14 -0.14)">
       <defs>
        <path id="DejaVuSans-33" d="M 2597 2516 
Q 3050 2419 3304 2112 
Q 3559 1806 3559 1356 
Q 3559 666 3084 287 
Q 2609 -91 1734 -91 
Q 1441 -91 1130 -33 
Q 819 25 488 141 
L 488 750 
Q 750 597 1062 519 
Q 1375 441 1716 441 
Q 2309 441 2620 675 
Q 2931 909 2931 1356 
Q 2931 1769 2642 2001 
Q 2353 2234 1838 2234 
L 1294 2234 
L 1294 2753 
L 1863 2753 
Q 2328 2753 2575 2939 
Q 2822 3125 2822 3475 
Q 2822 3834 2567 4026 
Q 2313 4219 1838 4219 
Q 1578 4219 1281 4162 
Q 984 4106 628 3988 
L 628 4550 
Q 988 4650 1302 4700 
Q 1616 4750 1894 4750 
Q 2613 4750 3031 4423 
Q 3450 4097 3450 3541 
Q 3450 3153 3228 2886 
Q 3006 2619 2597 2516 
z
" transform="scale(0.015625)"/>
       </defs>
       <use xlink:href="#DejaVuSans-33"/>
      </g>
     </g>
    </g>
    <g id="xtick_5">
     <g id="line2d_5">
      <g>
       <use xlink:href="#m0fd7f675e3" x="138.667572" y="106.297772" style="stroke: #000000"/>
      </g>
     </g>
     <g id="text_5">
      <!-- 4 -->
      <g transform="translate(136.742074 126.964138) rotate(-30) scale(0.14 -0.14)">
       <defs>
        <path id="DejaVuSans-34" d="M 2419 4116 
L 825 1625 
L 2419 1625 
L 2419 4116 
z
M 2253 4666 
L 3047 4666 
L 3047 1625 
L 3713 1625 
L 3713 1100 
L 3047 1100 
L 3047 0 
L 2419 0 
L 2419 1100 
L 313 1100 
L 313 1709 
L 2253 4666 
z
" transform="scale(0.015625)"/>
       </defs>
       <use xlink:href="#DejaVuSans-34"/>
      </g>
     </g>
    </g>
   </g>
   <g id="matplotlib.axis_2">
    <g id="ytick_1">
     <g id="line2d_6">
      <defs>
       <path id="m368576ce1d" d="M 0 0 
L -3.5 0 
" style="stroke: #000000"/>
      </defs>
      <g>
       <use xlink:href="#m368576ce1d" x="23.1075" y="103.545057" style="stroke: #000000"/>
      </g>
     </g>
     <g id="text_6">
      <!-- 0 -->
      <g transform="translate(7.2 108.863963) scale(0.14 -0.14)">
       <use xlink:href="#DejaVuSans-30"/>
      </g>
     </g>
    </g>
    <g id="ytick_2">
     <g id="line2d_7">
      <g>
       <use xlink:href="#m368576ce1d" x="23.1075" y="62.254318" style="stroke: #000000"/>
      </g>
     </g>
     <g id="text_7">
      <!-- 3 -->
      <g transform="translate(7.2 67.573224) scale(0.14 -0.14)">
       <use xlink:href="#DejaVuSans-33"/>
      </g>
     </g>
    </g>
    <g id="ytick_3">
     <g id="line2d_8">
      <g>
       <use xlink:href="#m368576ce1d" x="23.1075" y="20.96358" style="stroke: #000000"/>
      </g>
     </g>
     <g id="text_8">
      <!-- 6 -->
      <g transform="translate(7.2 26.282486) scale(0.14 -0.14)">
       <defs>
        <path id="DejaVuSans-36" d="M 2113 2584 
Q 1688 2584 1439 2293 
Q 1191 2003 1191 1497 
Q 1191 994 1439 701 
Q 1688 409 2113 409 
Q 2538 409 2786 701 
Q 3034 994 3034 1497 
Q 3034 2003 2786 2293 
Q 2538 2584 2113 2584 
z
M 3366 4563 
L 3366 3988 
Q 3128 4100 2886 4159 
Q 2644 4219 2406 4219 
Q 1781 4219 1451 3797 
Q 1122 3375 1075 2522 
Q 1259 2794 1537 2939 
Q 1816 3084 2150 3084 
Q 2853 3084 3261 2657 
Q 3669 2231 3669 1497 
Q 3669 778 3244 343 
Q 2819 -91 2113 -91 
Q 1303 -91 875 529 
Q 447 1150 447 2328 
Q 447 3434 972 4092 
Q 1497 4750 2381 4750 
Q 2619 4750 2861 4703 
Q 3103 4656 3366 4563 
z
" transform="scale(0.015625)"/>
       </defs>
       <use xlink:href="#DejaVuSans-36"/>
      </g>
     </g>
    </g>
   </g>
   <g id="line2d_9">
    <path d="M 29.584318 97.087649 
L 36.402022 97.846826 
L 43.219725 98.511684 
L 50.037428 99.091182 
L 56.855132 99.594796 
L 63.672835 97.468869 
L 70.490538 94.426405 
L 77.308242 89.660824 
L 84.125945 85.522931 
L 90.943648 81.429162 
L 97.761352 79.092468 
L 104.579055 79.496341 
L 111.396758 79.985361 
L 118.214462 79.650366 
L 125.032165 78.243597 
L 131.849868 79.606283 
L 138.667572 81.239388 
L 145.485275 83.047459 
L 152.302978 84.936357 
L 159.120682 86.821585 
" clip-path="url(#pafa45eb65f)" style="fill: none; stroke: #374f88; stroke-opacity: 0.6; stroke-width: 1.5; stroke-linecap: square"/>
   </g>
   <g id="line2d_10">
    <path d="M 29.584318 97.087649 
L 36.402022 97.846826 
L 43.219725 98.511684 
L 50.037428 99.091182 
L 56.855132 99.594796 
L 63.672835 97.790059 
L 70.490538 95.61273 
L 77.308242 91.942447 
L 84.125945 85.549141 
L 90.943648 84.582039 
L 97.761352 83.531144 
L 104.579055 81.849389 
L 111.396758 82.492463 
L 118.214462 81.588726 
L 125.032165 81.129668 
L 131.849868 82.093534 
L 138.667572 83.262792 
L 145.485275 84.577252 
L 152.302978 85.97529 
L 159.120682 87.398735 
" clip-path="url(#pafa45eb65f)" style="fill: none; stroke: #b53b3a; stroke-width: 1.5; stroke-linecap: square"/>
   </g>
   <g id="LineCollection_1">
    <path d="M 56.855132 81.774257 
L 125.032165 81.774257 
" clip-path="url(#pafa45eb65f)" style="fill: none; stroke: #444444; stroke-opacity: 0.6; stroke-width: 2"/>
   </g>
   <g id="patch_3">
    <path d="M 23.1075 103.545057 
L 23.1075 20.96358 
" style="fill: none; stroke: #000000; stroke-linejoin: miter; stroke-linecap: square"/>
   </g>
   <g id="patch_4">
    <path d="M 29.584318 106.297772 
L 159.120682 106.297772 
" style="fill: none; stroke: #000000; stroke-linejoin: miter; stroke-linecap: square"/>
   </g>
  </g>
 </g>
 <defs>
  <clipPath id="pafa45eb65f">
   <rect x="23.1075" y="7.2" width="142.49" height="99.097772"/>
  </clipPath>
 </defs>
</svg>
