<?xml version="1.0" encoding="utf-8" standalone="no"?>
<!DOCTYPE svg PUBLIC "-//W3C//DTD SVG 1.1//EN"
  "http://www.w3.org/Graphics/SVG/1.1/DTD/svg11.dtd">
<svg xmlns:xlink="http://www.w3.org/1999/xlink" width="191.002052pt" height="143.89375pt" viewBox="0 0 191.002052 143.89375" xmlns="http://www.w3.org/2000/svg" version="1.1">
 <metadata>
  <rdf:RDF xmlns:dc="http://purl.org/dc/elements/1.1/" xmlns:cc="http://creativecommons.org/ns#" xmlns:rdf="http://www.w3.org/1999/02/22-rdf-syntax-ns#">
   <cc:Work>
    <dc:type rdf:resource="http://purl.org/dc/dcmitype/StillImage"/>
    <dc:date>2025-07-03T14:26:46.661258</dc:date>
    <dc:format>image/svg+xml</dc:format>
    <dc:creator>
     <cc:Agent>
      <dc:title>Matplotlib v3.8.4, https://matplotlib.org/</dc:title>
     </cc:Agent>
    </dc:creator>
   </cc:Work>
  </rdf:RDF>
 </metadata>
 <defs>
  <style type="text/css">*{stroke-linejoin: round; stroke-linecap: butt}</style>
 </defs>
 <g id="figure_1">
  <g id="patch_1">
   <path d="M 0 143.89375 
L 191.002052 143.89375 
L 191.002052 0 
L 0 0 
L 0 143.89375 
z
" style="fill: none"/>
  </g>
  <g id="axes_1">
   <g id="patch_2">
    <path d="M 8.767052 118.08 
L 176.167052 118.08 
L 176.167052 7.2 
L 8.767052 7.2 
L 8.767052 118.08 
z
" style="fill: none"/>
   </g>
   <g id="patch_3">
    <path d="M 16.045951 118.08 
L 17.503667 118.08 
L 17.503667 16.583923 
L 16.045951 16.583923 
z
" clip-path="url(#p7e2af185f0)" style="fill: #b53b3a; fill-opacity: 0.25"/>
   </g>
   <g id="patch_4">
    <path d="M 17.503667 118.08 
L 18.961384 118.08 
L 18.961384 92.705981 
L 17.503667 92.705981 
z
" clip-path="url(#p7e2af185f0)" style="fill: #b53b3a; fill-opacity: 0.25"/>
   </g>
   <g id="patch_5">
    <path d="M 18.961384 118.08 
L 20.4191 118.08 
L 20.4191 101.932897 
L 18.961384 101.932897 
z
" clip-path="url(#p7e2af185f0)" style="fill: #b53b3a; fill-opacity: 0.25"/>
   </g>
   <g id="patch_6">
    <path d="M 20.4191 118.08 
L 21.876816 118.08 
L 21.876816 104.239626 
L 20.4191 104.239626 
z
" clip-path="url(#p7e2af185f0)" style="fill: #b53b3a; fill-opacity: 0.25"/>
   </g>
   <g id="patch_7">
    <path d="M 21.876816 118.08 
L 23.334533 118.08 
L 23.334533 101.932897 
L 21.876816 101.932897 
z
" clip-path="url(#p7e2af185f0)" style="fill: #b53b3a; fill-opacity: 0.25"/>
   </g>
   <g id="patch_8">
    <path d="M 23.334533 118.08 
L 24.792249 118.08 
L 24.792249 101.932897 
L 23.334533 101.932897 
z
" clip-path="url(#p7e2af185f0)" style="fill: #b53b3a; fill-opacity: 0.25"/>
   </g>
   <g id="patch_9">
    <path d="M 24.792249 118.08 
L 26.249965 118.08 
L 26.249965 106.546355 
L 24.792249 106.546355 
z
" clip-path="url(#p7e2af185f0)" style="fill: #b53b3a; fill-opacity: 0.25"/>
   </g>
   <g id="patch_10">
    <path d="M 26.249965 118.08 
L 27.707682 118.08 
L 27.707682 99.626168 
L 26.249965 99.626168 
z
" clip-path="url(#p7e2af185f0)" style="fill: #b53b3a; fill-opacity: 0.25"/>
   </g>
   <g id="patch_11">
    <path d="M 27.707682 118.08 
L 29.165398 118.08 
L 29.165398 101.932897 
L 27.707682 101.932897 
z
" clip-path="url(#p7e2af185f0)" style="fill: #b53b3a; fill-opacity: 0.25"/>
   </g>
   <g id="patch_12">
    <path d="M 29.165398 118.08 
L 30.623114 118.08 
L 30.623114 101.932897 
L 29.165398 101.932897 
z
" clip-path="url(#p7e2af185f0)" style="fill: #b53b3a; fill-opacity: 0.25"/>
   </g>
   <g id="patch_13">
    <path d="M 30.623114 118.08 
L 32.08083 118.08 
L 32.08083 81.172336 
L 30.623114 81.172336 
z
" clip-path="url(#p7e2af185f0)" style="fill: #b53b3a; fill-opacity: 0.25"/>
   </g>
   <g id="patch_14">
    <path d="M 32.08083 118.08 
L 33.538547 118.08 
L 33.538547 83.479065 
L 32.08083 83.479065 
z
" clip-path="url(#p7e2af185f0)" style="fill: #b53b3a; fill-opacity: 0.25"/>
   </g>
   <g id="patch_15">
    <path d="M 33.538547 118.08 
L 34.996263 118.08 
L 34.996263 92.705981 
L 33.538547 92.705981 
z
" clip-path="url(#p7e2af185f0)" style="fill: #b53b3a; fill-opacity: 0.25"/>
   </g>
   <g id="patch_16">
    <path d="M 34.996263 118.08 
L 36.453979 118.08 
L 36.453979 99.626168 
L 34.996263 99.626168 
z
" clip-path="url(#p7e2af185f0)" style="fill: #b53b3a; fill-opacity: 0.25"/>
   </g>
   <g id="patch_17">
    <path d="M 36.453979 118.08 
L 37.911696 118.08 
L 37.911696 99.626168 
L 36.453979 99.626168 
z
" clip-path="url(#p7e2af185f0)" style="fill: #b53b3a; fill-opacity: 0.25"/>
   </g>
   <g id="patch_18">
    <path d="M 37.911696 118.08 
L 39.369412 118.08 
L 39.369412 101.932897 
L 37.911696 101.932897 
z
" clip-path="url(#p7e2af185f0)" style="fill: #b53b3a; fill-opacity: 0.25"/>
   </g>
   <g id="patch_19">
    <path d="M 39.369412 118.08 
L 40.827128 118.08 
L 40.827128 95.01271 
L 39.369412 95.01271 
z
" clip-path="url(#p7e2af185f0)" style="fill: #b53b3a; fill-opacity: 0.25"/>
   </g>
   <g id="patch_20">
    <path d="M 40.827128 118.08 
L 42.284845 118.08 
L 42.284845 106.546355 
L 40.827128 106.546355 
z
" clip-path="url(#p7e2af185f0)" style="fill: #b53b3a; fill-opacity: 0.25"/>
   </g>
   <g id="patch_21">
    <path d="M 42.284845 118.08 
L 43.742561 118.08 
L 43.742561 97.319439 
L 42.284845 97.319439 
z
" clip-path="url(#p7e2af185f0)" style="fill: #b53b3a; fill-opacity: 0.25"/>
   </g>
   <g id="patch_22">
    <path d="M 43.742561 118.08 
L 45.200277 118.08 
L 45.200277 118.08 
L 43.742561 118.08 
z
" clip-path="url(#p7e2af185f0)" style="fill: #b53b3a; fill-opacity: 0.25"/>
   </g>
   <g id="patch_23">
    <path d="M 45.200277 118.08 
L 46.657994 118.08 
L 46.657994 108.853084 
L 45.200277 108.853084 
z
" clip-path="url(#p7e2af185f0)" style="fill: #b53b3a; fill-opacity: 0.25"/>
   </g>
   <g id="patch_24">
    <path d="M 46.657994 118.08 
L 48.11571 118.08 
L 48.11571 111.159813 
L 46.657994 111.159813 
z
" clip-path="url(#p7e2af185f0)" style="fill: #b53b3a; fill-opacity: 0.25"/>
   </g>
   <g id="patch_25">
    <path d="M 48.11571 118.08 
L 49.573426 118.08 
L 49.573426 106.546355 
L 48.11571 106.546355 
z
" clip-path="url(#p7e2af185f0)" style="fill: #b53b3a; fill-opacity: 0.25"/>
   </g>
   <g id="patch_26">
    <path d="M 49.573426 118.08 
L 51.031143 118.08 
L 51.031143 108.853084 
L 49.573426 108.853084 
z
" clip-path="url(#p7e2af185f0)" style="fill: #b53b3a; fill-opacity: 0.25"/>
   </g>
   <g id="patch_27">
    <path d="M 51.031143 118.08 
L 52.488859 118.08 
L 52.488859 106.546355 
L 51.031143 106.546355 
z
" clip-path="url(#p7e2af185f0)" style="fill: #b53b3a; fill-opacity: 0.25"/>
   </g>
   <g id="patch_28">
    <path d="M 52.488859 118.08 
L 53.946575 118.08 
L 53.946575 108.853084 
L 52.488859 108.853084 
z
" clip-path="url(#p7e2af185f0)" style="fill: #b53b3a; fill-opacity: 0.25"/>
   </g>
   <g id="patch_29">
    <path d="M 53.946575 118.08 
L 55.404292 118.08 
L 55.404292 104.239626 
L 53.946575 104.239626 
z
" clip-path="url(#p7e2af185f0)" style="fill: #b53b3a; fill-opacity: 0.25"/>
   </g>
   <g id="patch_30">
    <path d="M 55.404292 118.08 
L 56.862008 118.08 
L 56.862008 111.159813 
L 55.404292 111.159813 
z
" clip-path="url(#p7e2af185f0)" style="fill: #b53b3a; fill-opacity: 0.25"/>
   </g>
   <g id="patch_31">
    <path d="M 56.862008 118.08 
L 58.319724 118.08 
L 58.319724 108.853084 
L 56.862008 108.853084 
z
" clip-path="url(#p7e2af185f0)" style="fill: #b53b3a; fill-opacity: 0.25"/>
   </g>
   <g id="patch_32">
    <path d="M 58.319724 118.08 
L 59.77744 118.08 
L 59.77744 106.546355 
L 58.319724 106.546355 
z
" clip-path="url(#p7e2af185f0)" style="fill: #b53b3a; fill-opacity: 0.25"/>
   </g>
   <g id="patch_33">
    <path d="M 59.77744 118.08 
L 61.235157 118.08 
L 61.235157 104.239626 
L 59.77744 104.239626 
z
" clip-path="url(#p7e2af185f0)" style="fill: #b53b3a; fill-opacity: 0.25"/>
   </g>
   <g id="patch_34">
    <path d="M 61.235157 118.08 
L 62.692873 118.08 
L 62.692873 108.853084 
L 61.235157 108.853084 
z
" clip-path="url(#p7e2af185f0)" style="fill: #b53b3a; fill-opacity: 0.25"/>
   </g>
   <g id="patch_35">
    <path d="M 62.692873 118.08 
L 64.150589 118.08 
L 64.150589 113.466542 
L 62.692873 113.466542 
z
" clip-path="url(#p7e2af185f0)" style="fill: #b53b3a; fill-opacity: 0.25"/>
   </g>
   <g id="patch_36">
    <path d="M 64.150589 118.08 
L 65.608306 118.08 
L 65.608306 113.466542 
L 64.150589 113.466542 
z
" clip-path="url(#p7e2af185f0)" style="fill: #b53b3a; fill-opacity: 0.25"/>
   </g>
   <g id="patch_37">
    <path d="M 65.608306 118.08 
L 67.066022 118.08 
L 67.066022 111.159813 
L 65.608306 111.159813 
z
" clip-path="url(#p7e2af185f0)" style="fill: #b53b3a; fill-opacity: 0.25"/>
   </g>
   <g id="patch_38">
    <path d="M 67.066022 118.08 
L 68.523738 118.08 
L 68.523738 111.159813 
L 67.066022 111.159813 
z
" clip-path="url(#p7e2af185f0)" style="fill: #b53b3a; fill-opacity: 0.25"/>
   </g>
   <g id="patch_39">
    <path d="M 68.523738 118.08 
L 69.981455 118.08 
L 69.981455 113.466542 
L 68.523738 113.466542 
z
" clip-path="url(#p7e2af185f0)" style="fill: #b53b3a; fill-opacity: 0.25"/>
   </g>
   <g id="patch_40">
    <path d="M 69.981455 118.08 
L 71.439171 118.08 
L 71.439171 111.159813 
L 69.981455 111.159813 
z
" clip-path="url(#p7e2af185f0)" style="fill: #b53b3a; fill-opacity: 0.25"/>
   </g>
   <g id="patch_41">
    <path d="M 71.439171 118.08 
L 72.896887 118.08 
L 72.896887 111.159813 
L 71.439171 111.159813 
z
" clip-path="url(#p7e2af185f0)" style="fill: #b53b3a; fill-opacity: 0.25"/>
   </g>
   <g id="patch_42">
    <path d="M 72.896887 118.08 
L 74.354604 118.08 
L 74.354604 111.159813 
L 72.896887 111.159813 
z
" clip-path="url(#p7e2af185f0)" style="fill: #b53b3a; fill-opacity: 0.25"/>
   </g>
   <g id="patch_43">
    <path d="M 74.354604 118.08 
L 75.81232 118.08 
L 75.81232 115.773271 
L 74.354604 115.773271 
z
" clip-path="url(#p7e2af185f0)" style="fill: #b53b3a; fill-opacity: 0.25"/>
   </g>
   <g id="patch_44">
    <path d="M 75.81232 118.08 
L 77.270036 118.08 
L 77.270036 115.773271 
L 75.81232 115.773271 
z
" clip-path="url(#p7e2af185f0)" style="fill: #b53b3a; fill-opacity: 0.25"/>
   </g>
   <g id="patch_45">
    <path d="M 77.270036 118.08 
L 78.727753 118.08 
L 78.727753 113.466542 
L 77.270036 113.466542 
z
" clip-path="url(#p7e2af185f0)" style="fill: #b53b3a; fill-opacity: 0.25"/>
   </g>
   <g id="patch_46">
    <path d="M 78.727753 118.08 
L 80.185469 118.08 
L 80.185469 115.773271 
L 78.727753 115.773271 
z
" clip-path="url(#p7e2af185f0)" style="fill: #b53b3a; fill-opacity: 0.25"/>
   </g>
   <g id="patch_47">
    <path d="M 80.185469 118.08 
L 81.643185 118.08 
L 81.643185 113.466542 
L 80.185469 113.466542 
z
" clip-path="url(#p7e2af185f0)" style="fill: #b53b3a; fill-opacity: 0.25"/>
   </g>
   <g id="patch_48">
    <path d="M 81.643185 118.08 
L 83.100902 118.08 
L 83.100902 113.466542 
L 81.643185 113.466542 
z
" clip-path="url(#p7e2af185f0)" style="fill: #b53b3a; fill-opacity: 0.25"/>
   </g>
   <g id="patch_49">
    <path d="M 83.100902 118.08 
L 84.558618 118.08 
L 84.558618 111.159813 
L 83.100902 111.159813 
z
" clip-path="url(#p7e2af185f0)" style="fill: #b53b3a; fill-opacity: 0.25"/>
   </g>
   <g id="patch_50">
    <path d="M 84.558618 118.08 
L 86.016334 118.08 
L 86.016334 115.773271 
L 84.558618 115.773271 
z
" clip-path="url(#p7e2af185f0)" style="fill: #b53b3a; fill-opacity: 0.25"/>
   </g>
   <g id="patch_51">
    <path d="M 86.016334 118.08 
L 87.47405 118.08 
L 87.47405 113.466542 
L 86.016334 113.466542 
z
" clip-path="url(#p7e2af185f0)" style="fill: #b53b3a; fill-opacity: 0.25"/>
   </g>
   <g id="patch_52">
    <path d="M 87.47405 118.08 
L 88.931767 118.08 
L 88.931767 118.08 
L 87.47405 118.08 
z
" clip-path="url(#p7e2af185f0)" style="fill: #b53b3a; fill-opacity: 0.25"/>
   </g>
   <g id="patch_53">
    <path d="M 88.931767 118.08 
L 90.389483 118.08 
L 90.389483 118.08 
L 88.931767 118.08 
z
" clip-path="url(#p7e2af185f0)" style="fill: #b53b3a; fill-opacity: 0.25"/>
   </g>
   <g id="patch_54">
    <path d="M 90.389483 118.08 
L 91.847199 118.08 
L 91.847199 118.08 
L 90.389483 118.08 
z
" clip-path="url(#p7e2af185f0)" style="fill: #b53b3a; fill-opacity: 0.25"/>
   </g>
   <g id="patch_55">
    <path d="M 91.847199 118.08 
L 93.304916 118.08 
L 93.304916 115.773271 
L 91.847199 115.773271 
z
" clip-path="url(#p7e2af185f0)" style="fill: #b53b3a; fill-opacity: 0.25"/>
   </g>
   <g id="patch_56">
    <path d="M 93.304916 118.08 
L 94.762632 118.08 
L 94.762632 115.773271 
L 93.304916 115.773271 
z
" clip-path="url(#p7e2af185f0)" style="fill: #b53b3a; fill-opacity: 0.25"/>
   </g>
   <g id="patch_57">
    <path d="M 94.762632 118.08 
L 96.220348 118.08 
L 96.220348 115.773271 
L 94.762632 115.773271 
z
" clip-path="url(#p7e2af185f0)" style="fill: #b53b3a; fill-opacity: 0.25"/>
   </g>
   <g id="patch_58">
    <path d="M 96.220348 118.08 
L 97.678065 118.08 
L 97.678065 113.466542 
L 96.220348 113.466542 
z
" clip-path="url(#p7e2af185f0)" style="fill: #b53b3a; fill-opacity: 0.25"/>
   </g>
   <g id="patch_59">
    <path d="M 97.678065 118.08 
L 99.135781 118.08 
L 99.135781 118.08 
L 97.678065 118.08 
z
" clip-path="url(#p7e2af185f0)" style="fill: #b53b3a; fill-opacity: 0.25"/>
   </g>
   <g id="patch_60">
    <path d="M 99.135781 118.08 
L 100.593497 118.08 
L 100.593497 115.773271 
L 99.135781 115.773271 
z
" clip-path="url(#p7e2af185f0)" style="fill: #b53b3a; fill-opacity: 0.25"/>
   </g>
   <g id="patch_61">
    <path d="M 100.593497 118.08 
L 102.051214 118.08 
L 102.051214 115.773271 
L 100.593497 115.773271 
z
" clip-path="url(#p7e2af185f0)" style="fill: #b53b3a; fill-opacity: 0.25"/>
   </g>
   <g id="patch_62">
    <path d="M 102.051214 118.08 
L 103.50893 118.08 
L 103.50893 118.08 
L 102.051214 118.08 
z
" clip-path="url(#p7e2af185f0)" style="fill: #b53b3a; fill-opacity: 0.25"/>
   </g>
   <g id="patch_63">
    <path d="M 103.50893 118.08 
L 104.966646 118.08 
L 104.966646 108.853084 
L 103.50893 108.853084 
z
" clip-path="url(#p7e2af185f0)" style="fill: #b53b3a; fill-opacity: 0.25"/>
   </g>
   <g id="patch_64">
    <path d="M 104.966646 118.08 
L 106.424363 118.08 
L 106.424363 118.08 
L 104.966646 118.08 
z
" clip-path="url(#p7e2af185f0)" style="fill: #b53b3a; fill-opacity: 0.25"/>
   </g>
   <g id="patch_65">
    <path d="M 106.424363 118.08 
L 107.882079 118.08 
L 107.882079 118.08 
L 106.424363 118.08 
z
" clip-path="url(#p7e2af185f0)" style="fill: #b53b3a; fill-opacity: 0.25"/>
   </g>
   <g id="patch_66">
    <path d="M 107.882079 118.08 
L 109.339795 118.08 
L 109.339795 113.466542 
L 107.882079 113.466542 
z
" clip-path="url(#p7e2af185f0)" style="fill: #b53b3a; fill-opacity: 0.25"/>
   </g>
   <g id="patch_67">
    <path d="M 109.339795 118.08 
L 110.797511 118.08 
L 110.797511 118.08 
L 109.339795 118.08 
z
" clip-path="url(#p7e2af185f0)" style="fill: #b53b3a; fill-opacity: 0.25"/>
   </g>
   <g id="patch_68">
    <path d="M 110.797511 118.08 
L 112.255228 118.08 
L 112.255228 113.466542 
L 110.797511 113.466542 
z
" clip-path="url(#p7e2af185f0)" style="fill: #b53b3a; fill-opacity: 0.25"/>
   </g>
   <g id="patch_69">
    <path d="M 112.255228 118.08 
L 113.712944 118.08 
L 113.712944 115.773271 
L 112.255228 115.773271 
z
" clip-path="url(#p7e2af185f0)" style="fill: #b53b3a; fill-opacity: 0.25"/>
   </g>
   <g id="patch_70">
    <path d="M 113.712944 118.08 
L 115.17066 118.08 
L 115.17066 115.773271 
L 113.712944 115.773271 
z
" clip-path="url(#p7e2af185f0)" style="fill: #b53b3a; fill-opacity: 0.25"/>
   </g>
   <g id="patch_71">
    <path d="M 115.17066 118.08 
L 116.628377 118.08 
L 116.628377 115.773271 
L 115.17066 115.773271 
z
" clip-path="url(#p7e2af185f0)" style="fill: #b53b3a; fill-opacity: 0.25"/>
   </g>
   <g id="patch_72">
    <path d="M 116.628377 118.08 
L 118.086093 118.08 
L 118.086093 118.08 
L 116.628377 118.08 
z
" clip-path="url(#p7e2af185f0)" style="fill: #b53b3a; fill-opacity: 0.25"/>
   </g>
   <g id="patch_73">
    <path d="M 118.086093 118.08 
L 119.543809 118.08 
L 119.543809 113.466542 
L 118.086093 113.466542 
z
" clip-path="url(#p7e2af185f0)" style="fill: #b53b3a; fill-opacity: 0.25"/>
   </g>
   <g id="patch_74">
    <path d="M 119.543809 118.08 
L 121.001526 118.08 
L 121.001526 118.08 
L 119.543809 118.08 
z
" clip-path="url(#p7e2af185f0)" style="fill: #b53b3a; fill-opacity: 0.25"/>
   </g>
   <g id="patch_75">
    <path d="M 121.001526 118.08 
L 122.459242 118.08 
L 122.459242 111.159813 
L 121.001526 111.159813 
z
" clip-path="url(#p7e2af185f0)" style="fill: #b53b3a; fill-opacity: 0.25"/>
   </g>
   <g id="patch_76">
    <path d="M 122.459242 118.08 
L 123.916958 118.08 
L 123.916958 115.773271 
L 122.459242 115.773271 
z
" clip-path="url(#p7e2af185f0)" style="fill: #b53b3a; fill-opacity: 0.25"/>
   </g>
   <g id="patch_77">
    <path d="M 123.916958 118.08 
L 125.374675 118.08 
L 125.374675 113.466542 
L 123.916958 113.466542 
z
" clip-path="url(#p7e2af185f0)" style="fill: #b53b3a; fill-opacity: 0.25"/>
   </g>
   <g id="patch_78">
    <path d="M 125.374675 118.08 
L 126.832391 118.08 
L 126.832391 118.08 
L 125.374675 118.08 
z
" clip-path="url(#p7e2af185f0)" style="fill: #b53b3a; fill-opacity: 0.25"/>
   </g>
   <g id="patch_79">
    <path d="M 126.832391 118.08 
L 128.290107 118.08 
L 128.290107 113.466542 
L 126.832391 113.466542 
z
" clip-path="url(#p7e2af185f0)" style="fill: #b53b3a; fill-opacity: 0.25"/>
   </g>
   <g id="patch_80">
    <path d="M 128.290107 118.08 
L 129.747824 118.08 
L 129.747824 115.773271 
L 128.290107 115.773271 
z
" clip-path="url(#p7e2af185f0)" style="fill: #b53b3a; fill-opacity: 0.25"/>
   </g>
   <g id="patch_81">
    <path d="M 129.747824 118.08 
L 131.20554 118.08 
L 131.20554 118.08 
L 129.747824 118.08 
z
" clip-path="url(#p7e2af185f0)" style="fill: #b53b3a; fill-opacity: 0.25"/>
   </g>
   <g id="patch_82">
    <path d="M 131.20554 118.08 
L 132.663256 118.08 
L 132.663256 118.08 
L 131.20554 118.08 
z
" clip-path="url(#p7e2af185f0)" style="fill: #b53b3a; fill-opacity: 0.25"/>
   </g>
   <g id="patch_83">
    <path d="M 132.663256 118.08 
L 134.120973 118.08 
L 134.120973 115.773271 
L 132.663256 115.773271 
z
" clip-path="url(#p7e2af185f0)" style="fill: #b53b3a; fill-opacity: 0.25"/>
   </g>
   <g id="patch_84">
    <path d="M 134.120973 118.08 
L 135.578689 118.08 
L 135.578689 118.08 
L 134.120973 118.08 
z
" clip-path="url(#p7e2af185f0)" style="fill: #b53b3a; fill-opacity: 0.25"/>
   </g>
   <g id="patch_85">
    <path d="M 135.578689 118.08 
L 137.036405 118.08 
L 137.036405 115.773271 
L 135.578689 115.773271 
z
" clip-path="url(#p7e2af185f0)" style="fill: #b53b3a; fill-opacity: 0.25"/>
   </g>
   <g id="patch_86">
    <path d="M 137.036405 118.08 
L 138.494121 118.08 
L 138.494121 115.773271 
L 137.036405 115.773271 
z
" clip-path="url(#p7e2af185f0)" style="fill: #b53b3a; fill-opacity: 0.25"/>
   </g>
   <g id="patch_87">
    <path d="M 138.494121 118.08 
L 139.951838 118.08 
L 139.951838 111.159813 
L 138.494121 111.159813 
z
" clip-path="url(#p7e2af185f0)" style="fill: #b53b3a; fill-opacity: 0.25"/>
   </g>
   <g id="patch_88">
    <path d="M 139.951838 118.08 
L 141.409554 118.08 
L 141.409554 115.773271 
L 139.951838 115.773271 
z
" clip-path="url(#p7e2af185f0)" style="fill: #b53b3a; fill-opacity: 0.25"/>
   </g>
   <g id="patch_89">
    <path d="M 141.409554 118.08 
L 142.86727 118.08 
L 142.86727 115.773271 
L 141.409554 115.773271 
z
" clip-path="url(#p7e2af185f0)" style="fill: #b53b3a; fill-opacity: 0.25"/>
   </g>
   <g id="patch_90">
    <path d="M 142.86727 118.08 
L 144.324987 118.08 
L 144.324987 113.466542 
L 142.86727 113.466542 
z
" clip-path="url(#p7e2af185f0)" style="fill: #b53b3a; fill-opacity: 0.25"/>
   </g>
   <g id="patch_91">
    <path d="M 144.324987 118.08 
L 145.782703 118.08 
L 145.782703 118.08 
L 144.324987 118.08 
z
" clip-path="url(#p7e2af185f0)" style="fill: #b53b3a; fill-opacity: 0.25"/>
   </g>
   <g id="patch_92">
    <path d="M 145.782703 118.08 
L 147.240419 118.08 
L 147.240419 115.773271 
L 145.782703 115.773271 
z
" clip-path="url(#p7e2af185f0)" style="fill: #b53b3a; fill-opacity: 0.25"/>
   </g>
   <g id="patch_93">
    <path d="M 147.240419 118.08 
L 148.698136 118.08 
L 148.698136 118.08 
L 147.240419 118.08 
z
" clip-path="url(#p7e2af185f0)" style="fill: #b53b3a; fill-opacity: 0.25"/>
   </g>
   <g id="patch_94">
    <path d="M 148.698136 118.08 
L 150.155852 118.08 
L 150.155852 118.08 
L 148.698136 118.08 
z
" clip-path="url(#p7e2af185f0)" style="fill: #b53b3a; fill-opacity: 0.25"/>
   </g>
   <g id="patch_95">
    <path d="M 150.155852 118.08 
L 151.613568 118.08 
L 151.613568 118.08 
L 150.155852 118.08 
z
" clip-path="url(#p7e2af185f0)" style="fill: #b53b3a; fill-opacity: 0.25"/>
   </g>
   <g id="patch_96">
    <path d="M 151.613568 118.08 
L 153.071285 118.08 
L 153.071285 115.773271 
L 151.613568 115.773271 
z
" clip-path="url(#p7e2af185f0)" style="fill: #b53b3a; fill-opacity: 0.25"/>
   </g>
   <g id="patch_97">
    <path d="M 153.071285 118.08 
L 154.529001 118.08 
L 154.529001 115.773271 
L 153.071285 115.773271 
z
" clip-path="url(#p7e2af185f0)" style="fill: #b53b3a; fill-opacity: 0.25"/>
   </g>
   <g id="patch_98">
    <path d="M 154.529001 118.08 
L 155.986717 118.08 
L 155.986717 115.773271 
L 154.529001 115.773271 
z
" clip-path="url(#p7e2af185f0)" style="fill: #b53b3a; fill-opacity: 0.25"/>
   </g>
   <g id="patch_99">
    <path d="M 155.986717 118.08 
L 157.444434 118.08 
L 157.444434 113.466542 
L 155.986717 113.466542 
z
" clip-path="url(#p7e2af185f0)" style="fill: #b53b3a; fill-opacity: 0.25"/>
   </g>
   <g id="patch_100">
    <path d="M 157.444434 118.08 
L 158.90215 118.08 
L 158.90215 113.466542 
L 157.444434 113.466542 
z
" clip-path="url(#p7e2af185f0)" style="fill: #b53b3a; fill-opacity: 0.25"/>
   </g>
   <g id="patch_101">
    <path d="M 158.90215 118.08 
L 160.359866 118.08 
L 160.359866 113.466542 
L 158.90215 113.466542 
z
" clip-path="url(#p7e2af185f0)" style="fill: #b53b3a; fill-opacity: 0.25"/>
   </g>
   <g id="patch_102">
    <path d="M 160.359866 118.08 
L 161.817582 118.08 
L 161.817582 118.08 
L 160.359866 118.08 
z
" clip-path="url(#p7e2af185f0)" style="fill: #b53b3a; fill-opacity: 0.25"/>
   </g>
   <g id="patch_103">
    <path d="M 161.817582 118.08 
L 163.275299 118.08 
L 163.275299 118.08 
L 161.817582 118.08 
z
" clip-path="url(#p7e2af185f0)" style="fill: #b53b3a; fill-opacity: 0.25"/>
   </g>
   <g id="patch_104">
    <path d="M 163.275299 118.08 
L 164.733015 118.08 
L 164.733015 115.773271 
L 163.275299 115.773271 
z
" clip-path="url(#p7e2af185f0)" style="fill: #b53b3a; fill-opacity: 0.25"/>
   </g>
   <g id="patch_105">
    <path d="M 164.733015 118.08 
L 166.190731 118.08 
L 166.190731 118.08 
L 164.733015 118.08 
z
" clip-path="url(#p7e2af185f0)" style="fill: #b53b3a; fill-opacity: 0.25"/>
   </g>
   <g id="patch_106">
    <path d="M 166.190731 118.08 
L 167.648448 118.08 
L 167.648448 118.08 
L 166.190731 118.08 
z
" clip-path="url(#p7e2af185f0)" style="fill: #b53b3a; fill-opacity: 0.25"/>
   </g>
   <g id="patch_107">
    <path d="M 167.648448 118.08 
L 169.106164 118.08 
L 169.106164 115.773271 
L 167.648448 115.773271 
z
" clip-path="url(#p7e2af185f0)" style="fill: #b53b3a; fill-opacity: 0.25"/>
   </g>
   <g id="patch_108">
    <path d="M 169.106164 118.08 
L 170.56388 118.08 
L 170.56388 118.08 
L 169.106164 118.08 
z
" clip-path="url(#p7e2af185f0)" style="fill: #b53b3a; fill-opacity: 0.25"/>
   </g>
   <g id="patch_109">
    <path d="M 170.56388 118.08 
L 172.021597 118.08 
L 172.021597 115.773271 
L 170.56388 115.773271 
z
" clip-path="url(#p7e2af185f0)" style="fill: #b53b3a; fill-opacity: 0.25"/>
   </g>
   <g id="patch_110">
    <path d="M 172.021597 118.08 
L 173.479313 118.08 
L 173.479313 111.159813 
L 172.021597 111.159813 
z
" clip-path="url(#p7e2af185f0)" style="fill: #b53b3a; fill-opacity: 0.25"/>
   </g>
   <g id="patch_111">
    <path d="M 173.479313 118.08 
L 174.937029 118.08 
L 174.937029 118.08 
L 173.479313 118.08 
z
" clip-path="url(#p7e2af185f0)" style="fill: #b53b3a; fill-opacity: 0.25"/>
   </g>
   <g id="patch_112">
    <path d="M 174.937029 118.08 
L 176.394746 118.08 
L 176.394746 108.853084 
L 174.937029 108.853084 
z
" clip-path="url(#p7e2af185f0)" style="fill: #b53b3a; fill-opacity: 0.25"/>
   </g>
   <g id="patch_113">
    <path d="M 176.394746 118.08 
L 177.852462 118.08 
L 177.852462 115.773271 
L 176.394746 115.773271 
z
" clip-path="url(#p7e2af185f0)" style="fill: #b53b3a; fill-opacity: 0.25"/>
   </g>
   <g id="patch_114">
    <path d="M 177.852462 118.08 
L 179.310178 118.08 
L 179.310178 118.08 
L 177.852462 118.08 
z
" clip-path="url(#p7e2af185f0)" style="fill: #b53b3a; fill-opacity: 0.25"/>
   </g>
   <g id="patch_115">
    <path d="M 179.310178 118.08 
L 180.767895 118.08 
L 180.767895 118.08 
L 179.310178 118.08 
z
" clip-path="url(#p7e2af185f0)" style="fill: #b53b3a; fill-opacity: 0.25"/>
   </g>
   <g id="patch_116">
    <path d="M 180.767895 118.08 
L 182.225611 118.08 
L 182.225611 115.773271 
L 180.767895 115.773271 
z
" clip-path="url(#p7e2af185f0)" style="fill: #b53b3a; fill-opacity: 0.25"/>
   </g>
   <g id="patch_117">
    <path d="M 182.225611 118.08 
L 183.683327 118.08 
L 183.683327 118.08 
L 182.225611 118.08 
z
" clip-path="url(#p7e2af185f0)" style="fill: #b53b3a; fill-opacity: 0.25"/>
   </g>
   <g id="patch_118">
    <path d="M 183.683327 118.08 
L 185.141044 118.08 
L 185.141044 118.08 
L 183.683327 118.08 
z
" clip-path="url(#p7e2af185f0)" style="fill: #b53b3a; fill-opacity: 0.25"/>
   </g>
   <g id="patch_119">
    <path d="M 185.141044 118.08 
L 186.59876 118.08 
L 186.59876 115.773271 
L 185.141044 115.773271 
z
" clip-path="url(#p7e2af185f0)" style="fill: #b53b3a; fill-opacity: 0.25"/>
   </g>
   <g id="patch_120">
    <path d="M 186.59876 118.08 
L 188.056476 118.08 
L 188.056476 113.466542 
L 186.59876 113.466542 
z
" clip-path="url(#p7e2af185f0)" style="fill: #b53b3a; fill-opacity: 0.25"/>
   </g>
   <g id="patch_121">
    <path d="M 188.056476 118.08 
L 189.514192 118.08 
L 189.514192 118.08 
L 188.056476 118.08 
z
" clip-path="url(#p7e2af185f0)" style="fill: #b53b3a; fill-opacity: 0.25"/>
   </g>
   <g id="patch_122">
    <path d="M 189.514192 118.08 
L 190.971909 118.08 
L 190.971909 113.466542 
L 189.514192 113.466542 
z
" clip-path="url(#p7e2af185f0)" style="fill: #b53b3a; fill-opacity: 0.25"/>
   </g>
   <g id="patch_123">
    <path d="M 190.971909 118.08 
L 192.429625 118.08 
L 192.429625 115.773271 
L 190.971909 115.773271 
z
" clip-path="url(#p7e2af185f0)" style="fill: #b53b3a; fill-opacity: 0.25"/>
   </g>
   <g id="patch_124">
    <path d="M 192.429625 118.08 
L 193.887341 118.08 
L 193.887341 115.773271 
L 192.429625 115.773271 
z
" clip-path="url(#p7e2af185f0)" style="fill: #b53b3a; fill-opacity: 0.25"/>
   </g>
   <g id="patch_125">
    <path d="M 193.887341 118.08 
L 195.345058 118.08 
L 195.345058 115.773271 
L 193.887341 115.773271 
z
" clip-path="url(#p7e2af185f0)" style="fill: #b53b3a; fill-opacity: 0.25"/>
   </g>
   <g id="patch_126">
    <path d="M 195.345058 118.08 
L 196.802774 118.08 
L 196.802774 113.466542 
L 195.345058 113.466542 
z
" clip-path="url(#p7e2af185f0)" style="fill: #b53b3a; fill-opacity: 0.25"/>
   </g>
   <g id="patch_127">
    <path d="M 196.802774 118.08 
L 198.26049 118.08 
L 198.26049 118.08 
L 196.802774 118.08 
z
" clip-path="url(#p7e2af185f0)" style="fill: #b53b3a; fill-opacity: 0.25"/>
   </g>
   <g id="patch_128">
    <path d="M 198.26049 118.08 
L 199.718207 118.08 
L 199.718207 115.773271 
L 198.26049 115.773271 
z
" clip-path="url(#p7e2af185f0)" style="fill: #b53b3a; fill-opacity: 0.25"/>
   </g>
   <g id="patch_129">
    <path d="M 199.718207 118.08 
L 201.175923 118.08 
L 201.175923 115.773271 
L 199.718207 115.773271 
z
" clip-path="url(#p7e2af185f0)" style="fill: #b53b3a; fill-opacity: 0.25"/>
   </g>
   <g id="patch_130">
    <path d="M 201.175923 118.08 
L 202.633639 118.08 
L 202.633639 118.08 
L 201.175923 118.08 
z
" clip-path="url(#p7e2af185f0)" style="fill: #b53b3a; fill-opacity: 0.25"/>
   </g>
   <g id="patch_131">
    <path d="M 202.633639 118.08 
L 204.091356 118.08 
L 204.091356 118.08 
L 202.633639 118.08 
z
" clip-path="url(#p7e2af185f0)" style="fill: #b53b3a; fill-opacity: 0.25"/>
   </g>
   <g id="patch_132">
    <path d="M 204.091356 118.08 
L 205.549072 118.08 
L 205.549072 115.773271 
L 204.091356 115.773271 
z
" clip-path="url(#p7e2af185f0)" style="fill: #b53b3a; fill-opacity: 0.25"/>
   </g>
   <g id="patch_133">
    <path d="M 205.549072 118.08 
L 207.006788 118.08 
L 207.006788 111.159813 
L 205.549072 111.159813 
z
" clip-path="url(#p7e2af185f0)" style="fill: #b53b3a; fill-opacity: 0.25"/>
   </g>
   <g id="patch_134">
    <path d="M 207.006788 118.08 
L 208.464505 118.08 
L 208.464505 118.08 
L 207.006788 118.08 
z
" clip-path="url(#p7e2af185f0)" style="fill: #b53b3a; fill-opacity: 0.25"/>
   </g>
   <g id="patch_135">
    <path d="M 208.464505 118.08 
L 209.922221 118.08 
L 209.922221 115.773271 
L 208.464505 115.773271 
z
" clip-path="url(#p7e2af185f0)" style="fill: #b53b3a; fill-opacity: 0.25"/>
   </g>
   <g id="patch_136">
    <path d="M 209.922221 118.08 
L 211.379937 118.08 
L 211.379937 118.08 
L 209.922221 118.08 
z
" clip-path="url(#p7e2af185f0)" style="fill: #b53b3a; fill-opacity: 0.25"/>
   </g>
   <g id="patch_137">
    <path d="M 211.379937 118.08 
L 212.837653 118.08 
L 212.837653 115.773271 
L 211.379937 115.773271 
z
" clip-path="url(#p7e2af185f0)" style="fill: #b53b3a; fill-opacity: 0.25"/>
   </g>
   <g id="patch_138">
    <path d="M 212.837653 118.08 
L 214.29537 118.08 
L 214.29537 111.159813 
L 212.837653 111.159813 
z
" clip-path="url(#p7e2af185f0)" style="fill: #b53b3a; fill-opacity: 0.25"/>
   </g>
   <g id="patch_139">
    <path d="M 214.29537 118.08 
L 215.753086 118.08 
L 215.753086 118.08 
L 214.29537 118.08 
z
" clip-path="url(#p7e2af185f0)" style="fill: #b53b3a; fill-opacity: 0.25"/>
   </g>
   <g id="patch_140">
    <path d="M 215.753086 118.08 
L 217.210802 118.08 
L 217.210802 118.08 
L 215.753086 118.08 
z
" clip-path="url(#p7e2af185f0)" style="fill: #b53b3a; fill-opacity: 0.25"/>
   </g>
   <g id="patch_141">
    <path d="M 217.210802 118.08 
L 218.668519 118.08 
L 218.668519 118.08 
L 217.210802 118.08 
z
" clip-path="url(#p7e2af185f0)" style="fill: #b53b3a; fill-opacity: 0.25"/>
   </g>
   <g id="patch_142">
    <path d="M 218.668519 118.08 
L 220.126235 118.08 
L 220.126235 118.08 
L 218.668519 118.08 
z
" clip-path="url(#p7e2af185f0)" style="fill: #b53b3a; fill-opacity: 0.25"/>
   </g>
   <g id="patch_143">
    <path d="M 220.126235 118.08 
L 221.583951 118.08 
L 221.583951 113.466542 
L 220.126235 113.466542 
z
" clip-path="url(#p7e2af185f0)" style="fill: #b53b3a; fill-opacity: 0.25"/>
   </g>
   <g id="patch_144">
    <path d="M 221.583951 118.08 
L 223.041668 118.08 
L 223.041668 115.773271 
L 221.583951 115.773271 
z
" clip-path="url(#p7e2af185f0)" style="fill: #b53b3a; fill-opacity: 0.25"/>
   </g>
   <g id="patch_145">
    <path d="M 223.041668 118.08 
L 224.499384 118.08 
L 224.499384 115.773271 
L 223.041668 115.773271 
z
" clip-path="url(#p7e2af185f0)" style="fill: #b53b3a; fill-opacity: 0.25"/>
   </g>
   <g id="patch_146">
    <path d="M 224.499384 118.08 
L 225.9571 118.08 
L 225.9571 118.08 
L 224.499384 118.08 
z
" clip-path="url(#p7e2af185f0)" style="fill: #b53b3a; fill-opacity: 0.25"/>
   </g>
   <g id="patch_147">
    <path d="M 225.9571 118.08 
L 227.414817 118.08 
L 227.414817 113.466542 
L 225.9571 113.466542 
z
" clip-path="url(#p7e2af185f0)" style="fill: #b53b3a; fill-opacity: 0.25"/>
   </g>
   <g id="patch_148">
    <path d="M 227.414817 118.08 
L 228.872533 118.08 
L 228.872533 115.773271 
L 227.414817 115.773271 
z
" clip-path="url(#p7e2af185f0)" style="fill: #b53b3a; fill-opacity: 0.25"/>
   </g>
   <g id="patch_149">
    <path d="M 228.872533 118.08 
L 230.330249 118.08 
L 230.330249 115.773271 
L 228.872533 115.773271 
z
" clip-path="url(#p7e2af185f0)" style="fill: #b53b3a; fill-opacity: 0.25"/>
   </g>
   <g id="patch_150">
    <path d="M 230.330249 118.08 
L 231.787966 118.08 
L 231.787966 118.08 
L 230.330249 118.08 
z
" clip-path="url(#p7e2af185f0)" style="fill: #b53b3a; fill-opacity: 0.25"/>
   </g>
   <g id="patch_151">
    <path d="M 231.787966 118.08 
L 233.245682 118.08 
L 233.245682 118.08 
L 231.787966 118.08 
z
" clip-path="url(#p7e2af185f0)" style="fill: #b53b3a; fill-opacity: 0.25"/>
   </g>
   <g id="patch_152">
    <path d="M 233.245682 118.08 
L 234.703398 118.08 
L 234.703398 115.773271 
L 233.245682 115.773271 
z
" clip-path="url(#p7e2af185f0)" style="fill: #b53b3a; fill-opacity: 0.25"/>
   </g>
   <g id="patch_153">
    <path d="M 234.703398 118.08 
L 236.161115 118.08 
L 236.161115 118.08 
L 234.703398 118.08 
z
" clip-path="url(#p7e2af185f0)" style="fill: #b53b3a; fill-opacity: 0.25"/>
   </g>
   <g id="patch_154">
    <path d="M 236.161115 118.08 
L 237.618831 118.08 
L 237.618831 115.773271 
L 236.161115 115.773271 
z
" clip-path="url(#p7e2af185f0)" style="fill: #b53b3a; fill-opacity: 0.25"/>
   </g>
   <g id="patch_155">
    <path d="M 237.618831 118.08 
L 239.076547 118.08 
L 239.076547 113.466542 
L 237.618831 113.466542 
z
" clip-path="url(#p7e2af185f0)" style="fill: #b53b3a; fill-opacity: 0.25"/>
   </g>
   <g id="patch_156">
    <path d="M 239.076547 118.08 
L 240.534263 118.08 
L 240.534263 115.773271 
L 239.076547 115.773271 
z
" clip-path="url(#p7e2af185f0)" style="fill: #b53b3a; fill-opacity: 0.25"/>
   </g>
   <g id="patch_157">
    <path d="M 240.534263 118.08 
L 241.99198 118.08 
L 241.99198 118.08 
L 240.534263 118.08 
z
" clip-path="url(#p7e2af185f0)" style="fill: #b53b3a; fill-opacity: 0.25"/>
   </g>
   <g id="patch_158">
    <path d="M 241.99198 118.08 
L 243.449696 118.08 
L 243.449696 118.08 
L 241.99198 118.08 
z
" clip-path="url(#p7e2af185f0)" style="fill: #b53b3a; fill-opacity: 0.25"/>
   </g>
   <g id="patch_159">
    <path d="M 243.449696 118.08 
L 244.907412 118.08 
L 244.907412 115.773271 
L 243.449696 115.773271 
z
" clip-path="url(#p7e2af185f0)" style="fill: #b53b3a; fill-opacity: 0.25"/>
   </g>
   <g id="patch_160">
    <path d="M 244.907412 118.08 
L 246.365129 118.08 
L 246.365129 115.773271 
L 244.907412 115.773271 
z
" clip-path="url(#p7e2af185f0)" style="fill: #b53b3a; fill-opacity: 0.25"/>
   </g>
   <g id="patch_161">
    <path d="M 246.365129 118.08 
L 247.822845 118.08 
L 247.822845 118.08 
L 246.365129 118.08 
z
" clip-path="url(#p7e2af185f0)" style="fill: #b53b3a; fill-opacity: 0.25"/>
   </g>
   <g id="patch_162">
    <path d="M 247.822845 118.08 
L 249.280561 118.08 
L 249.280561 118.08 
L 247.822845 118.08 
z
" clip-path="url(#p7e2af185f0)" style="fill: #b53b3a; fill-opacity: 0.25"/>
   </g>
   <g id="patch_163">
    <path d="M 249.280561 118.08 
L 250.738278 118.08 
L 250.738278 118.08 
L 249.280561 118.08 
z
" clip-path="url(#p7e2af185f0)" style="fill: #b53b3a; fill-opacity: 0.25"/>
   </g>
   <g id="patch_164">
    <path d="M 250.738278 118.08 
L 252.195994 118.08 
L 252.195994 118.08 
L 250.738278 118.08 
z
" clip-path="url(#p7e2af185f0)" style="fill: #b53b3a; fill-opacity: 0.25"/>
   </g>
   <g id="patch_165">
    <path d="M 252.195994 118.08 
L 253.65371 118.08 
L 253.65371 118.08 
L 252.195994 118.08 
z
" clip-path="url(#p7e2af185f0)" style="fill: #b53b3a; fill-opacity: 0.25"/>
   </g>
   <g id="patch_166">
    <path d="M 253.65371 118.08 
L 255.111427 118.08 
L 255.111427 115.773271 
L 253.65371 115.773271 
z
" clip-path="url(#p7e2af185f0)" style="fill: #b53b3a; fill-opacity: 0.25"/>
   </g>
   <g id="patch_167">
    <path d="M 255.111427 118.08 
L 256.569143 118.08 
L 256.569143 118.08 
L 255.111427 118.08 
z
" clip-path="url(#p7e2af185f0)" style="fill: #b53b3a; fill-opacity: 0.25"/>
   </g>
   <g id="patch_168">
    <path d="M 256.569143 118.08 
L 258.026859 118.08 
L 258.026859 118.08 
L 256.569143 118.08 
z
" clip-path="url(#p7e2af185f0)" style="fill: #b53b3a; fill-opacity: 0.25"/>
   </g>
   <g id="patch_169">
    <path d="M 258.026859 118.08 
L 259.484576 118.08 
L 259.484576 118.08 
L 258.026859 118.08 
z
" clip-path="url(#p7e2af185f0)" style="fill: #b53b3a; fill-opacity: 0.25"/>
   </g>
   <g id="patch_170">
    <path d="M 259.484576 118.08 
L 260.942292 118.08 
L 260.942292 115.773271 
L 259.484576 115.773271 
z
" clip-path="url(#p7e2af185f0)" style="fill: #b53b3a; fill-opacity: 0.25"/>
   </g>
   <g id="patch_171">
    <path d="M 260.942292 118.08 
L 262.400008 118.08 
L 262.400008 115.773271 
L 260.942292 115.773271 
z
" clip-path="url(#p7e2af185f0)" style="fill: #b53b3a; fill-opacity: 0.25"/>
   </g>
   <g id="patch_172">
    <path d="M 262.400008 118.08 
L 263.857725 118.08 
L 263.857725 118.08 
L 262.400008 118.08 
z
" clip-path="url(#p7e2af185f0)" style="fill: #b53b3a; fill-opacity: 0.25"/>
   </g>
   <g id="patch_173">
    <path d="M 263.857725 118.08 
L 265.315441 118.08 
L 265.315441 118.08 
L 263.857725 118.08 
z
" clip-path="url(#p7e2af185f0)" style="fill: #b53b3a; fill-opacity: 0.25"/>
   </g>
   <g id="patch_174">
    <path d="M 265.315441 118.08 
L 266.773157 118.08 
L 266.773157 118.08 
L 265.315441 118.08 
z
" clip-path="url(#p7e2af185f0)" style="fill: #b53b3a; fill-opacity: 0.25"/>
   </g>
   <g id="patch_175">
    <path d="M 266.773157 118.08 
L 268.230873 118.08 
L 268.230873 115.773271 
L 266.773157 115.773271 
z
" clip-path="url(#p7e2af185f0)" style="fill: #b53b3a; fill-opacity: 0.25"/>
   </g>
   <g id="patch_176">
    <path d="M 268.230873 118.08 
L 269.68859 118.08 
L 269.68859 118.08 
L 268.230873 118.08 
z
" clip-path="url(#p7e2af185f0)" style="fill: #b53b3a; fill-opacity: 0.25"/>
   </g>
   <g id="patch_177">
    <path d="M 269.68859 118.08 
L 271.146306 118.08 
L 271.146306 118.08 
L 269.68859 118.08 
z
" clip-path="url(#p7e2af185f0)" style="fill: #b53b3a; fill-opacity: 0.25"/>
   </g>
   <g id="patch_178">
    <path d="M 271.146306 118.08 
L 272.604022 118.08 
L 272.604022 118.08 
L 271.146306 118.08 
z
" clip-path="url(#p7e2af185f0)" style="fill: #b53b3a; fill-opacity: 0.25"/>
   </g>
   <g id="patch_179">
    <path d="M 272.604022 118.08 
L 274.061739 118.08 
L 274.061739 118.08 
L 272.604022 118.08 
z
" clip-path="url(#p7e2af185f0)" style="fill: #b53b3a; fill-opacity: 0.25"/>
   </g>
   <g id="patch_180">
    <path d="M 274.061739 118.08 
L 275.519455 118.08 
L 275.519455 115.773271 
L 274.061739 115.773271 
z
" clip-path="url(#p7e2af185f0)" style="fill: #b53b3a; fill-opacity: 0.25"/>
   </g>
   <g id="patch_181">
    <path d="M 275.519455 118.08 
L 276.977171 118.08 
L 276.977171 115.773271 
L 275.519455 115.773271 
z
" clip-path="url(#p7e2af185f0)" style="fill: #b53b3a; fill-opacity: 0.25"/>
   </g>
   <g id="patch_182">
    <path d="M 276.977171 118.08 
L 278.434888 118.08 
L 278.434888 118.08 
L 276.977171 118.08 
z
" clip-path="url(#p7e2af185f0)" style="fill: #b53b3a; fill-opacity: 0.25"/>
   </g>
   <g id="patch_183">
    <path d="M 278.434888 118.08 
L 279.892604 118.08 
L 279.892604 118.08 
L 278.434888 118.08 
z
" clip-path="url(#p7e2af185f0)" style="fill: #b53b3a; fill-opacity: 0.25"/>
   </g>
   <g id="patch_184">
    <path d="M 279.892604 118.08 
L 281.35032 118.08 
L 281.35032 118.08 
L 279.892604 118.08 
z
" clip-path="url(#p7e2af185f0)" style="fill: #b53b3a; fill-opacity: 0.25"/>
   </g>
   <g id="patch_185">
    <path d="M 281.35032 118.08 
L 282.808037 118.08 
L 282.808037 115.773271 
L 281.35032 115.773271 
z
" clip-path="url(#p7e2af185f0)" style="fill: #b53b3a; fill-opacity: 0.25"/>
   </g>
   <g id="patch_186">
    <path d="M 282.808037 118.08 
L 284.265753 118.08 
L 284.265753 118.08 
L 282.808037 118.08 
z
" clip-path="url(#p7e2af185f0)" style="fill: #b53b3a; fill-opacity: 0.25"/>
   </g>
   <g id="patch_187">
    <path d="M 284.265753 118.08 
L 285.723469 118.08 
L 285.723469 118.08 
L 284.265753 118.08 
z
" clip-path="url(#p7e2af185f0)" style="fill: #b53b3a; fill-opacity: 0.25"/>
   </g>
   <g id="patch_188">
    <path d="M 285.723469 118.08 
L 287.181186 118.08 
L 287.181186 118.08 
L 285.723469 118.08 
z
" clip-path="url(#p7e2af185f0)" style="fill: #b53b3a; fill-opacity: 0.25"/>
   </g>
   <g id="patch_189">
    <path d="M 287.181186 118.08 
L 288.638902 118.08 
L 288.638902 115.773271 
L 287.181186 115.773271 
z
" clip-path="url(#p7e2af185f0)" style="fill: #b53b3a; fill-opacity: 0.25"/>
   </g>
   <g id="patch_190">
    <path d="M 288.638902 118.08 
L 290.096618 118.08 
L 290.096618 118.08 
L 288.638902 118.08 
z
" clip-path="url(#p7e2af185f0)" style="fill: #b53b3a; fill-opacity: 0.25"/>
   </g>
   <g id="patch_191">
    <path d="M 290.096618 118.08 
L 291.554334 118.08 
L 291.554334 118.08 
L 290.096618 118.08 
z
" clip-path="url(#p7e2af185f0)" style="fill: #b53b3a; fill-opacity: 0.25"/>
   </g>
   <g id="patch_192">
    <path d="M 291.554334 118.08 
L 293.012051 118.08 
L 293.012051 118.08 
L 291.554334 118.08 
z
" clip-path="url(#p7e2af185f0)" style="fill: #b53b3a; fill-opacity: 0.25"/>
   </g>
   <g id="patch_193">
    <path d="M 293.012051 118.08 
L 294.469767 118.08 
L 294.469767 118.08 
L 293.012051 118.08 
z
" clip-path="url(#p7e2af185f0)" style="fill: #b53b3a; fill-opacity: 0.25"/>
   </g>
   <g id="patch_194">
    <path d="M 294.469767 118.08 
L 295.927483 118.08 
L 295.927483 115.773271 
L 294.469767 115.773271 
z
" clip-path="url(#p7e2af185f0)" style="fill: #b53b3a; fill-opacity: 0.25"/>
   </g>
   <g id="patch_195">
    <path d="M 295.927483 118.08 
L 297.3852 118.08 
L 297.3852 118.08 
L 295.927483 118.08 
z
" clip-path="url(#p7e2af185f0)" style="fill: #b53b3a; fill-opacity: 0.25"/>
   </g>
   <g id="patch_196">
    <path d="M 297.3852 118.08 
L 298.842916 118.08 
L 298.842916 118.08 
L 297.3852 118.08 
z
" clip-path="url(#p7e2af185f0)" style="fill: #b53b3a; fill-opacity: 0.25"/>
   </g>
   <g id="patch_197">
    <path d="M 298.842916 118.08 
L 300.300632 118.08 
L 300.300632 118.08 
L 298.842916 118.08 
z
" clip-path="url(#p7e2af185f0)" style="fill: #b53b3a; fill-opacity: 0.25"/>
   </g>
   <g id="patch_198">
    <path d="M 300.300632 118.08 
L 301.758349 118.08 
L 301.758349 115.773271 
L 300.300632 115.773271 
z
" clip-path="url(#p7e2af185f0)" style="fill: #b53b3a; fill-opacity: 0.25"/>
   </g>
   <g id="patch_199">
    <path d="M 301.758349 118.08 
L 303.216065 118.08 
L 303.216065 118.08 
L 301.758349 118.08 
z
" clip-path="url(#p7e2af185f0)" style="fill: #b53b3a; fill-opacity: 0.25"/>
   </g>
   <g id="patch_200">
    <path d="M 303.216065 118.08 
L 304.673781 118.08 
L 304.673781 118.08 
L 303.216065 118.08 
z
" clip-path="url(#p7e2af185f0)" style="fill: #b53b3a; fill-opacity: 0.25"/>
   </g>
   <g id="patch_201">
    <path d="M 304.673781 118.08 
L 306.131498 118.08 
L 306.131498 118.08 
L 304.673781 118.08 
z
" clip-path="url(#p7e2af185f0)" style="fill: #b53b3a; fill-opacity: 0.25"/>
   </g>
   <g id="patch_202">
    <path d="M 306.131498 118.08 
L 307.589214 118.08 
L 307.589214 118.08 
L 306.131498 118.08 
z
" clip-path="url(#p7e2af185f0)" style="fill: #b53b3a; fill-opacity: 0.25"/>
   </g>
   <g id="patch_203">
    <path d="M 307.589214 118.08 
L 309.04693 118.08 
L 309.04693 115.773271 
L 307.589214 115.773271 
z
" clip-path="url(#p7e2af185f0)" style="fill: #b53b3a; fill-opacity: 0.25"/>
   </g>
   <g id="patch_204">
    <path d="M 309.04693 118.08 
L 310.504647 118.08 
L 310.504647 118.08 
L 309.04693 118.08 
z
" clip-path="url(#p7e2af185f0)" style="fill: #b53b3a; fill-opacity: 0.25"/>
   </g>
   <g id="patch_205">
    <path d="M 310.504647 118.08 
L 311.962363 118.08 
L 311.962363 118.08 
L 310.504647 118.08 
z
" clip-path="url(#p7e2af185f0)" style="fill: #b53b3a; fill-opacity: 0.25"/>
   </g>
   <g id="patch_206">
    <path d="M 311.962363 118.08 
L 313.420079 118.08 
L 313.420079 118.08 
L 311.962363 118.08 
z
" clip-path="url(#p7e2af185f0)" style="fill: #b53b3a; fill-opacity: 0.25"/>
   </g>
   <g id="patch_207">
    <path d="M 313.420079 118.08 
L 314.877796 118.08 
L 314.877796 115.773271 
L 313.420079 115.773271 
z
" clip-path="url(#p7e2af185f0)" style="fill: #b53b3a; fill-opacity: 0.25"/>
   </g>
   <g id="patch_208">
    <path d="M 314.877796 118.08 
L 316.335512 118.08 
L 316.335512 118.08 
L 314.877796 118.08 
z
" clip-path="url(#p7e2af185f0)" style="fill: #b53b3a; fill-opacity: 0.25"/>
   </g>
   <g id="patch_209">
    <path d="M 316.335512 118.08 
L 317.793228 118.08 
L 317.793228 118.08 
L 316.335512 118.08 
z
" clip-path="url(#p7e2af185f0)" style="fill: #b53b3a; fill-opacity: 0.25"/>
   </g>
   <g id="patch_210">
    <path d="M 317.793228 118.08 
L 319.250944 118.08 
L 319.250944 118.08 
L 317.793228 118.08 
z
" clip-path="url(#p7e2af185f0)" style="fill: #b53b3a; fill-opacity: 0.25"/>
   </g>
   <g id="patch_211">
    <path d="M 319.250944 118.08 
L 320.708661 118.08 
L 320.708661 115.773271 
L 319.250944 115.773271 
z
" clip-path="url(#p7e2af185f0)" style="fill: #b53b3a; fill-opacity: 0.25"/>
   </g>
   <g id="patch_212">
    <path d="M 320.708661 118.08 
L 322.166377 118.08 
L 322.166377 118.08 
L 320.708661 118.08 
z
" clip-path="url(#p7e2af185f0)" style="fill: #b53b3a; fill-opacity: 0.25"/>
   </g>
   <g id="patch_213">
    <path d="M 322.166377 118.08 
L 323.624093 118.08 
L 323.624093 118.08 
L 322.166377 118.08 
z
" clip-path="url(#p7e2af185f0)" style="fill: #b53b3a; fill-opacity: 0.25"/>
   </g>
   <g id="patch_214">
    <path d="M 323.624093 118.08 
L 325.08181 118.08 
L 325.08181 118.08 
L 323.624093 118.08 
z
" clip-path="url(#p7e2af185f0)" style="fill: #b53b3a; fill-opacity: 0.25"/>
   </g>
   <g id="patch_215">
    <path d="M 325.08181 118.08 
L 326.539526 118.08 
L 326.539526 118.08 
L 325.08181 118.08 
z
" clip-path="url(#p7e2af185f0)" style="fill: #b53b3a; fill-opacity: 0.25"/>
   </g>
   <g id="patch_216">
    <path d="M 326.539526 118.08 
L 327.997242 118.08 
L 327.997242 115.773271 
L 326.539526 115.773271 
z
" clip-path="url(#p7e2af185f0)" style="fill: #b53b3a; fill-opacity: 0.25"/>
   </g>
   <g id="patch_217">
    <path d="M 327.997242 118.08 
L 329.454959 118.08 
L 329.454959 118.08 
L 327.997242 118.08 
z
" clip-path="url(#p7e2af185f0)" style="fill: #b53b3a; fill-opacity: 0.25"/>
   </g>
   <g id="patch_218">
    <path d="M 329.454959 118.08 
L 330.912675 118.08 
L 330.912675 118.08 
L 329.454959 118.08 
z
" clip-path="url(#p7e2af185f0)" style="fill: #b53b3a; fill-opacity: 0.25"/>
   </g>
   <g id="patch_219">
    <path d="M 330.912675 118.08 
L 332.370391 118.08 
L 332.370391 118.08 
L 330.912675 118.08 
z
" clip-path="url(#p7e2af185f0)" style="fill: #b53b3a; fill-opacity: 0.25"/>
   </g>
   <g id="patch_220">
    <path d="M 332.370391 118.08 
L 333.828108 118.08 
L 333.828108 115.773271 
L 332.370391 115.773271 
z
" clip-path="url(#p7e2af185f0)" style="fill: #b53b3a; fill-opacity: 0.25"/>
   </g>
   <g id="patch_221">
    <path d="M 333.828108 118.08 
L 335.285824 118.08 
L 335.285824 118.08 
L 333.828108 118.08 
z
" clip-path="url(#p7e2af185f0)" style="fill: #b53b3a; fill-opacity: 0.25"/>
   </g>
   <g id="patch_222">
    <path d="M 335.285824 118.08 
L 336.74354 118.08 
L 336.74354 118.08 
L 335.285824 118.08 
z
" clip-path="url(#p7e2af185f0)" style="fill: #b53b3a; fill-opacity: 0.25"/>
   </g>
   <g id="patch_223">
    <path d="M 336.74354 118.08 
L 338.201257 118.08 
L 338.201257 118.08 
L 336.74354 118.08 
z
" clip-path="url(#p7e2af185f0)" style="fill: #b53b3a; fill-opacity: 0.25"/>
   </g>
   <g id="patch_224">
    <path d="M 338.201257 118.08 
L 339.658973 118.08 
L 339.658973 118.08 
L 338.201257 118.08 
z
" clip-path="url(#p7e2af185f0)" style="fill: #b53b3a; fill-opacity: 0.25"/>
   </g>
   <g id="patch_225">
    <path d="M 339.658973 118.08 
L 341.116689 118.08 
L 341.116689 118.08 
L 339.658973 118.08 
z
" clip-path="url(#p7e2af185f0)" style="fill: #b53b3a; fill-opacity: 0.25"/>
   </g>
   <g id="patch_226">
    <path d="M 341.116689 118.08 
L 342.574405 118.08 
L 342.574405 118.08 
L 341.116689 118.08 
z
" clip-path="url(#p7e2af185f0)" style="fill: #b53b3a; fill-opacity: 0.25"/>
   </g>
   <g id="patch_227">
    <path d="M 342.574405 118.08 
L 344.032122 118.08 
L 344.032122 115.773271 
L 342.574405 115.773271 
z
" clip-path="url(#p7e2af185f0)" style="fill: #b53b3a; fill-opacity: 0.25"/>
   </g>
   <g id="patch_228">
    <path d="M 16.046025 118.08 
L 17.500369 118.08 
L 17.500369 -302.718132 
L 16.046025 -302.718132 
z
" clip-path="url(#p7e2af185f0)" style="fill: #374f88; fill-opacity: 0.3"/>
   </g>
   <g id="patch_229">
    <path d="M 17.500369 118.08 
L 18.954714 118.08 
L 18.954714 32.533127 
L 17.500369 32.533127 
z
" clip-path="url(#p7e2af185f0)" style="fill: #374f88; fill-opacity: 0.3"/>
   </g>
   <g id="patch_230">
    <path d="M 18.954714 118.08 
L 20.409058 118.08 
L 20.409058 69.526369 
L 18.954714 69.526369 
z
" clip-path="url(#p7e2af185f0)" style="fill: #374f88; fill-opacity: 0.3"/>
   </g>
   <g id="patch_231">
    <path d="M 20.409058 118.08 
L 21.863402 118.08 
L 21.863402 76.462602 
L 20.409058 76.462602 
z
" clip-path="url(#p7e2af185f0)" style="fill: #374f88; fill-opacity: 0.3"/>
   </g>
   <g id="patch_232">
    <path d="M 21.863402 118.08 
L 23.317746 118.08 
L 23.317746 99.583379 
L 21.863402 99.583379 
z
" clip-path="url(#p7e2af185f0)" style="fill: #374f88; fill-opacity: 0.3"/>
   </g>
   <g id="patch_233">
    <path d="M 23.317746 118.08 
L 24.77209 118.08 
L 24.77209 99.583379 
L 23.317746 99.583379 
z
" clip-path="url(#p7e2af185f0)" style="fill: #374f88; fill-opacity: 0.3"/>
   </g>
   <g id="patch_234">
    <path d="M 24.77209 118.08 
L 26.226434 118.08 
L 26.226434 99.583379 
L 24.77209 99.583379 
z
" clip-path="url(#p7e2af185f0)" style="fill: #374f88; fill-opacity: 0.3"/>
   </g>
   <g id="patch_235">
    <path d="M 26.226434 118.08 
L 27.680778 118.08 
L 27.680778 97.271301 
L 26.226434 97.271301 
z
" clip-path="url(#p7e2af185f0)" style="fill: #374f88; fill-opacity: 0.3"/>
   </g>
   <g id="patch_236">
    <path d="M 27.680778 118.08 
L 29.135122 118.08 
L 29.135122 111.143767 
L 27.680778 111.143767 
z
" clip-path="url(#p7e2af185f0)" style="fill: #374f88; fill-opacity: 0.3"/>
   </g>
   <g id="patch_237">
    <path d="M 29.135122 118.08 
L 30.589466 118.08 
L 30.589466 106.519612 
L 29.135122 106.519612 
z
" clip-path="url(#p7e2af185f0)" style="fill: #374f88; fill-opacity: 0.3"/>
   </g>
   <g id="patch_238">
    <path d="M 30.589466 118.08 
L 32.043811 118.08 
L 32.043811 111.143767 
L 30.589466 111.143767 
z
" clip-path="url(#p7e2af185f0)" style="fill: #374f88; fill-opacity: 0.3"/>
   </g>
   <g id="patch_239">
    <path d="M 32.043811 118.08 
L 33.498155 118.08 
L 33.498155 115.767922 
L 32.043811 115.767922 
z
" clip-path="url(#p7e2af185f0)" style="fill: #374f88; fill-opacity: 0.3"/>
   </g>
   <g id="patch_240">
    <path d="M 33.498155 118.08 
L 34.952499 118.08 
L 34.952499 113.455845 
L 33.498155 113.455845 
z
" clip-path="url(#p7e2af185f0)" style="fill: #374f88; fill-opacity: 0.3"/>
   </g>
   <g id="patch_241">
    <path d="M 34.952499 118.08 
L 36.406843 118.08 
L 36.406843 115.767922 
L 34.952499 115.767922 
z
" clip-path="url(#p7e2af185f0)" style="fill: #374f88; fill-opacity: 0.3"/>
   </g>
   <g id="patch_242">
    <path d="M 36.406843 118.08 
L 37.861187 118.08 
L 37.861187 115.767922 
L 36.406843 115.767922 
z
" clip-path="url(#p7e2af185f0)" style="fill: #374f88; fill-opacity: 0.3"/>
   </g>
   <g id="patch_243">
    <path d="M 37.861187 118.08 
L 39.315531 118.08 
L 39.315531 118.08 
L 37.861187 118.08 
z
" clip-path="url(#p7e2af185f0)" style="fill: #374f88; fill-opacity: 0.3"/>
   </g>
   <g id="patch_244">
    <path d="M 39.315531 118.08 
L 40.769875 118.08 
L 40.769875 111.143767 
L 39.315531 111.143767 
z
" clip-path="url(#p7e2af185f0)" style="fill: #374f88; fill-opacity: 0.3"/>
   </g>
   <g id="patch_245">
    <path d="M 40.769875 118.08 
L 42.224219 118.08 
L 42.224219 113.455845 
L 40.769875 113.455845 
z
" clip-path="url(#p7e2af185f0)" style="fill: #374f88; fill-opacity: 0.3"/>
   </g>
   <g id="patch_246">
    <path d="M 42.224219 118.08 
L 43.678563 118.08 
L 43.678563 106.519612 
L 42.224219 106.519612 
z
" clip-path="url(#p7e2af185f0)" style="fill: #374f88; fill-opacity: 0.3"/>
   </g>
   <g id="patch_247">
    <path d="M 43.678563 118.08 
L 45.132908 118.08 
L 45.132908 115.767922 
L 43.678563 115.767922 
z
" clip-path="url(#p7e2af185f0)" style="fill: #374f88; fill-opacity: 0.3"/>
   </g>
   <g id="patch_248">
    <path d="M 45.132908 118.08 
L 46.587252 118.08 
L 46.587252 99.583379 
L 45.132908 99.583379 
z
" clip-path="url(#p7e2af185f0)" style="fill: #374f88; fill-opacity: 0.3"/>
   </g>
   <g id="patch_249">
    <path d="M 46.587252 118.08 
L 48.041596 118.08 
L 48.041596 111.143767 
L 46.587252 111.143767 
z
" clip-path="url(#p7e2af185f0)" style="fill: #374f88; fill-opacity: 0.3"/>
   </g>
   <g id="patch_250">
    <path d="M 48.041596 118.08 
L 49.49594 118.08 
L 49.49594 115.767922 
L 48.041596 115.767922 
z
" clip-path="url(#p7e2af185f0)" style="fill: #374f88; fill-opacity: 0.3"/>
   </g>
   <g id="patch_251">
    <path d="M 49.49594 118.08 
L 50.950284 118.08 
L 50.950284 115.767922 
L 49.49594 115.767922 
z
" clip-path="url(#p7e2af185f0)" style="fill: #374f88; fill-opacity: 0.3"/>
   </g>
   <g id="patch_252">
    <path d="M 50.950284 118.08 
L 52.404628 118.08 
L 52.404628 81.086758 
L 50.950284 81.086758 
z
" clip-path="url(#p7e2af185f0)" style="fill: #374f88; fill-opacity: 0.3"/>
   </g>
   <g id="patch_253">
    <path d="M 52.404628 118.08 
L 53.858972 118.08 
L 53.858972 108.831689 
L 52.404628 108.831689 
z
" clip-path="url(#p7e2af185f0)" style="fill: #374f88; fill-opacity: 0.3"/>
   </g>
   <g id="patch_254">
    <path d="M 53.858972 118.08 
L 55.313316 118.08 
L 55.313316 113.455845 
L 53.858972 113.455845 
z
" clip-path="url(#p7e2af185f0)" style="fill: #374f88; fill-opacity: 0.3"/>
   </g>
   <g id="patch_255">
    <path d="M 55.313316 118.08 
L 56.767661 118.08 
L 56.767661 118.08 
L 55.313316 118.08 
z
" clip-path="url(#p7e2af185f0)" style="fill: #374f88; fill-opacity: 0.3"/>
   </g>
   <g id="patch_256">
    <path d="M 56.767661 118.08 
L 58.222005 118.08 
L 58.222005 108.831689 
L 56.767661 108.831689 
z
" clip-path="url(#p7e2af185f0)" style="fill: #374f88; fill-opacity: 0.3"/>
   </g>
   <g id="patch_257">
    <path d="M 58.222005 118.08 
L 59.676349 118.08 
L 59.676349 115.767922 
L 58.222005 115.767922 
z
" clip-path="url(#p7e2af185f0)" style="fill: #374f88; fill-opacity: 0.3"/>
   </g>
   <g id="patch_258">
    <path d="M 59.676349 118.08 
L 61.130693 118.08 
L 61.130693 113.455845 
L 59.676349 113.455845 
z
" clip-path="url(#p7e2af185f0)" style="fill: #374f88; fill-opacity: 0.3"/>
   </g>
   <g id="patch_259">
    <path d="M 61.130693 118.08 
L 62.585037 118.08 
L 62.585037 111.143767 
L 61.130693 111.143767 
z
" clip-path="url(#p7e2af185f0)" style="fill: #374f88; fill-opacity: 0.3"/>
   </g>
   <g id="patch_260">
    <path d="M 62.585037 118.08 
L 64.039381 118.08 
L 64.039381 111.143767 
L 62.585037 111.143767 
z
" clip-path="url(#p7e2af185f0)" style="fill: #374f88; fill-opacity: 0.3"/>
   </g>
   <g id="patch_261">
    <path d="M 64.039381 118.08 
L 65.493725 118.08 
L 65.493725 113.455845 
L 64.039381 113.455845 
z
" clip-path="url(#p7e2af185f0)" style="fill: #374f88; fill-opacity: 0.3"/>
   </g>
   <g id="patch_262">
    <path d="M 65.493725 118.08 
L 66.948069 118.08 
L 66.948069 118.08 
L 65.493725 118.08 
z
" clip-path="url(#p7e2af185f0)" style="fill: #374f88; fill-opacity: 0.3"/>
   </g>
   <g id="patch_263">
    <path d="M 66.948069 118.08 
L 68.402413 118.08 
L 68.402413 118.08 
L 66.948069 118.08 
z
" clip-path="url(#p7e2af185f0)" style="fill: #374f88; fill-opacity: 0.3"/>
   </g>
   <g id="patch_264">
    <path d="M 68.402413 118.08 
L 69.856758 118.08 
L 69.856758 118.08 
L 68.402413 118.08 
z
" clip-path="url(#p7e2af185f0)" style="fill: #374f88; fill-opacity: 0.3"/>
   </g>
   <g id="patch_265">
    <path d="M 69.856758 118.08 
L 71.311102 118.08 
L 71.311102 118.08 
L 69.856758 118.08 
z
" clip-path="url(#p7e2af185f0)" style="fill: #374f88; fill-opacity: 0.3"/>
   </g>
   <g id="patch_266">
    <path d="M 71.311102 118.08 
L 72.765446 118.08 
L 72.765446 115.767922 
L 71.311102 115.767922 
z
" clip-path="url(#p7e2af185f0)" style="fill: #374f88; fill-opacity: 0.3"/>
   </g>
   <g id="patch_267">
    <path d="M 72.765446 118.08 
L 74.21979 118.08 
L 74.21979 118.08 
L 72.765446 118.08 
z
" clip-path="url(#p7e2af185f0)" style="fill: #374f88; fill-opacity: 0.3"/>
   </g>
   <g id="patch_268">
    <path d="M 74.21979 118.08 
L 75.674134 118.08 
L 75.674134 118.08 
L 74.21979 118.08 
z
" clip-path="url(#p7e2af185f0)" style="fill: #374f88; fill-opacity: 0.3"/>
   </g>
   <g id="patch_269">
    <path d="M 75.674134 118.08 
L 77.128478 118.08 
L 77.128478 113.455845 
L 75.674134 113.455845 
z
" clip-path="url(#p7e2af185f0)" style="fill: #374f88; fill-opacity: 0.3"/>
   </g>
   <g id="patch_270">
    <path d="M 77.128478 118.08 
L 78.582822 118.08 
L 78.582822 118.08 
L 77.128478 118.08 
z
" clip-path="url(#p7e2af185f0)" style="fill: #374f88; fill-opacity: 0.3"/>
   </g>
   <g id="patch_271">
    <path d="M 78.582822 118.08 
L 80.037166 118.08 
L 80.037166 115.767922 
L 78.582822 115.767922 
z
" clip-path="url(#p7e2af185f0)" style="fill: #374f88; fill-opacity: 0.3"/>
   </g>
   <g id="patch_272">
    <path d="M 80.037166 118.08 
L 81.491511 118.08 
L 81.491511 115.767922 
L 80.037166 115.767922 
z
" clip-path="url(#p7e2af185f0)" style="fill: #374f88; fill-opacity: 0.3"/>
   </g>
   <g id="patch_273">
    <path d="M 81.491511 118.08 
L 82.945855 118.08 
L 82.945855 118.08 
L 81.491511 118.08 
z
" clip-path="url(#p7e2af185f0)" style="fill: #374f88; fill-opacity: 0.3"/>
   </g>
   <g id="patch_274">
    <path d="M 82.945855 118.08 
L 84.400199 118.08 
L 84.400199 118.08 
L 82.945855 118.08 
z
" clip-path="url(#p7e2af185f0)" style="fill: #374f88; fill-opacity: 0.3"/>
   </g>
   <g id="patch_275">
    <path d="M 84.400199 118.08 
L 85.854543 118.08 
L 85.854543 118.08 
L 84.400199 118.08 
z
" clip-path="url(#p7e2af185f0)" style="fill: #374f88; fill-opacity: 0.3"/>
   </g>
   <g id="patch_276">
    <path d="M 85.854543 118.08 
L 87.308887 118.08 
L 87.308887 115.767922 
L 85.854543 115.767922 
z
" clip-path="url(#p7e2af185f0)" style="fill: #374f88; fill-opacity: 0.3"/>
   </g>
   <g id="patch_277">
    <path d="M 87.308887 118.08 
L 88.763231 118.08 
L 88.763231 118.08 
L 87.308887 118.08 
z
" clip-path="url(#p7e2af185f0)" style="fill: #374f88; fill-opacity: 0.3"/>
   </g>
   <g id="patch_278">
    <path d="M 88.763231 118.08 
L 90.217575 118.08 
L 90.217575 115.767922 
L 88.763231 115.767922 
z
" clip-path="url(#p7e2af185f0)" style="fill: #374f88; fill-opacity: 0.3"/>
   </g>
   <g id="patch_279">
    <path d="M 90.217575 118.08 
L 91.671919 118.08 
L 91.671919 115.767922 
L 90.217575 115.767922 
z
" clip-path="url(#p7e2af185f0)" style="fill: #374f88; fill-opacity: 0.3"/>
   </g>
   <g id="patch_280">
    <path d="M 91.671919 118.08 
L 93.126263 118.08 
L 93.126263 115.767922 
L 91.671919 115.767922 
z
" clip-path="url(#p7e2af185f0)" style="fill: #374f88; fill-opacity: 0.3"/>
   </g>
   <g id="patch_281">
    <path d="M 93.126263 118.08 
L 94.580608 118.08 
L 94.580608 118.08 
L 93.126263 118.08 
z
" clip-path="url(#p7e2af185f0)" style="fill: #374f88; fill-opacity: 0.3"/>
   </g>
   <g id="patch_282">
    <path d="M 94.580608 118.08 
L 96.034952 118.08 
L 96.034952 118.08 
L 94.580608 118.08 
z
" clip-path="url(#p7e2af185f0)" style="fill: #374f88; fill-opacity: 0.3"/>
   </g>
   <g id="patch_283">
    <path d="M 96.034952 118.08 
L 97.489296 118.08 
L 97.489296 118.08 
L 96.034952 118.08 
z
" clip-path="url(#p7e2af185f0)" style="fill: #374f88; fill-opacity: 0.3"/>
   </g>
   <g id="patch_284">
    <path d="M 97.489296 118.08 
L 98.94364 118.08 
L 98.94364 118.08 
L 97.489296 118.08 
z
" clip-path="url(#p7e2af185f0)" style="fill: #374f88; fill-opacity: 0.3"/>
   </g>
   <g id="patch_285">
    <path d="M 98.94364 118.08 
L 100.397984 118.08 
L 100.397984 118.08 
L 98.94364 118.08 
z
" clip-path="url(#p7e2af185f0)" style="fill: #374f88; fill-opacity: 0.3"/>
   </g>
   <g id="patch_286">
    <path d="M 100.397984 118.08 
L 101.852328 118.08 
L 101.852328 113.455845 
L 100.397984 113.455845 
z
" clip-path="url(#p7e2af185f0)" style="fill: #374f88; fill-opacity: 0.3"/>
   </g>
   <g id="patch_287">
    <path d="M 101.852328 118.08 
L 103.306672 118.08 
L 103.306672 118.08 
L 101.852328 118.08 
z
" clip-path="url(#p7e2af185f0)" style="fill: #374f88; fill-opacity: 0.3"/>
   </g>
   <g id="patch_288">
    <path d="M 103.306672 118.08 
L 104.761016 118.08 
L 104.761016 115.767922 
L 103.306672 115.767922 
z
" clip-path="url(#p7e2af185f0)" style="fill: #374f88; fill-opacity: 0.3"/>
   </g>
   <g id="patch_289">
    <path d="M 104.761016 118.08 
L 106.21536 118.08 
L 106.21536 118.08 
L 104.761016 118.08 
z
" clip-path="url(#p7e2af185f0)" style="fill: #374f88; fill-opacity: 0.3"/>
   </g>
   <g id="patch_290">
    <path d="M 106.21536 118.08 
L 107.669705 118.08 
L 107.669705 118.08 
L 106.21536 118.08 
z
" clip-path="url(#p7e2af185f0)" style="fill: #374f88; fill-opacity: 0.3"/>
   </g>
   <g id="patch_291">
    <path d="M 107.669705 118.08 
L 109.124049 118.08 
L 109.124049 118.08 
L 107.669705 118.08 
z
" clip-path="url(#p7e2af185f0)" style="fill: #374f88; fill-opacity: 0.3"/>
   </g>
   <g id="patch_292">
    <path d="M 109.124049 118.08 
L 110.578393 118.08 
L 110.578393 113.455845 
L 109.124049 113.455845 
z
" clip-path="url(#p7e2af185f0)" style="fill: #374f88; fill-opacity: 0.3"/>
   </g>
   <g id="patch_293">
    <path d="M 110.578393 118.08 
L 112.032737 118.08 
L 112.032737 118.08 
L 110.578393 118.08 
z
" clip-path="url(#p7e2af185f0)" style="fill: #374f88; fill-opacity: 0.3"/>
   </g>
   <g id="patch_294">
    <path d="M 112.032737 118.08 
L 113.487081 118.08 
L 113.487081 118.08 
L 112.032737 118.08 
z
" clip-path="url(#p7e2af185f0)" style="fill: #374f88; fill-opacity: 0.3"/>
   </g>
   <g id="patch_295">
    <path d="M 113.487081 118.08 
L 114.941425 118.08 
L 114.941425 115.767922 
L 113.487081 115.767922 
z
" clip-path="url(#p7e2af185f0)" style="fill: #374f88; fill-opacity: 0.3"/>
   </g>
   <g id="patch_296">
    <path d="M 114.941425 118.08 
L 116.395769 118.08 
L 116.395769 118.08 
L 114.941425 118.08 
z
" clip-path="url(#p7e2af185f0)" style="fill: #374f88; fill-opacity: 0.3"/>
   </g>
   <g id="patch_297">
    <path d="M 116.395769 118.08 
L 117.850113 118.08 
L 117.850113 118.08 
L 116.395769 118.08 
z
" clip-path="url(#p7e2af185f0)" style="fill: #374f88; fill-opacity: 0.3"/>
   </g>
   <g id="patch_298">
    <path d="M 117.850113 118.08 
L 119.304458 118.08 
L 119.304458 118.08 
L 117.850113 118.08 
z
" clip-path="url(#p7e2af185f0)" style="fill: #374f88; fill-opacity: 0.3"/>
   </g>
   <g id="patch_299">
    <path d="M 119.304458 118.08 
L 120.758802 118.08 
L 120.758802 118.08 
L 119.304458 118.08 
z
" clip-path="url(#p7e2af185f0)" style="fill: #374f88; fill-opacity: 0.3"/>
   </g>
   <g id="patch_300">
    <path d="M 120.758802 118.08 
L 122.213146 118.08 
L 122.213146 118.08 
L 120.758802 118.08 
z
" clip-path="url(#p7e2af185f0)" style="fill: #374f88; fill-opacity: 0.3"/>
   </g>
   <g id="patch_301">
    <path d="M 122.213146 118.08 
L 123.66749 118.08 
L 123.66749 115.767922 
L 122.213146 115.767922 
z
" clip-path="url(#p7e2af185f0)" style="fill: #374f88; fill-opacity: 0.3"/>
   </g>
   <g id="patch_302">
    <path d="M 123.66749 118.08 
L 125.121834 118.08 
L 125.121834 118.08 
L 123.66749 118.08 
z
" clip-path="url(#p7e2af185f0)" style="fill: #374f88; fill-opacity: 0.3"/>
   </g>
   <g id="patch_303">
    <path d="M 125.121834 118.08 
L 126.576178 118.08 
L 126.576178 118.08 
L 125.121834 118.08 
z
" clip-path="url(#p7e2af185f0)" style="fill: #374f88; fill-opacity: 0.3"/>
   </g>
   <g id="patch_304">
    <path d="M 126.576178 118.08 
L 128.030522 118.08 
L 128.030522 118.08 
L 126.576178 118.08 
z
" clip-path="url(#p7e2af185f0)" style="fill: #374f88; fill-opacity: 0.3"/>
   </g>
   <g id="patch_305">
    <path d="M 128.030522 118.08 
L 129.484866 118.08 
L 129.484866 113.455845 
L 128.030522 113.455845 
z
" clip-path="url(#p7e2af185f0)" style="fill: #374f88; fill-opacity: 0.3"/>
   </g>
   <g id="patch_306">
    <path d="M 129.484866 118.08 
L 130.93921 118.08 
L 130.93921 115.767922 
L 129.484866 115.767922 
z
" clip-path="url(#p7e2af185f0)" style="fill: #374f88; fill-opacity: 0.3"/>
   </g>
   <g id="patch_307">
    <path d="M 130.93921 118.08 
L 132.393555 118.08 
L 132.393555 118.08 
L 130.93921 118.08 
z
" clip-path="url(#p7e2af185f0)" style="fill: #374f88; fill-opacity: 0.3"/>
   </g>
   <g id="patch_308">
    <path d="M 132.393555 118.08 
L 133.847899 118.08 
L 133.847899 118.08 
L 132.393555 118.08 
z
" clip-path="url(#p7e2af185f0)" style="fill: #374f88; fill-opacity: 0.3"/>
   </g>
   <g id="patch_309">
    <path d="M 133.847899 118.08 
L 135.302243 118.08 
L 135.302243 118.08 
L 133.847899 118.08 
z
" clip-path="url(#p7e2af185f0)" style="fill: #374f88; fill-opacity: 0.3"/>
   </g>
   <g id="patch_310">
    <path d="M 135.302243 118.08 
L 136.756587 118.08 
L 136.756587 118.08 
L 135.302243 118.08 
z
" clip-path="url(#p7e2af185f0)" style="fill: #374f88; fill-opacity: 0.3"/>
   </g>
   <g id="patch_311">
    <path d="M 136.756587 118.08 
L 138.210931 118.08 
L 138.210931 118.08 
L 136.756587 118.08 
z
" clip-path="url(#p7e2af185f0)" style="fill: #374f88; fill-opacity: 0.3"/>
   </g>
   <g id="patch_312">
    <path d="M 138.210931 118.08 
L 139.665275 118.08 
L 139.665275 118.08 
L 138.210931 118.08 
z
" clip-path="url(#p7e2af185f0)" style="fill: #374f88; fill-opacity: 0.3"/>
   </g>
   <g id="patch_313">
    <path d="M 139.665275 118.08 
L 141.119619 118.08 
L 141.119619 118.08 
L 139.665275 118.08 
z
" clip-path="url(#p7e2af185f0)" style="fill: #374f88; fill-opacity: 0.3"/>
   </g>
   <g id="patch_314">
    <path d="M 141.119619 118.08 
L 142.573963 118.08 
L 142.573963 118.08 
L 141.119619 118.08 
z
" clip-path="url(#p7e2af185f0)" style="fill: #374f88; fill-opacity: 0.3"/>
   </g>
   <g id="patch_315">
    <path d="M 142.573963 118.08 
L 144.028308 118.08 
L 144.028308 115.767922 
L 142.573963 115.767922 
z
" clip-path="url(#p7e2af185f0)" style="fill: #374f88; fill-opacity: 0.3"/>
   </g>
   <g id="patch_316">
    <path d="M 144.028308 118.08 
L 145.482652 118.08 
L 145.482652 115.767922 
L 144.028308 115.767922 
z
" clip-path="url(#p7e2af185f0)" style="fill: #374f88; fill-opacity: 0.3"/>
   </g>
   <g id="patch_317">
    <path d="M 145.482652 118.08 
L 146.936996 118.08 
L 146.936996 118.08 
L 145.482652 118.08 
z
" clip-path="url(#p7e2af185f0)" style="fill: #374f88; fill-opacity: 0.3"/>
   </g>
   <g id="patch_318">
    <path d="M 146.936996 118.08 
L 148.39134 118.08 
L 148.39134 118.08 
L 146.936996 118.08 
z
" clip-path="url(#p7e2af185f0)" style="fill: #374f88; fill-opacity: 0.3"/>
   </g>
   <g id="patch_319">
    <path d="M 148.39134 118.08 
L 149.845684 118.08 
L 149.845684 118.08 
L 148.39134 118.08 
z
" clip-path="url(#p7e2af185f0)" style="fill: #374f88; fill-opacity: 0.3"/>
   </g>
   <g id="patch_320">
    <path d="M 149.845684 118.08 
L 151.300028 118.08 
L 151.300028 118.08 
L 149.845684 118.08 
z
" clip-path="url(#p7e2af185f0)" style="fill: #374f88; fill-opacity: 0.3"/>
   </g>
   <g id="patch_321">
    <path d="M 151.300028 118.08 
L 152.754372 118.08 
L 152.754372 115.767922 
L 151.300028 115.767922 
z
" clip-path="url(#p7e2af185f0)" style="fill: #374f88; fill-opacity: 0.3"/>
   </g>
   <g id="patch_322">
    <path d="M 152.754372 118.08 
L 154.208716 118.08 
L 154.208716 115.767922 
L 152.754372 115.767922 
z
" clip-path="url(#p7e2af185f0)" style="fill: #374f88; fill-opacity: 0.3"/>
   </g>
   <g id="patch_323">
    <path d="M 154.208716 118.08 
L 155.66306 118.08 
L 155.66306 118.08 
L 154.208716 118.08 
z
" clip-path="url(#p7e2af185f0)" style="fill: #374f88; fill-opacity: 0.3"/>
   </g>
   <g id="patch_324">
    <path d="M 155.66306 118.08 
L 157.117405 118.08 
L 157.117405 118.08 
L 155.66306 118.08 
z
" clip-path="url(#p7e2af185f0)" style="fill: #374f88; fill-opacity: 0.3"/>
   </g>
   <g id="patch_325">
    <path d="M 157.117405 118.08 
L 158.571749 118.08 
L 158.571749 118.08 
L 157.117405 118.08 
z
" clip-path="url(#p7e2af185f0)" style="fill: #374f88; fill-opacity: 0.3"/>
   </g>
   <g id="patch_326">
    <path d="M 158.571749 118.08 
L 160.026093 118.08 
L 160.026093 118.08 
L 158.571749 118.08 
z
" clip-path="url(#p7e2af185f0)" style="fill: #374f88; fill-opacity: 0.3"/>
   </g>
   <g id="patch_327">
    <path d="M 160.026093 118.08 
L 161.480437 118.08 
L 161.480437 118.08 
L 160.026093 118.08 
z
" clip-path="url(#p7e2af185f0)" style="fill: #374f88; fill-opacity: 0.3"/>
   </g>
   <g id="patch_328">
    <path d="M 161.480437 118.08 
L 162.934781 118.08 
L 162.934781 115.767922 
L 161.480437 115.767922 
z
" clip-path="url(#p7e2af185f0)" style="fill: #374f88; fill-opacity: 0.3"/>
   </g>
   <g id="patch_329">
    <path d="M 162.934781 118.08 
L 164.389125 118.08 
L 164.389125 118.08 
L 162.934781 118.08 
z
" clip-path="url(#p7e2af185f0)" style="fill: #374f88; fill-opacity: 0.3"/>
   </g>
   <g id="patch_330">
    <path d="M 164.389125 118.08 
L 165.843469 118.08 
L 165.843469 118.08 
L 164.389125 118.08 
z
" clip-path="url(#p7e2af185f0)" style="fill: #374f88; fill-opacity: 0.3"/>
   </g>
   <g id="patch_331">
    <path d="M 165.843469 118.08 
L 167.297813 118.08 
L 167.297813 115.767922 
L 165.843469 115.767922 
z
" clip-path="url(#p7e2af185f0)" style="fill: #374f88; fill-opacity: 0.3"/>
   </g>
   <g id="patch_332">
    <path d="M 167.297813 118.08 
L 168.752157 118.08 
L 168.752157 118.08 
L 167.297813 118.08 
z
" clip-path="url(#p7e2af185f0)" style="fill: #374f88; fill-opacity: 0.3"/>
   </g>
   <g id="patch_333">
    <path d="M 168.752157 118.08 
L 170.206502 118.08 
L 170.206502 118.08 
L 168.752157 118.08 
z
" clip-path="url(#p7e2af185f0)" style="fill: #374f88; fill-opacity: 0.3"/>
   </g>
   <g id="patch_334">
    <path d="M 170.206502 118.08 
L 171.660846 118.08 
L 171.660846 118.08 
L 170.206502 118.08 
z
" clip-path="url(#p7e2af185f0)" style="fill: #374f88; fill-opacity: 0.3"/>
   </g>
   <g id="patch_335">
    <path d="M 171.660846 118.08 
L 173.11519 118.08 
L 173.11519 118.08 
L 171.660846 118.08 
z
" clip-path="url(#p7e2af185f0)" style="fill: #374f88; fill-opacity: 0.3"/>
   </g>
   <g id="patch_336">
    <path d="M 173.11519 118.08 
L 174.569534 118.08 
L 174.569534 118.08 
L 173.11519 118.08 
z
" clip-path="url(#p7e2af185f0)" style="fill: #374f88; fill-opacity: 0.3"/>
   </g>
   <g id="patch_337">
    <path d="M 174.569534 118.08 
L 176.023878 118.08 
L 176.023878 118.08 
L 174.569534 118.08 
z
" clip-path="url(#p7e2af185f0)" style="fill: #374f88; fill-opacity: 0.3"/>
   </g>
   <g id="patch_338">
    <path d="M 176.023878 118.08 
L 177.478222 118.08 
L 177.478222 115.767922 
L 176.023878 115.767922 
z
" clip-path="url(#p7e2af185f0)" style="fill: #374f88; fill-opacity: 0.3"/>
   </g>
   <g id="patch_339">
    <path d="M 177.478222 118.08 
L 178.932566 118.08 
L 178.932566 118.08 
L 177.478222 118.08 
z
" clip-path="url(#p7e2af185f0)" style="fill: #374f88; fill-opacity: 0.3"/>
   </g>
   <g id="patch_340">
    <path d="M 178.932566 118.08 
L 180.38691 118.08 
L 180.38691 118.08 
L 178.932566 118.08 
z
" clip-path="url(#p7e2af185f0)" style="fill: #374f88; fill-opacity: 0.3"/>
   </g>
   <g id="patch_341">
    <path d="M 180.38691 118.08 
L 181.841255 118.08 
L 181.841255 118.08 
L 180.38691 118.08 
z
" clip-path="url(#p7e2af185f0)" style="fill: #374f88; fill-opacity: 0.3"/>
   </g>
   <g id="patch_342">
    <path d="M 181.841255 118.08 
L 183.295599 118.08 
L 183.295599 118.08 
L 181.841255 118.08 
z
" clip-path="url(#p7e2af185f0)" style="fill: #374f88; fill-opacity: 0.3"/>
   </g>
   <g id="patch_343">
    <path d="M 183.295599 118.08 
L 184.749943 118.08 
L 184.749943 118.08 
L 183.295599 118.08 
z
" clip-path="url(#p7e2af185f0)" style="fill: #374f88; fill-opacity: 0.3"/>
   </g>
   <g id="patch_344">
    <path d="M 184.749943 118.08 
L 186.204287 118.08 
L 186.204287 115.767922 
L 184.749943 115.767922 
z
" clip-path="url(#p7e2af185f0)" style="fill: #374f88; fill-opacity: 0.3"/>
   </g>
   <g id="patch_345">
    <path d="M 186.204287 118.08 
L 187.658631 118.08 
L 187.658631 115.767922 
L 186.204287 115.767922 
z
" clip-path="url(#p7e2af185f0)" style="fill: #374f88; fill-opacity: 0.3"/>
   </g>
   <g id="patch_346">
    <path d="M 187.658631 118.08 
L 189.112975 118.08 
L 189.112975 118.08 
L 187.658631 118.08 
z
" clip-path="url(#p7e2af185f0)" style="fill: #374f88; fill-opacity: 0.3"/>
   </g>
   <g id="patch_347">
    <path d="M 189.112975 118.08 
L 190.567319 118.08 
L 190.567319 118.08 
L 189.112975 118.08 
z
" clip-path="url(#p7e2af185f0)" style="fill: #374f88; fill-opacity: 0.3"/>
   </g>
   <g id="patch_348">
    <path d="M 190.567319 118.08 
L 192.021663 118.08 
L 192.021663 118.08 
L 190.567319 118.08 
z
" clip-path="url(#p7e2af185f0)" style="fill: #374f88; fill-opacity: 0.3"/>
   </g>
   <g id="patch_349">
    <path d="M 192.021663 118.08 
L 193.476007 118.08 
L 193.476007 115.767922 
L 192.021663 115.767922 
z
" clip-path="url(#p7e2af185f0)" style="fill: #374f88; fill-opacity: 0.3"/>
   </g>
   <g id="patch_350">
    <path d="M 193.476007 118.08 
L 194.930352 118.08 
L 194.930352 118.08 
L 193.476007 118.08 
z
" clip-path="url(#p7e2af185f0)" style="fill: #374f88; fill-opacity: 0.3"/>
   </g>
   <g id="patch_351">
    <path d="M 194.930352 118.08 
L 196.384696 118.08 
L 196.384696 118.08 
L 194.930352 118.08 
z
" clip-path="url(#p7e2af185f0)" style="fill: #374f88; fill-opacity: 0.3"/>
   </g>
   <g id="patch_352">
    <path d="M 196.384696 118.08 
L 197.83904 118.08 
L 197.83904 118.08 
L 196.384696 118.08 
z
" clip-path="url(#p7e2af185f0)" style="fill: #374f88; fill-opacity: 0.3"/>
   </g>
   <g id="patch_353">
    <path d="M 197.83904 118.08 
L 199.293384 118.08 
L 199.293384 118.08 
L 197.83904 118.08 
z
" clip-path="url(#p7e2af185f0)" style="fill: #374f88; fill-opacity: 0.3"/>
   </g>
   <g id="patch_354">
    <path d="M 199.293384 118.08 
L 200.747728 118.08 
L 200.747728 118.08 
L 199.293384 118.08 
z
" clip-path="url(#p7e2af185f0)" style="fill: #374f88; fill-opacity: 0.3"/>
   </g>
   <g id="patch_355">
    <path d="M 200.747728 118.08 
L 202.202072 118.08 
L 202.202072 118.08 
L 200.747728 118.08 
z
" clip-path="url(#p7e2af185f0)" style="fill: #374f88; fill-opacity: 0.3"/>
   </g>
   <g id="patch_356">
    <path d="M 202.202072 118.08 
L 203.656416 118.08 
L 203.656416 118.08 
L 202.202072 118.08 
z
" clip-path="url(#p7e2af185f0)" style="fill: #374f88; fill-opacity: 0.3"/>
   </g>
   <g id="patch_357">
    <path d="M 203.656416 118.08 
L 205.11076 118.08 
L 205.11076 118.08 
L 203.656416 118.08 
z
" clip-path="url(#p7e2af185f0)" style="fill: #374f88; fill-opacity: 0.3"/>
   </g>
   <g id="patch_358">
    <path d="M 205.11076 118.08 
L 206.565105 118.08 
L 206.565105 118.08 
L 205.11076 118.08 
z
" clip-path="url(#p7e2af185f0)" style="fill: #374f88; fill-opacity: 0.3"/>
   </g>
   <g id="patch_359">
    <path d="M 206.565105 118.08 
L 208.019449 118.08 
L 208.019449 118.08 
L 206.565105 118.08 
z
" clip-path="url(#p7e2af185f0)" style="fill: #374f88; fill-opacity: 0.3"/>
   </g>
   <g id="patch_360">
    <path d="M 208.019449 118.08 
L 209.473793 118.08 
L 209.473793 118.08 
L 208.019449 118.08 
z
" clip-path="url(#p7e2af185f0)" style="fill: #374f88; fill-opacity: 0.3"/>
   </g>
   <g id="patch_361">
    <path d="M 209.473793 118.08 
L 210.928137 118.08 
L 210.928137 118.08 
L 209.473793 118.08 
z
" clip-path="url(#p7e2af185f0)" style="fill: #374f88; fill-opacity: 0.3"/>
   </g>
   <g id="patch_362">
    <path d="M 210.928137 118.08 
L 212.382481 118.08 
L 212.382481 118.08 
L 210.928137 118.08 
z
" clip-path="url(#p7e2af185f0)" style="fill: #374f88; fill-opacity: 0.3"/>
   </g>
   <g id="patch_363">
    <path d="M 212.382481 118.08 
L 213.836825 118.08 
L 213.836825 118.08 
L 212.382481 118.08 
z
" clip-path="url(#p7e2af185f0)" style="fill: #374f88; fill-opacity: 0.3"/>
   </g>
   <g id="patch_364">
    <path d="M 213.836825 118.08 
L 215.291169 118.08 
L 215.291169 118.08 
L 213.836825 118.08 
z
" clip-path="url(#p7e2af185f0)" style="fill: #374f88; fill-opacity: 0.3"/>
   </g>
   <g id="patch_365">
    <path d="M 215.291169 118.08 
L 216.745513 118.08 
L 216.745513 115.767922 
L 215.291169 115.767922 
z
" clip-path="url(#p7e2af185f0)" style="fill: #374f88; fill-opacity: 0.3"/>
   </g>
   <g id="patch_366">
    <path d="M 216.745513 118.08 
L 218.199857 118.08 
L 218.199857 118.08 
L 216.745513 118.08 
z
" clip-path="url(#p7e2af185f0)" style="fill: #374f88; fill-opacity: 0.3"/>
   </g>
   <g id="patch_367">
    <path d="M 218.199857 118.08 
L 219.654202 118.08 
L 219.654202 118.08 
L 218.199857 118.08 
z
" clip-path="url(#p7e2af185f0)" style="fill: #374f88; fill-opacity: 0.3"/>
   </g>
   <g id="patch_368">
    <path d="M 219.654202 118.08 
L 221.108546 118.08 
L 221.108546 118.08 
L 219.654202 118.08 
z
" clip-path="url(#p7e2af185f0)" style="fill: #374f88; fill-opacity: 0.3"/>
   </g>
   <g id="patch_369">
    <path d="M 221.108546 118.08 
L 222.56289 118.08 
L 222.56289 118.08 
L 221.108546 118.08 
z
" clip-path="url(#p7e2af185f0)" style="fill: #374f88; fill-opacity: 0.3"/>
   </g>
   <g id="patch_370">
    <path d="M 222.56289 118.08 
L 224.017234 118.08 
L 224.017234 118.08 
L 222.56289 118.08 
z
" clip-path="url(#p7e2af185f0)" style="fill: #374f88; fill-opacity: 0.3"/>
   </g>
   <g id="patch_371">
    <path d="M 224.017234 118.08 
L 225.471578 118.08 
L 225.471578 118.08 
L 224.017234 118.08 
z
" clip-path="url(#p7e2af185f0)" style="fill: #374f88; fill-opacity: 0.3"/>
   </g>
   <g id="patch_372">
    <path d="M 225.471578 118.08 
L 226.925922 118.08 
L 226.925922 118.08 
L 225.471578 118.08 
z
" clip-path="url(#p7e2af185f0)" style="fill: #374f88; fill-opacity: 0.3"/>
   </g>
   <g id="patch_373">
    <path d="M 226.925922 118.08 
L 228.380266 118.08 
L 228.380266 118.08 
L 226.925922 118.08 
z
" clip-path="url(#p7e2af185f0)" style="fill: #374f88; fill-opacity: 0.3"/>
   </g>
   <g id="patch_374">
    <path d="M 228.380266 118.08 
L 229.83461 118.08 
L 229.83461 118.08 
L 228.380266 118.08 
z
" clip-path="url(#p7e2af185f0)" style="fill: #374f88; fill-opacity: 0.3"/>
   </g>
   <g id="patch_375">
    <path d="M 229.83461 118.08 
L 231.288954 118.08 
L 231.288954 118.08 
L 229.83461 118.08 
z
" clip-path="url(#p7e2af185f0)" style="fill: #374f88; fill-opacity: 0.3"/>
   </g>
   <g id="patch_376">
    <path d="M 231.288954 118.08 
L 232.743299 118.08 
L 232.743299 118.08 
L 231.288954 118.08 
z
" clip-path="url(#p7e2af185f0)" style="fill: #374f88; fill-opacity: 0.3"/>
   </g>
   <g id="patch_377">
    <path d="M 232.743299 118.08 
L 234.197643 118.08 
L 234.197643 118.08 
L 232.743299 118.08 
z
" clip-path="url(#p7e2af185f0)" style="fill: #374f88; fill-opacity: 0.3"/>
   </g>
   <g id="patch_378">
    <path d="M 234.197643 118.08 
L 235.651987 118.08 
L 235.651987 118.08 
L 234.197643 118.08 
z
" clip-path="url(#p7e2af185f0)" style="fill: #374f88; fill-opacity: 0.3"/>
   </g>
   <g id="patch_379">
    <path d="M 235.651987 118.08 
L 237.106331 118.08 
L 237.106331 118.08 
L 235.651987 118.08 
z
" clip-path="url(#p7e2af185f0)" style="fill: #374f88; fill-opacity: 0.3"/>
   </g>
   <g id="patch_380">
    <path d="M 237.106331 118.08 
L 238.560675 118.08 
L 238.560675 118.08 
L 237.106331 118.08 
z
" clip-path="url(#p7e2af185f0)" style="fill: #374f88; fill-opacity: 0.3"/>
   </g>
   <g id="patch_381">
    <path d="M 238.560675 118.08 
L 240.015019 118.08 
L 240.015019 118.08 
L 238.560675 118.08 
z
" clip-path="url(#p7e2af185f0)" style="fill: #374f88; fill-opacity: 0.3"/>
   </g>
   <g id="patch_382">
    <path d="M 240.015019 118.08 
L 241.469363 118.08 
L 241.469363 118.08 
L 240.015019 118.08 
z
" clip-path="url(#p7e2af185f0)" style="fill: #374f88; fill-opacity: 0.3"/>
   </g>
   <g id="patch_383">
    <path d="M 241.469363 118.08 
L 242.923707 118.08 
L 242.923707 118.08 
L 241.469363 118.08 
z
" clip-path="url(#p7e2af185f0)" style="fill: #374f88; fill-opacity: 0.3"/>
   </g>
   <g id="patch_384">
    <path d="M 242.923707 118.08 
L 244.378052 118.08 
L 244.378052 118.08 
L 242.923707 118.08 
z
" clip-path="url(#p7e2af185f0)" style="fill: #374f88; fill-opacity: 0.3"/>
   </g>
   <g id="patch_385">
    <path d="M 244.378052 118.08 
L 245.832396 118.08 
L 245.832396 115.767922 
L 244.378052 115.767922 
z
" clip-path="url(#p7e2af185f0)" style="fill: #374f88; fill-opacity: 0.3"/>
   </g>
   <g id="patch_386">
    <path d="M 245.832396 118.08 
L 247.28674 118.08 
L 247.28674 118.08 
L 245.832396 118.08 
z
" clip-path="url(#p7e2af185f0)" style="fill: #374f88; fill-opacity: 0.3"/>
   </g>
   <g id="patch_387">
    <path d="M 247.28674 118.08 
L 248.741084 118.08 
L 248.741084 118.08 
L 247.28674 118.08 
z
" clip-path="url(#p7e2af185f0)" style="fill: #374f88; fill-opacity: 0.3"/>
   </g>
   <g id="patch_388">
    <path d="M 248.741084 118.08 
L 250.195428 118.08 
L 250.195428 118.08 
L 248.741084 118.08 
z
" clip-path="url(#p7e2af185f0)" style="fill: #374f88; fill-opacity: 0.3"/>
   </g>
   <g id="patch_389">
    <path d="M 250.195428 118.08 
L 251.649772 118.08 
L 251.649772 118.08 
L 250.195428 118.08 
z
" clip-path="url(#p7e2af185f0)" style="fill: #374f88; fill-opacity: 0.3"/>
   </g>
   <g id="patch_390">
    <path d="M 251.649772 118.08 
L 253.104116 118.08 
L 253.104116 118.08 
L 251.649772 118.08 
z
" clip-path="url(#p7e2af185f0)" style="fill: #374f88; fill-opacity: 0.3"/>
   </g>
   <g id="patch_391">
    <path d="M 253.104116 118.08 
L 254.55846 118.08 
L 254.55846 118.08 
L 253.104116 118.08 
z
" clip-path="url(#p7e2af185f0)" style="fill: #374f88; fill-opacity: 0.3"/>
   </g>
   <g id="patch_392">
    <path d="M 254.55846 118.08 
L 256.012804 118.08 
L 256.012804 118.08 
L 254.55846 118.08 
z
" clip-path="url(#p7e2af185f0)" style="fill: #374f88; fill-opacity: 0.3"/>
   </g>
   <g id="patch_393">
    <path d="M 256.012804 118.08 
L 257.467149 118.08 
L 257.467149 118.08 
L 256.012804 118.08 
z
" clip-path="url(#p7e2af185f0)" style="fill: #374f88; fill-opacity: 0.3"/>
   </g>
   <g id="patch_394">
    <path d="M 257.467149 118.08 
L 258.921493 118.08 
L 258.921493 118.08 
L 257.467149 118.08 
z
" clip-path="url(#p7e2af185f0)" style="fill: #374f88; fill-opacity: 0.3"/>
   </g>
   <g id="patch_395">
    <path d="M 258.921493 118.08 
L 260.375837 118.08 
L 260.375837 118.08 
L 258.921493 118.08 
z
" clip-path="url(#p7e2af185f0)" style="fill: #374f88; fill-opacity: 0.3"/>
   </g>
   <g id="patch_396">
    <path d="M 260.375837 118.08 
L 261.830181 118.08 
L 261.830181 118.08 
L 260.375837 118.08 
z
" clip-path="url(#p7e2af185f0)" style="fill: #374f88; fill-opacity: 0.3"/>
   </g>
   <g id="patch_397">
    <path d="M 261.830181 118.08 
L 263.284525 118.08 
L 263.284525 118.08 
L 261.830181 118.08 
z
" clip-path="url(#p7e2af185f0)" style="fill: #374f88; fill-opacity: 0.3"/>
   </g>
   <g id="patch_398">
    <path d="M 263.284525 118.08 
L 264.738869 118.08 
L 264.738869 118.08 
L 263.284525 118.08 
z
" clip-path="url(#p7e2af185f0)" style="fill: #374f88; fill-opacity: 0.3"/>
   </g>
   <g id="patch_399">
    <path d="M 264.738869 118.08 
L 266.193213 118.08 
L 266.193213 118.08 
L 264.738869 118.08 
z
" clip-path="url(#p7e2af185f0)" style="fill: #374f88; fill-opacity: 0.3"/>
   </g>
   <g id="patch_400">
    <path d="M 266.193213 118.08 
L 267.647557 118.08 
L 267.647557 118.08 
L 266.193213 118.08 
z
" clip-path="url(#p7e2af185f0)" style="fill: #374f88; fill-opacity: 0.3"/>
   </g>
   <g id="patch_401">
    <path d="M 267.647557 118.08 
L 269.101902 118.08 
L 269.101902 118.08 
L 267.647557 118.08 
z
" clip-path="url(#p7e2af185f0)" style="fill: #374f88; fill-opacity: 0.3"/>
   </g>
   <g id="patch_402">
    <path d="M 269.101902 118.08 
L 270.556246 118.08 
L 270.556246 118.08 
L 269.101902 118.08 
z
" clip-path="url(#p7e2af185f0)" style="fill: #374f88; fill-opacity: 0.3"/>
   </g>
   <g id="patch_403">
    <path d="M 270.556246 118.08 
L 272.01059 118.08 
L 272.01059 118.08 
L 270.556246 118.08 
z
" clip-path="url(#p7e2af185f0)" style="fill: #374f88; fill-opacity: 0.3"/>
   </g>
   <g id="patch_404">
    <path d="M 272.01059 118.08 
L 273.464934 118.08 
L 273.464934 118.08 
L 272.01059 118.08 
z
" clip-path="url(#p7e2af185f0)" style="fill: #374f88; fill-opacity: 0.3"/>
   </g>
   <g id="patch_405">
    <path d="M 273.464934 118.08 
L 274.919278 118.08 
L 274.919278 118.08 
L 273.464934 118.08 
z
" clip-path="url(#p7e2af185f0)" style="fill: #374f88; fill-opacity: 0.3"/>
   </g>
   <g id="patch_406">
    <path d="M 274.919278 118.08 
L 276.373622 118.08 
L 276.373622 118.08 
L 274.919278 118.08 
z
" clip-path="url(#p7e2af185f0)" style="fill: #374f88; fill-opacity: 0.3"/>
   </g>
   <g id="patch_407">
    <path d="M 276.373622 118.08 
L 277.827966 118.08 
L 277.827966 115.767922 
L 276.373622 115.767922 
z
" clip-path="url(#p7e2af185f0)" style="fill: #374f88; fill-opacity: 0.3"/>
   </g>
   <g id="matplotlib.axis_1">
    <g id="xtick_1">
     <g id="line2d_1">
      <defs>
       <path id="m99064dbaf7" d="M 0 0 
L 0 3.5 
" style="stroke: #000000; stroke-width: 0.8"/>
      </defs>
      <g>
       <use xlink:href="#m99064dbaf7" x="16.045313" y="118.08" style="stroke: #000000; stroke-width: 0.8"/>
      </g>
     </g>
     <g id="text_1">
      <!-- 1 -->
      <g transform="translate(7.2 134.198125) scale(0.12 -0.12)">
       <defs>
        <path id="DejaVuSans-2212" d="M 678 2272 
L 4684 2272 
L 4684 1741 
L 678 1741 
L 678 2272 
z
" transform="scale(0.015625)"/>
        <path id="DejaVuSans-31" d="M 794 531 
L 1825 531 
L 1825 4091 
L 703 3866 
L 703 4441 
L 1819 4666 
L 2450 4666 
L 2450 531 
L 3481 531 
L 3481 0 
L 794 0 
L 794 531 
z
" transform="scale(0.015625)"/>
       </defs>
       <use xlink:href="#DejaVuSans-2212"/>
       <use xlink:href="#DejaVuSans-31" x="83.789062"/>
      </g>
     </g>
    </g>
    <g id="xtick_2">
     <g id="line2d_2">
      <g>
       <use xlink:href="#m99064dbaf7" x="30.601834" y="118.08" style="stroke: #000000; stroke-width: 0.8"/>
      </g>
     </g>
     <g id="text_2">
      <!-- 0 -->
      <g transform="translate(26.784334 134.198125) scale(0.12 -0.12)">
       <defs>
        <path id="DejaVuSans-30" d="M 2034 4250 
Q 1547 4250 1301 3770 
Q 1056 3291 1056 2328 
Q 1056 1369 1301 889 
Q 1547 409 2034 409 
Q 2525 409 2770 889 
Q 3016 1369 3016 2328 
Q 3016 3291 2770 3770 
Q 2525 4250 2034 4250 
z
M 2034 4750 
Q 2819 4750 3233 4129 
Q 3647 3509 3647 2328 
Q 3647 1150 3233 529 
Q 2819 -91 2034 -91 
Q 1250 -91 836 529 
Q 422 1150 422 2328 
Q 422 3509 836 4129 
Q 1250 4750 2034 4750 
z
" transform="scale(0.015625)"/>
       </defs>
       <use xlink:href="#DejaVuSans-30"/>
      </g>
     </g>
    </g>
    <g id="xtick_3">
     <g id="line2d_3">
      <g>
       <use xlink:href="#m99064dbaf7" x="103.384443" y="118.08" style="stroke: #000000; stroke-width: 0.8"/>
      </g>
     </g>
     <g id="text_3">
      <!-- 5 -->
      <g transform="translate(99.566943 134.198125) scale(0.12 -0.12)">
       <defs>
        <path id="DejaVuSans-35" d="M 691 4666 
L 3169 4666 
L 3169 4134 
L 1269 4134 
L 1269 2991 
Q 1406 3038 1543 3061 
Q 1681 3084 1819 3084 
Q 2600 3084 3056 2656 
Q 3513 2228 3513 1497 
Q 3513 744 3044 326 
Q 2575 -91 1722 -91 
Q 1428 -91 1123 -41 
Q 819 9 494 109 
L 494 744 
Q 775 591 1075 516 
Q 1375 441 1709 441 
Q 2250 441 2565 725 
Q 2881 1009 2881 1497 
Q 2881 1984 2565 2268 
Q 2250 2553 1709 2553 
Q 1456 2553 1204 2497 
Q 953 2441 691 2322 
L 691 4666 
z
" transform="scale(0.015625)"/>
       </defs>
       <use xlink:href="#DejaVuSans-35"/>
      </g>
     </g>
    </g>
    <g id="xtick_4">
     <g id="line2d_4">
      <g>
       <use xlink:href="#m99064dbaf7" x="176.167052" y="118.08" style="stroke: #000000; stroke-width: 0.8"/>
      </g>
     </g>
     <g id="text_4">
      <!-- 10 -->
      <g transform="translate(168.532052 134.198125) scale(0.12 -0.12)">
       <use xlink:href="#DejaVuSans-31"/>
       <use xlink:href="#DejaVuSans-30" x="63.623047"/>
      </g>
     </g>
    </g>
   </g>
   <g id="matplotlib.axis_2">
    <g id="ytick_1"/>
    <g id="ytick_2"/>
    <g id="ytick_3"/>
    <g id="ytick_4"/>
    <g id="ytick_5"/>
   </g>
   <g id="line2d_5">
    <path d="M 16.045951 107.444216 
L 20.990466 106.294468 
L 24.28681 105.698285 
L 27.583153 105.261528 
L 30.879496 104.995614 
L 34.17584 104.903858 
L 37.472183 104.981674 
L 42.416698 105.389177 
L 47.361214 106.088405 
L 53.9539 107.336988 
L 77.028304 112.149512 
L 83.620991 113.193812 
L 90.213678 114.017515 
L 96.806365 114.631861 
L 105.047224 115.150707 
L 114.936254 115.509344 
L 129.769799 115.763301 
L 156.140547 115.945724 
L 192.002052 116.03831 
L 192.002052 116.03831 
" clip-path="url(#p7e2af185f0)" style="fill: none; stroke: #b53b3a; stroke-width: 2; stroke-linecap: square"/>
   </g>
   <g id="line2d_6">
    <path d="M 16.046025 82.399102 
L 17.361512 81.737313 
L 18.677 81.556536 
L 19.992487 81.855083 
L 21.307974 82.610645 
L 22.623461 83.782 
L 23.938948 85.311977 
L 25.254435 87.13141 
L 27.88541 91.329498 
L 31.831871 97.886318 
L 34.462845 101.717987 
L 35.778332 103.357417 
L 37.09382 104.791234 
L 38.409307 106.017832 
L 39.724794 107.045197 
L 41.040281 107.888932 
L 42.355768 108.570166 
L 44.986742 109.545161 
L 47.617717 110.176652 
L 58.141614 112.233194 
L 71.296485 115.500094 
L 75.242947 116.122384 
L 79.189408 116.52567 
L 84.451357 116.817305 
L 92.344279 116.992789 
L 134.439868 117.401711 
L 192.002052 117.673774 
L 192.002052 117.673774 
" clip-path="url(#p7e2af185f0)" style="fill: none; stroke: #374f88; stroke-width: 2; stroke-linecap: square"/>
   </g>
   <g id="line2d_7">
    <path d="M 30.601834 118.08 
L 30.601834 7.2 
" clip-path="url(#p7e2af185f0)" style="fill: none; stroke: #000000; stroke-linecap: square"/>
   </g>
   <g id="line2d_8">
    <path d="M 45.660664 118.08 
L 45.660664 7.2 
" clip-path="url(#p7e2af185f0)" style="fill: none; stroke-dasharray: 3.7,1.6; stroke-dashoffset: 0; stroke: #000000"/>
   </g>
   <g id="line2d_9">
    <path d="M 18.027145 118.08 
L 18.027145 7.2 
" clip-path="url(#p7e2af185f0)" style="fill: none; stroke-dasharray: 3.7,1.6; stroke-dashoffset: 0; stroke: #000000"/>
   </g>
   <g id="patch_408">
    <path d="M 8.767052 118.08 
L 176.167052 118.08 
" style="fill: none; stroke: #000000; stroke-width: 0.8; stroke-linejoin: miter; stroke-linecap: square"/>
   </g>
  </g>
 </g>
 <defs>
  <clipPath id="p7e2af185f0">
   <rect x="8.767052" y="7.2" width="167.4" height="110.88"/>
  </clipPath>
 </defs>
</svg>
