<?xml version="1.0" encoding="utf-8" standalone="no"?>
<!DOCTYPE svg PUBLIC "-//W3C//DTD SVG 1.1//EN"
  "http://www.w3.org/Graphics/SVG/1.1/DTD/svg11.dtd">
<svg xmlns:xlink="http://www.w3.org/1999/xlink" width="100.7825pt" height="136.522578pt" viewBox="0 0 100.7825 136.522578" xmlns="http://www.w3.org/2000/svg" version="1.1">
 <metadata>
  <rdf:RDF xmlns:dc="http://purl.org/dc/elements/1.1/" xmlns:cc="http://creativecommons.org/ns#" xmlns:rdf="http://www.w3.org/1999/02/22-rdf-syntax-ns#">
   <cc:Work>
    <dc:type rdf:resource="http://purl.org/dc/dcmitype/StillImage"/>
    <dc:date>2025-07-03T15:01:28.744860</dc:date>
    <dc:format>image/svg+xml</dc:format>
    <dc:creator>
     <cc:Agent>
      <dc:title>Matplotlib v3.8.4, https://matplotlib.org/</dc:title>
     </cc:Agent>
    </dc:creator>
   </cc:Work>
  </rdf:RDF>
 </metadata>
 <defs>
  <style type="text/css">*{stroke-linejoin: round; stroke-linecap: butt}</style>
 </defs>
 <g id="figure_1">
  <g id="patch_1">
   <path d="M 0 136.522578 
L 100.7825 136.522578 
L 100.7825 0 
L 0 0 
L 0 136.522578 
z
" style="fill: none"/>
  </g>
  <g id="axes_1">
   <g id="patch_2">
    <path d="M 30.7425 121.68 
L 93.5825 121.68 
L 93.5825 7.2 
L 30.7425 7.2 
L 30.7425 121.68 
z
" style="fill: none"/>
   </g>
   <g id="patch_3">
    <path d="M 34.931833 121.68 
L 47.499833 121.68 
L 47.499833 44.62518 
L 34.931833 44.62518 
z
" clip-path="url(#p6e4c766b69)" style="fill: #cccccc"/>
   </g>
   <g id="patch_4">
    <path d="M 55.8785 121.68 
L 68.4465 121.68 
L 68.4465 80.984726 
L 55.8785 80.984726 
z
" clip-path="url(#p6e4c766b69)" style="fill: #7284ac"/>
   </g>
   <g id="patch_5">
    <path d="M 76.825167 121.68 
L 89.393167 121.68 
L 89.393167 90.426548 
L 76.825167 90.426548 
z
" clip-path="url(#p6e4c766b69)" style="fill: #cc6868"/>
   </g>
   <g id="matplotlib.axis_1"/>
   <g id="matplotlib.axis_2">
    <g id="ytick_1">
     <g id="line2d_1">
      <defs>
       <path id="m51f7400219" d="M 0 0 
L -3.5 0 
" style="stroke: #000000"/>
      </defs>
      <g>
       <use xlink:href="#m51f7400219" x="30.7425" y="121.68" style="stroke: #000000"/>
      </g>
     </g>
     <g id="text_1">
      <!-- 0 -->
      <g transform="translate(15.47125 126.618984) scale(0.13 -0.13)">
       <defs>
        <path id="DejaVuSans-30" d="M 2034 4250 
Q 1547 4250 1301 3770 
Q 1056 3291 1056 2328 
Q 1056 1369 1301 889 
Q 1547 409 2034 409 
Q 2525 409 2770 889 
Q 3016 1369 3016 2328 
Q 3016 3291 2770 3770 
Q 2525 4250 2034 4250 
z
M 2034 4750 
Q 2819 4750 3233 4129 
Q 3647 3509 3647 2328 
Q 3647 1150 3233 529 
Q 2819 -91 2034 -91 
Q 1250 -91 836 529 
Q 422 1150 422 2328 
Q 422 3509 836 4129 
Q 1250 4750 2034 4750 
z
" transform="scale(0.015625)"/>
       </defs>
       <use xlink:href="#DejaVuSans-30"/>
      </g>
     </g>
    </g>
    <g id="ytick_2">
     <g id="line2d_2">
      <g>
       <use xlink:href="#m51f7400219" x="30.7425" y="77.979844" style="stroke: #000000"/>
      </g>
     </g>
     <g id="text_2">
      <!-- 20 -->
      <g transform="translate(7.2 82.918828) scale(0.13 -0.13)">
       <defs>
        <path id="DejaVuSans-32" d="M 1228 531 
L 3431 531 
L 3431 0 
L 469 0 
L 469 531 
Q 828 903 1448 1529 
Q 2069 2156 2228 2338 
Q 2531 2678 2651 2914 
Q 2772 3150 2772 3378 
Q 2772 3750 2511 3984 
Q 2250 4219 1831 4219 
Q 1534 4219 1204 4116 
Q 875 4013 500 3803 
L 500 4441 
Q 881 4594 1212 4672 
Q 1544 4750 1819 4750 
Q 2544 4750 2975 4387 
Q 3406 4025 3406 3419 
Q 3406 3131 3298 2873 
Q 3191 2616 2906 2266 
Q 2828 2175 2409 1742 
Q 1991 1309 1228 531 
z
" transform="scale(0.015625)"/>
       </defs>
       <use xlink:href="#DejaVuSans-32"/>
       <use xlink:href="#DejaVuSans-30" x="63.623047"/>
      </g>
     </g>
    </g>
    <g id="ytick_3">
     <g id="line2d_3">
      <g>
       <use xlink:href="#m51f7400219" x="30.7425" y="34.279687" style="stroke: #000000"/>
      </g>
     </g>
     <g id="text_3">
      <!-- 40 -->
      <g transform="translate(7.2 39.218672) scale(0.13 -0.13)">
       <defs>
        <path id="DejaVuSans-34" d="M 2419 4116 
L 825 1625 
L 2419 1625 
L 2419 4116 
z
M 2253 4666 
L 3047 4666 
L 3047 1625 
L 3713 1625 
L 3713 1100 
L 3047 1100 
L 3047 0 
L 2419 0 
L 2419 1100 
L 313 1100 
L 313 1709 
L 2253 4666 
z
" transform="scale(0.015625)"/>
       </defs>
       <use xlink:href="#DejaVuSans-34"/>
       <use xlink:href="#DejaVuSans-30" x="63.623047"/>
      </g>
     </g>
    </g>
   </g>
   <g id="LineCollection_1">
    <path d="M 41.215833 51.209817 
L 41.215833 38.040544 
" clip-path="url(#p6e4c766b69)" style="fill: none; stroke: #000000"/>
    <path d="M 62.1625 83.449057 
L 62.1625 78.520394 
" clip-path="url(#p6e4c766b69)" style="fill: none; stroke: #000000"/>
    <path d="M 83.109167 91.296044 
L 83.109167 89.557052 
" clip-path="url(#p6e4c766b69)" style="fill: none; stroke: #000000"/>
   </g>
   <g id="patch_6">
    <path d="M 30.7425 121.68 
L 30.7425 7.2 
" style="fill: none; stroke: #000000; stroke-linejoin: miter; stroke-linecap: square"/>
   </g>
   <g id="PathCollection_1">
    <defs>
     <path id="m1c1f8e52ce" d="M 0 1.5 
C 0.397805 1.5 0.77937 1.341951 1.06066 1.06066 
C 1.341951 0.77937 1.5 0.397805 1.5 0 
C 1.5 -0.397805 1.341951 -0.77937 1.06066 -1.06066 
C 0.77937 -1.341951 0.397805 -1.5 0 -1.5 
C -0.397805 -1.5 -0.77937 -1.341951 -1.06066 -1.06066 
C -1.341951 -0.77937 -1.5 -0.397805 -1.5 0 
C -1.5 0.397805 -1.341951 0.77937 -1.06066 1.06066 
C -0.77937 1.341951 -0.397805 1.5 0 1.5 
z
"/>
    </defs>
    <g clip-path="url(#p6e4c766b69)">
     <use xlink:href="#m1c1f8e52ce" x="42.75867" y="48.581521" style="fill: #808080; fill-opacity: 0.5"/>
     <use xlink:href="#m1c1f8e52ce" x="39.207704" y="70.627059" style="fill: #808080; fill-opacity: 0.5"/>
     <use xlink:href="#m1c1f8e52ce" x="39.838958" y="55.573735" style="fill: #808080; fill-opacity: 0.5"/>
     <use xlink:href="#m1c1f8e52ce" x="39.268626" y="72.108143" style="fill: #808080; fill-opacity: 0.5"/>
     <use xlink:href="#m1c1f8e52ce" x="41.29659" y="12.651429" style="fill: #808080; fill-opacity: 0.5"/>
     <use xlink:href="#m1c1f8e52ce" x="40.350767" y="49.7905" style="fill: #808080; fill-opacity: 0.5"/>
     <use xlink:href="#m1c1f8e52ce" x="40.31644" y="53.457649" style="fill: #808080; fill-opacity: 0.5"/>
     <use xlink:href="#m1c1f8e52ce" x="41.96144" y="20.601943" style="fill: #808080; fill-opacity: 0.5"/>
     <use xlink:href="#m1c1f8e52ce" x="41.581434" y="19.537171" style="fill: #808080; fill-opacity: 0.5"/>
     <use xlink:href="#m1c1f8e52ce" x="43.204326" y="43.322654" style="fill: #808080; fill-opacity: 0.5"/>
    </g>
   </g>
   <g id="PathCollection_2">
    <g clip-path="url(#p6e4c766b69)">
     <use xlink:href="#m1c1f8e52ce" x="60.210604" y="77.886215" style="fill: #808080; fill-opacity: 0.5"/>
     <use xlink:href="#m1c1f8e52ce" x="60.309635" y="91.065375" style="fill: #808080; fill-opacity: 0.5"/>
     <use xlink:href="#m1c1f8e52ce" x="63.713922" y="62.605881" style="fill: #808080; fill-opacity: 0.5"/>
     <use xlink:href="#m1c1f8e52ce" x="62.899112" y="84.76291" style="fill: #808080; fill-opacity: 0.5"/>
     <use xlink:href="#m1c1f8e52ce" x="62.623171" y="85.712056" style="fill: #808080; fill-opacity: 0.5"/>
     <use xlink:href="#m1c1f8e52ce" x="60.426726" y="80.058971" style="fill: #808080; fill-opacity: 0.5"/>
     <use xlink:href="#m1c1f8e52ce" x="61.916741" y="82.491749" style="fill: #808080; fill-opacity: 0.5"/>
     <use xlink:href="#m1c1f8e52ce" x="60.470019" y="87.607545" style="fill: #808080; fill-opacity: 0.5"/>
     <use xlink:href="#m1c1f8e52ce" x="63.306975" y="77.303696" style="fill: #808080; fill-opacity: 0.5"/>
     <use xlink:href="#m1c1f8e52ce" x="61.370696" y="80.352858" style="fill: #808080; fill-opacity: 0.5"/>
    </g>
   </g>
   <g id="PathCollection_3">
    <g clip-path="url(#p6e4c766b69)">
     <use xlink:href="#m1c1f8e52ce" x="83.326712" y="85.374666" style="fill: #808080; fill-opacity: 0.5"/>
     <use xlink:href="#m1c1f8e52ce" x="84.141226" y="93.653872" style="fill: #808080; fill-opacity: 0.5"/>
     <use xlink:href="#m1c1f8e52ce" x="81.366998" y="88.365842" style="fill: #808080; fill-opacity: 0.5"/>
     <use xlink:href="#m1c1f8e52ce" x="81.053136" y="92.78634" style="fill: #808080; fill-opacity: 0.5"/>
     <use xlink:href="#m1c1f8e52ce" x="83.275239" y="91.533977" style="fill: #808080; fill-opacity: 0.5"/>
     <use xlink:href="#m1c1f8e52ce" x="81.160874" y="90.887532" style="fill: #808080; fill-opacity: 0.5"/>
     <use xlink:href="#m1c1f8e52ce" x="82.231181" y="87.927409" style="fill: #808080; fill-opacity: 0.5"/>
     <use xlink:href="#m1c1f8e52ce" x="81.079991" y="90.575164" style="fill: #808080; fill-opacity: 0.5"/>
     <use xlink:href="#m1c1f8e52ce" x="82.381849" y="94.02172" style="fill: #808080; fill-opacity: 0.5"/>
     <use xlink:href="#m1c1f8e52ce" x="82.055115" y="89.138958" style="fill: #808080; fill-opacity: 0.5"/>
    </g>
   </g>
  </g>
 </g>
 <defs>
  <clipPath id="p6e4c766b69">
   <rect x="30.7425" y="7.2" width="62.84" height="114.48"/>
  </clipPath>
 </defs>
</svg>
