<?xml version="1.0" encoding="utf-8" standalone="no"?>
<!DOCTYPE svg PUBLIC "-//W3C//DTD SVG 1.1//EN"
  "http://www.w3.org/Graphics/SVG/1.1/DTD/svg11.dtd">
<svg xmlns:xlink="http://www.w3.org/1999/xlink" width="172.7975pt" height="136.685625pt" viewBox="0 0 172.7975 136.685625" xmlns="http://www.w3.org/2000/svg" version="1.1">
 <metadata>
  <rdf:RDF xmlns:dc="http://purl.org/dc/elements/1.1/" xmlns:cc="http://creativecommons.org/ns#" xmlns:rdf="http://www.w3.org/1999/02/22-rdf-syntax-ns#">
   <cc:Work>
    <dc:type rdf:resource="http://purl.org/dc/dcmitype/StillImage"/>
    <dc:date>2025-07-03T15:01:27.314676</dc:date>
    <dc:format>image/svg+xml</dc:format>
    <dc:creator>
     <cc:Agent>
      <dc:title>Matplotlib v3.8.4, https://matplotlib.org/</dc:title>
     </cc:Agent>
    </dc:creator>
   </cc:Work>
  </rdf:RDF>
 </metadata>
 <defs>
  <style type="text/css">*{stroke-linejoin: round; stroke-linecap: butt}</style>
 </defs>
 <g id="figure_1">
  <g id="patch_1">
   <path d="M 0 136.685625 
L 172.7975 136.685625 
L 172.7975 0 
L 0 0 
L 0 136.685625 
z
" style="fill: none"/>
  </g>
  <g id="axes_1">
   <g id="patch_2">
    <path d="M 23.1075 106.297772 
L 165.5975 106.297772 
L 165.5975 7.2 
L 23.1075 7.2 
L 23.1075 106.297772 
z
" style="fill: none"/>
   </g>
   <g id="PolyCollection_1">
    <defs>
     <path id="md8ccdec693" d="M 29.584318 -38.654511 
L 29.584318 -39.536115 
L 36.402022 -38.773037 
L 43.219725 -38.108655 
L 50.037428 -37.533192 
L 56.855132 -37.036285 
L 63.672835 -37.419545 
L 70.490538 -40.091598 
L 77.308242 -43.994796 
L 84.125945 -46.961144 
L 90.943648 -48.040034 
L 97.761352 -48.337131 
L 104.579055 -48.233535 
L 111.396758 -49.405065 
L 118.214462 -50.408095 
L 125.032165 -50.936925 
L 131.849868 -50.229971 
L 138.667572 -49.429913 
L 145.485275 -48.578346 
L 152.302978 -47.713326 
L 159.120682 -46.86782 
L 159.120682 -41.951765 
L 159.120682 -41.951765 
L 152.302978 -42.887949 
L 145.485275 -43.869168 
L 138.667572 -44.861095 
L 131.849868 -45.817623 
L 125.032165 -46.683541 
L 118.214462 -45.999682 
L 111.396758 -45.307497 
L 104.579055 -44.412602 
L 97.761352 -45.058455 
L 90.943648 -45.518969 
L 84.125945 -44.794228 
L 77.308242 -41.852694 
L 70.490538 -38.917105 
L 63.672835 -36.808651 
L 56.855132 -36.421988 
L 50.037428 -36.854802 
L 43.219725 -37.363645 
L 36.402022 -37.959858 
L 29.584318 -38.654511 
z
" style="stroke: #374f88; stroke-opacity: 0.25"/>
    </defs>
    <g clip-path="url(#p5681d2164a)">
     <use xlink:href="#md8ccdec693" x="0" y="136.685625" style="fill: #374f88; fill-opacity: 0.25; stroke: #374f88; stroke-opacity: 0.25"/>
    </g>
   </g>
   <g id="PolyCollection_2">
    <defs>
     <path id="m1d2801b922" d="M 29.584318 -38.654511 
L 29.584318 -39.536115 
L 36.402022 -38.773037 
L 43.219725 -38.108655 
L 50.037428 -37.533192 
L 56.855132 -37.036285 
L 63.672835 -37.429285 
L 70.490538 -39.858529 
L 77.308242 -43.095282 
L 84.125945 -47.30279 
L 90.943648 -50.871857 
L 97.761352 -52.044687 
L 104.579055 -52.630582 
L 111.396758 -51.591711 
L 118.214462 -54.779138 
L 125.032165 -52.564762 
L 131.849868 -51.749632 
L 138.667572 -50.831309 
L 145.485275 -49.860358 
L 152.302978 -48.847953 
L 159.120682 -47.811502 
L 159.120682 -46.009991 
L 159.120682 -46.009991 
L 152.302978 -47.348038 
L 145.485275 -48.645965 
L 138.667572 -49.81601 
L 131.849868 -50.757932 
L 125.032165 -51.415479 
L 118.214462 -52.282272 
L 111.396758 -50.142063 
L 104.579055 -51.20684 
L 97.761352 -49.982748 
L 90.943648 -48.289972 
L 84.125945 -44.597673 
L 77.308242 -40.778422 
L 70.490538 -38.764935 
L 63.672835 -36.856429 
L 56.855132 -36.421988 
L 50.037428 -36.854802 
L 43.219725 -37.363645 
L 36.402022 -37.959858 
L 29.584318 -38.654511 
z
" style="stroke: #b53b3a; stroke-opacity: 0.25"/>
    </defs>
    <g clip-path="url(#p5681d2164a)">
     <use xlink:href="#m1d2801b922" x="0" y="136.685625" style="fill: #b53b3a; fill-opacity: 0.25; stroke: #b53b3a; stroke-opacity: 0.25"/>
    </g>
   </g>
   <g id="matplotlib.axis_1">
    <g id="xtick_1">
     <g id="line2d_1">
      <defs>
       <path id="m4ec9fb2dea" d="M 0 0 
L 0 3.5 
" style="stroke: #000000"/>
      </defs>
      <g>
       <use xlink:href="#m4ec9fb2dea" x="29.584318" y="106.297772" style="stroke: #000000"/>
      </g>
     </g>
     <g id="text_1">
      <!-- 0 -->
      <g transform="translate(27.65882 126.964138) rotate(-30) scale(0.14 -0.14)">
       <defs>
        <path id="DejaVuSans-30" d="M 2034 4250 
Q 1547 4250 1301 3770 
Q 1056 3291 1056 2328 
Q 1056 1369 1301 889 
Q 1547 409 2034 409 
Q 2525 409 2770 889 
Q 3016 1369 3016 2328 
Q 3016 3291 2770 3770 
Q 2525 4250 2034 4250 
z
M 2034 4750 
Q 2819 4750 3233 4129 
Q 3647 3509 3647 2328 
Q 3647 1150 3233 529 
Q 2819 -91 2034 -91 
Q 1250 -91 836 529 
Q 422 1150 422 2328 
Q 422 3509 836 4129 
Q 1250 4750 2034 4750 
z
" transform="scale(0.015625)"/>
       </defs>
       <use xlink:href="#DejaVuSans-30"/>
      </g>
     </g>
    </g>
    <g id="xtick_2">
     <g id="line2d_2">
      <g>
       <use xlink:href="#m4ec9fb2dea" x="56.855132" y="106.297772" style="stroke: #000000"/>
      </g>
     </g>
     <g id="text_2">
      <!-- 1 -->
      <g transform="translate(54.929633 126.964138) rotate(-30) scale(0.14 -0.14)">
       <defs>
        <path id="DejaVuSans-31" d="M 794 531 
L 1825 531 
L 1825 4091 
L 703 3866 
L 703 4441 
L 1819 4666 
L 2450 4666 
L 2450 531 
L 3481 531 
L 3481 0 
L 794 0 
L 794 531 
z
" transform="scale(0.015625)"/>
       </defs>
       <use xlink:href="#DejaVuSans-31"/>
      </g>
     </g>
    </g>
    <g id="xtick_3">
     <g id="line2d_3">
      <g>
       <use xlink:href="#m4ec9fb2dea" x="84.125945" y="106.297772" style="stroke: #000000"/>
      </g>
     </g>
     <g id="text_3">
      <!-- 2 -->
      <g transform="translate(82.200447 126.964138) rotate(-30) scale(0.14 -0.14)">
       <defs>
        <path id="DejaVuSans-32" d="M 1228 531 
L 3431 531 
L 3431 0 
L 469 0 
L 469 531 
Q 828 903 1448 1529 
Q 2069 2156 2228 2338 
Q 2531 2678 2651 2914 
Q 2772 3150 2772 3378 
Q 2772 3750 2511 3984 
Q 2250 4219 1831 4219 
Q 1534 4219 1204 4116 
Q 875 4013 500 3803 
L 500 4441 
Q 881 4594 1212 4672 
Q 1544 4750 1819 4750 
Q 2544 4750 2975 4387 
Q 3406 4025 3406 3419 
Q 3406 3131 3298 2873 
Q 3191 2616 2906 2266 
Q 2828 2175 2409 1742 
Q 1991 1309 1228 531 
z
" transform="scale(0.015625)"/>
       </defs>
       <use xlink:href="#DejaVuSans-32"/>
      </g>
     </g>
    </g>
    <g id="xtick_4">
     <g id="line2d_4">
      <g>
       <use xlink:href="#m4ec9fb2dea" x="111.396758" y="106.297772" style="stroke: #000000"/>
      </g>
     </g>
     <g id="text_4">
      <!-- 3 -->
      <g transform="translate(109.47126 126.964138) rotate(-30) scale(0.14 -0.14)">
       <defs>
        <path id="DejaVuSans-33" d="M 2597 2516 
Q 3050 2419 3304 2112 
Q 3559 1806 3559 1356 
Q 3559 666 3084 287 
Q 2609 -91 1734 -91 
Q 1441 -91 1130 -33 
Q 819 25 488 141 
L 488 750 
Q 750 597 1062 519 
Q 1375 441 1716 441 
Q 2309 441 2620 675 
Q 2931 909 2931 1356 
Q 2931 1769 2642 2001 
Q 2353 2234 1838 2234 
L 1294 2234 
L 1294 2753 
L 1863 2753 
Q 2328 2753 2575 2939 
Q 2822 3125 2822 3475 
Q 2822 3834 2567 4026 
Q 2313 4219 1838 4219 
Q 1578 4219 1281 4162 
Q 984 4106 628 3988 
L 628 4550 
Q 988 4650 1302 4700 
Q 1616 4750 1894 4750 
Q 2613 4750 3031 4423 
Q 3450 4097 3450 3541 
Q 3450 3153 3228 2886 
Q 3006 2619 2597 2516 
z
" transform="scale(0.015625)"/>
       </defs>
       <use xlink:href="#DejaVuSans-33"/>
      </g>
     </g>
    </g>
    <g id="xtick_5">
     <g id="line2d_5">
      <g>
       <use xlink:href="#m4ec9fb2dea" x="138.667572" y="106.297772" style="stroke: #000000"/>
      </g>
     </g>
     <g id="text_5">
      <!-- 4 -->
      <g transform="translate(136.742074 126.964138) rotate(-30) scale(0.14 -0.14)">
       <defs>
        <path id="DejaVuSans-34" d="M 2419 4116 
L 825 1625 
L 2419 1625 
L 2419 4116 
z
M 2253 4666 
L 3047 4666 
L 3047 1625 
L 3713 1625 
L 3713 1100 
L 3047 1100 
L 3047 0 
L 2419 0 
L 2419 1100 
L 313 1100 
L 313 1709 
L 2253 4666 
z
" transform="scale(0.015625)"/>
       </defs>
       <use xlink:href="#DejaVuSans-34"/>
      </g>
     </g>
    </g>
   </g>
   <g id="matplotlib.axis_2">
    <g id="ytick_1">
     <g id="line2d_6">
      <defs>
       <path id="m5f5ee23dcb" d="M 0 0 
L -3.5 0 
" style="stroke: #000000"/>
      </defs>
      <g>
       <use xlink:href="#m5f5ee23dcb" x="23.1075" y="103.545057" style="stroke: #000000"/>
      </g>
     </g>
     <g id="text_6">
      <!-- 0 -->
      <g transform="translate(7.2 108.863963) scale(0.14 -0.14)">
       <use xlink:href="#DejaVuSans-30"/>
      </g>
     </g>
    </g>
    <g id="ytick_2">
     <g id="line2d_7">
      <g>
       <use xlink:href="#m5f5ee23dcb" x="23.1075" y="62.254318" style="stroke: #000000"/>
      </g>
     </g>
     <g id="text_7">
      <!-- 3 -->
      <g transform="translate(7.2 67.573224) scale(0.14 -0.14)">
       <use xlink:href="#DejaVuSans-33"/>
      </g>
     </g>
    </g>
    <g id="ytick_3">
     <g id="line2d_8">
      <g>
       <use xlink:href="#m5f5ee23dcb" x="23.1075" y="20.96358" style="stroke: #000000"/>
      </g>
     </g>
     <g id="text_8">
      <!-- 6 -->
      <g transform="translate(7.2 26.282486) scale(0.14 -0.14)">
       <defs>
        <path id="DejaVuSans-36" d="M 2113 2584 
Q 1688 2584 1439 2293 
Q 1191 2003 1191 1497 
Q 1191 994 1439 701 
Q 1688 409 2113 409 
Q 2538 409 2786 701 
Q 3034 994 3034 1497 
Q 3034 2003 2786 2293 
Q 2538 2584 2113 2584 
z
M 3366 4563 
L 3366 3988 
Q 3128 4100 2886 4159 
Q 2644 4219 2406 4219 
Q 1781 4219 1451 3797 
Q 1122 3375 1075 2522 
Q 1259 2794 1537 2939 
Q 1816 3084 2150 3084 
Q 2853 3084 3261 2657 
Q 3669 2231 3669 1497 
Q 3669 778 3244 343 
Q 2819 -91 2113 -91 
Q 1303 -91 875 529 
Q 447 1150 447 2328 
Q 447 3434 972 4092 
Q 1497 4750 2381 4750 
Q 2619 4750 2861 4703 
Q 3103 4656 3366 4563 
z
" transform="scale(0.015625)"/>
       </defs>
       <use xlink:href="#DejaVuSans-36"/>
      </g>
     </g>
    </g>
   </g>
   <g id="line2d_9">
    <path d="M 29.584318 97.590312 
L 36.402022 98.319178 
L 43.219725 98.949475 
L 50.037428 99.491629 
L 56.855132 99.956489 
L 63.672835 99.571528 
L 70.490538 97.181274 
L 77.308242 93.76188 
L 84.125945 90.80794 
L 90.943648 89.906124 
L 97.761352 89.987832 
L 104.579055 90.362557 
L 111.396758 89.329344 
L 118.214462 88.481737 
L 125.032165 87.875393 
L 131.849868 88.661829 
L 138.667572 89.540122 
L 145.485275 90.461869 
L 152.302978 91.384988 
L 159.120682 92.275833 
" clip-path="url(#p5681d2164a)" style="fill: none; stroke: #374f88; stroke-opacity: 0.6; stroke-width: 1.5; stroke-linecap: square"/>
   </g>
   <g id="line2d_10">
    <path d="M 29.584318 97.590312 
L 36.402022 98.319178 
L 43.219725 98.949475 
L 50.037428 99.491629 
L 56.855132 99.956489 
L 63.672835 99.542768 
L 70.490538 97.373893 
L 77.308242 94.748774 
L 84.125945 90.735394 
L 90.943648 87.104711 
L 97.761352 85.671908 
L 104.579055 84.766915 
L 111.396758 85.818738 
L 118.214462 83.15492 
L 125.032165 84.695505 
L 131.849868 85.431844 
L 138.667572 86.361966 
L 145.485275 87.432464 
L 152.302978 88.58763 
L 159.120682 89.774879 
" clip-path="url(#p5681d2164a)" style="fill: none; stroke: #b53b3a; stroke-width: 1.5; stroke-linecap: square"/>
   </g>
   <g id="LineCollection_1">
    <path d="M 56.855132 81.774257 
L 125.032165 81.774257 
" clip-path="url(#p5681d2164a)" style="fill: none; stroke: #444444; stroke-opacity: 0.6; stroke-width: 2"/>
   </g>
   <g id="patch_3">
    <path d="M 23.1075 103.545057 
L 23.1075 20.96358 
" style="fill: none; stroke: #000000; stroke-linejoin: miter; stroke-linecap: square"/>
   </g>
   <g id="patch_4">
    <path d="M 29.584318 106.297772 
L 159.120682 106.297772 
" style="fill: none; stroke: #000000; stroke-linejoin: miter; stroke-linecap: square"/>
   </g>
  </g>
 </g>
 <defs>
  <clipPath id="p5681d2164a">
   <rect x="23.1075" y="7.2" width="142.49" height="99.097772"/>
  </clipPath>
 </defs>
</svg>
