<?xml version="1.0" encoding="utf-8" standalone="no"?>
<!DOCTYPE svg PUBLIC "-//W3C//DTD SVG 1.1//EN"
  "http://www.w3.org/Graphics/SVG/1.1/DTD/svg11.dtd">
<svg xmlns:xlink="http://www.w3.org/1999/xlink" width="172.7975pt" height="136.685625pt" viewBox="0 0 172.7975 136.685625" xmlns="http://www.w3.org/2000/svg" version="1.1">
 <metadata>
  <rdf:RDF xmlns:dc="http://purl.org/dc/elements/1.1/" xmlns:cc="http://creativecommons.org/ns#" xmlns:rdf="http://www.w3.org/1999/02/22-rdf-syntax-ns#">
   <cc:Work>
    <dc:type rdf:resource="http://purl.org/dc/dcmitype/StillImage"/>
    <dc:date>2025-07-03T15:01:25.747127</dc:date>
    <dc:format>image/svg+xml</dc:format>
    <dc:creator>
     <cc:Agent>
      <dc:title>Matplotlib v3.8.4, https://matplotlib.org/</dc:title>
     </cc:Agent>
    </dc:creator>
   </cc:Work>
  </rdf:RDF>
 </metadata>
 <defs>
  <style type="text/css">*{stroke-linejoin: round; stroke-linecap: butt}</style>
 </defs>
 <g id="figure_1">
  <g id="patch_1">
   <path d="M 0 136.685625 
L 172.7975 136.685625 
L 172.7975 0 
L 0 0 
L 0 136.685625 
z
" style="fill: none"/>
  </g>
  <g id="axes_1">
   <g id="patch_2">
    <path d="M 23.1075 106.297772 
L 165.5975 106.297772 
L 165.5975 7.2 
L 23.1075 7.2 
L 23.1075 106.297772 
z
" style="fill: none"/>
   </g>
   <g id="PolyCollection_1">
    <defs>
     <path id="mbf2c3f82bc" d="M 29.584318 -101.526082 
L 29.584318 -103.790861 
L 36.402022 -105.373873 
L 43.219725 -106.940324 
L 50.037428 -108.491024 
L 56.855132 -110.027749 
L 63.672835 -89.723062 
L 70.490538 -78.508605 
L 77.308242 -73.940399 
L 84.125945 -72.183378 
L 90.943648 -74.848873 
L 97.761352 -75.969357 
L 104.579055 -78.690136 
L 111.396758 -76.809992 
L 118.214462 -76.06362 
L 125.032165 -74.246314 
L 131.849868 -75.198907 
L 138.667572 -75.99805 
L 145.485275 -76.656796 
L 152.302978 -77.197928 
L 159.120682 -77.648949 
L 159.120682 -68.655841 
L 159.120682 -68.655841 
L 152.302978 -68.956844 
L 145.485275 -69.142381 
L 138.667572 -69.178576 
L 131.849868 -69.037237 
L 125.032165 -68.701262 
L 118.214462 -69.473143 
L 111.396758 -71.46601 
L 104.579055 -72.582119 
L 97.761352 -71.034613 
L 90.943648 -70.15502 
L 84.125945 -68.895386 
L 77.308242 -71.933264 
L 70.490538 -76.712638 
L 63.672835 -87.572537 
L 56.855132 -107.575902 
L 50.037428 -106.068047 
L 43.219725 -104.559374 
L 36.402022 -103.046406 
L 29.584318 -101.526082 
z
" style="stroke: #374f88; stroke-opacity: 0.25"/>
    </defs>
    <g clip-path="url(#pd9cb846328)">
     <use xlink:href="#mbf2c3f82bc" x="0" y="136.685625" style="fill: #374f88; fill-opacity: 0.25; stroke: #374f88; stroke-opacity: 0.25"/>
    </g>
   </g>
   <g id="PolyCollection_2">
    <defs>
     <path id="me94ef58c9e" d="M 29.584318 -101.526082 
L 29.584318 -103.790861 
L 36.402022 -105.373873 
L 43.219725 -106.940324 
L 50.037428 -108.491024 
L 56.855132 -110.027749 
L 63.672835 -89.897093 
L 70.490538 -79.940732 
L 77.308242 -71.217367 
L 84.125945 -65.382338 
L 90.943648 -64.366567 
L 97.761352 -61.859905 
L 104.579055 -63.148279 
L 111.396758 -62.786443 
L 118.214462 -65.602213 
L 125.032165 -64.012845 
L 131.849868 -65.545924 
L 138.667572 -67.059745 
L 145.485275 -68.544517 
L 152.302978 -69.997356 
L 159.120682 -71.419819 
L 159.120682 -64.028184 
L 159.120682 -64.028184 
L 152.302978 -63.49005 
L 145.485275 -62.856391 
L 138.667572 -62.119129 
L 131.849868 -61.278334 
L 125.032165 -60.34425 
L 118.214462 -62.125795 
L 111.396758 -59.387786 
L 104.579055 -60.504187 
L 97.761352 -59.736023 
L 90.943648 -62.124045 
L 84.125945 -64.576481 
L 77.308242 -70.008687 
L 70.490538 -78.062822 
L 63.672835 -87.895139 
L 56.855132 -107.575902 
L 50.037428 -106.068047 
L 43.219725 -104.559374 
L 36.402022 -103.046406 
L 29.584318 -101.526082 
z
" style="stroke: #b53b3a; stroke-opacity: 0.25"/>
    </defs>
    <g clip-path="url(#pd9cb846328)">
     <use xlink:href="#me94ef58c9e" x="0" y="136.685625" style="fill: #b53b3a; fill-opacity: 0.25; stroke: #b53b3a; stroke-opacity: 0.25"/>
    </g>
   </g>
   <g id="matplotlib.axis_1">
    <g id="xtick_1">
     <g id="line2d_1">
      <defs>
       <path id="m2d07a94651" d="M 0 0 
L 0 3.5 
" style="stroke: #000000"/>
      </defs>
      <g>
       <use xlink:href="#m2d07a94651" x="29.584318" y="106.297772" style="stroke: #000000"/>
      </g>
     </g>
     <g id="text_1">
      <!-- 0 -->
      <g transform="translate(27.65882 126.964138) rotate(-30) scale(0.14 -0.14)">
       <defs>
        <path id="DejaVuSans-30" d="M 2034 4250 
Q 1547 4250 1301 3770 
Q 1056 3291 1056 2328 
Q 1056 1369 1301 889 
Q 1547 409 2034 409 
Q 2525 409 2770 889 
Q 3016 1369 3016 2328 
Q 3016 3291 2770 3770 
Q 2525 4250 2034 4250 
z
M 2034 4750 
Q 2819 4750 3233 4129 
Q 3647 3509 3647 2328 
Q 3647 1150 3233 529 
Q 2819 -91 2034 -91 
Q 1250 -91 836 529 
Q 422 1150 422 2328 
Q 422 3509 836 4129 
Q 1250 4750 2034 4750 
z
" transform="scale(0.015625)"/>
       </defs>
       <use xlink:href="#DejaVuSans-30"/>
      </g>
     </g>
    </g>
    <g id="xtick_2">
     <g id="line2d_2">
      <g>
       <use xlink:href="#m2d07a94651" x="56.855132" y="106.297772" style="stroke: #000000"/>
      </g>
     </g>
     <g id="text_2">
      <!-- 1 -->
      <g transform="translate(54.929633 126.964138) rotate(-30) scale(0.14 -0.14)">
       <defs>
        <path id="DejaVuSans-31" d="M 794 531 
L 1825 531 
L 1825 4091 
L 703 3866 
L 703 4441 
L 1819 4666 
L 2450 4666 
L 2450 531 
L 3481 531 
L 3481 0 
L 794 0 
L 794 531 
z
" transform="scale(0.015625)"/>
       </defs>
       <use xlink:href="#DejaVuSans-31"/>
      </g>
     </g>
    </g>
    <g id="xtick_3">
     <g id="line2d_3">
      <g>
       <use xlink:href="#m2d07a94651" x="84.125945" y="106.297772" style="stroke: #000000"/>
      </g>
     </g>
     <g id="text_3">
      <!-- 2 -->
      <g transform="translate(82.200447 126.964138) rotate(-30) scale(0.14 -0.14)">
       <defs>
        <path id="DejaVuSans-32" d="M 1228 531 
L 3431 531 
L 3431 0 
L 469 0 
L 469 531 
Q 828 903 1448 1529 
Q 2069 2156 2228 2338 
Q 2531 2678 2651 2914 
Q 2772 3150 2772 3378 
Q 2772 3750 2511 3984 
Q 2250 4219 1831 4219 
Q 1534 4219 1204 4116 
Q 875 4013 500 3803 
L 500 4441 
Q 881 4594 1212 4672 
Q 1544 4750 1819 4750 
Q 2544 4750 2975 4387 
Q 3406 4025 3406 3419 
Q 3406 3131 3298 2873 
Q 3191 2616 2906 2266 
Q 2828 2175 2409 1742 
Q 1991 1309 1228 531 
z
" transform="scale(0.015625)"/>
       </defs>
       <use xlink:href="#DejaVuSans-32"/>
      </g>
     </g>
    </g>
    <g id="xtick_4">
     <g id="line2d_4">
      <g>
       <use xlink:href="#m2d07a94651" x="111.396758" y="106.297772" style="stroke: #000000"/>
      </g>
     </g>
     <g id="text_4">
      <!-- 3 -->
      <g transform="translate(109.47126 126.964138) rotate(-30) scale(0.14 -0.14)">
       <defs>
        <path id="DejaVuSans-33" d="M 2597 2516 
Q 3050 2419 3304 2112 
Q 3559 1806 3559 1356 
Q 3559 666 3084 287 
Q 2609 -91 1734 -91 
Q 1441 -91 1130 -33 
Q 819 25 488 141 
L 488 750 
Q 750 597 1062 519 
Q 1375 441 1716 441 
Q 2309 441 2620 675 
Q 2931 909 2931 1356 
Q 2931 1769 2642 2001 
Q 2353 2234 1838 2234 
L 1294 2234 
L 1294 2753 
L 1863 2753 
Q 2328 2753 2575 2939 
Q 2822 3125 2822 3475 
Q 2822 3834 2567 4026 
Q 2313 4219 1838 4219 
Q 1578 4219 1281 4162 
Q 984 4106 628 3988 
L 628 4550 
Q 988 4650 1302 4700 
Q 1616 4750 1894 4750 
Q 2613 4750 3031 4423 
Q 3450 4097 3450 3541 
Q 3450 3153 3228 2886 
Q 3006 2619 2597 2516 
z
" transform="scale(0.015625)"/>
       </defs>
       <use xlink:href="#DejaVuSans-33"/>
      </g>
     </g>
    </g>
    <g id="xtick_5">
     <g id="line2d_5">
      <g>
       <use xlink:href="#m2d07a94651" x="138.667572" y="106.297772" style="stroke: #000000"/>
      </g>
     </g>
     <g id="text_5">
      <!-- 4 -->
      <g transform="translate(136.742074 126.964138) rotate(-30) scale(0.14 -0.14)">
       <defs>
        <path id="DejaVuSans-34" d="M 2419 4116 
L 825 1625 
L 2419 1625 
L 2419 4116 
z
M 2253 4666 
L 3047 4666 
L 3047 1625 
L 3713 1625 
L 3713 1100 
L 3047 1100 
L 3047 0 
L 2419 0 
L 2419 1100 
L 313 1100 
L 313 1709 
L 2253 4666 
z
" transform="scale(0.015625)"/>
       </defs>
       <use xlink:href="#DejaVuSans-34"/>
      </g>
     </g>
    </g>
   </g>
   <g id="matplotlib.axis_2">
    <g id="ytick_1">
     <g id="line2d_6">
      <defs>
       <path id="m7c3509d60d" d="M 0 0 
L -3.5 0 
" style="stroke: #000000"/>
      </defs>
      <g>
       <use xlink:href="#m7c3509d60d" x="23.1075" y="103.545057" style="stroke: #000000"/>
      </g>
     </g>
     <g id="text_6">
      <!-- 0 -->
      <g transform="translate(7.2 108.863963) scale(0.14 -0.14)">
       <use xlink:href="#DejaVuSans-30"/>
      </g>
     </g>
    </g>
    <g id="ytick_2">
     <g id="line2d_7">
      <g>
       <use xlink:href="#m7c3509d60d" x="23.1075" y="62.254318" style="stroke: #000000"/>
      </g>
     </g>
     <g id="text_7">
      <!-- 3 -->
      <g transform="translate(7.2 67.573224) scale(0.14 -0.14)">
       <use xlink:href="#DejaVuSans-33"/>
      </g>
     </g>
    </g>
    <g id="ytick_3">
     <g id="line2d_8">
      <g>
       <use xlink:href="#m7c3509d60d" x="23.1075" y="20.96358" style="stroke: #000000"/>
      </g>
     </g>
     <g id="text_8">
      <!-- 6 -->
      <g transform="translate(7.2 26.282486) scale(0.14 -0.14)">
       <defs>
        <path id="DejaVuSans-36" d="M 2113 2584 
Q 1688 2584 1439 2293 
Q 1191 2003 1191 1497 
Q 1191 994 1439 701 
Q 1688 409 2113 409 
Q 2538 409 2786 701 
Q 3034 994 3034 1497 
Q 3034 2003 2786 2293 
Q 2538 2584 2113 2584 
z
M 3366 4563 
L 3366 3988 
Q 3128 4100 2886 4159 
Q 2644 4219 2406 4219 
Q 1781 4219 1451 3797 
Q 1122 3375 1075 2522 
Q 1259 2794 1537 2939 
Q 1816 3084 2150 3084 
Q 2853 3084 3261 2657 
Q 3669 2231 3669 1497 
Q 3669 778 3244 343 
Q 2819 -91 2113 -91 
Q 1303 -91 875 529 
Q 447 1150 447 2328 
Q 447 3434 972 4092 
Q 1497 4750 2381 4750 
Q 2619 4750 2861 4703 
Q 3103 4656 3366 4563 
z
" transform="scale(0.015625)"/>
       </defs>
       <use xlink:href="#DejaVuSans-36"/>
      </g>
     </g>
    </g>
   </g>
   <g id="line2d_9">
    <path d="M 29.584318 34.027154 
L 36.402022 32.475486 
L 43.219725 30.935776 
L 50.037428 29.40609 
L 56.855132 27.8838 
L 63.672835 48.037826 
L 70.490538 59.075004 
L 77.308242 63.748794 
L 84.125945 66.146243 
L 90.943648 64.183679 
L 97.761352 63.183641 
L 104.579055 61.049498 
L 111.396758 62.547624 
L 118.214462 63.917244 
L 125.032165 65.211837 
L 131.849868 64.567554 
L 138.667572 64.097313 
L 145.485275 63.786037 
L 152.302978 63.60824 
L 159.120682 63.533231 
" clip-path="url(#pd9cb846328)" style="fill: none; stroke: #374f88; stroke-opacity: 0.6; stroke-width: 1.5; stroke-linecap: square"/>
   </g>
   <g id="line2d_10">
    <path d="M 29.584318 34.027154 
L 36.402022 32.475486 
L 43.219725 30.935776 
L 50.037428 29.40609 
L 56.855132 27.8838 
L 63.672835 47.78951 
L 70.490538 57.683848 
L 77.308242 66.072598 
L 84.125945 71.706216 
L 90.943648 73.440319 
L 97.761352 75.887661 
L 104.579055 74.859393 
L 111.396758 75.598511 
L 118.214462 72.821621 
L 125.032165 74.507078 
L 131.849868 73.273496 
L 138.667572 72.096189 
L 145.485275 70.985171 
L 152.302978 69.941922 
L 159.120682 68.961624 
" clip-path="url(#pd9cb846328)" style="fill: none; stroke: #b53b3a; stroke-width: 1.5; stroke-linecap: square"/>
   </g>
   <g id="LineCollection_1">
    <path d="M 56.855132 75.305719 
L 125.032165 75.305719 
" clip-path="url(#pd9cb846328)" style="fill: none; stroke: #444444; stroke-opacity: 0.6; stroke-width: 2"/>
   </g>
   <g id="patch_3">
    <path d="M 23.1075 103.545057 
L 23.1075 20.96358 
" style="fill: none; stroke: #000000; stroke-linejoin: miter; stroke-linecap: square"/>
   </g>
   <g id="patch_4">
    <path d="M 29.584318 106.297772 
L 159.120682 106.297772 
" style="fill: none; stroke: #000000; stroke-linejoin: miter; stroke-linecap: square"/>
   </g>
  </g>
 </g>
 <defs>
  <clipPath id="pd9cb846328">
   <rect x="23.1075" y="7.2" width="142.49" height="99.097772"/>
  </clipPath>
 </defs>
</svg>
