<?xml version="1.0" encoding="utf-8" standalone="no"?>
<!DOCTYPE svg PUBLIC "-//W3C//DTD SVG 1.1//EN"
  "http://www.w3.org/Graphics/SVG/1.1/DTD/svg11.dtd">
<svg xmlns:xlink="http://www.w3.org/1999/xlink" width="172.7975pt" height="136.685625pt" viewBox="0 0 172.7975 136.685625" xmlns="http://www.w3.org/2000/svg" version="1.1">
 <metadata>
  <rdf:RDF xmlns:dc="http://purl.org/dc/elements/1.1/" xmlns:cc="http://creativecommons.org/ns#" xmlns:rdf="http://www.w3.org/1999/02/22-rdf-syntax-ns#">
   <cc:Work>
    <dc:type rdf:resource="http://purl.org/dc/dcmitype/StillImage"/>
    <dc:date>2025-07-03T15:01:26.565633</dc:date>
    <dc:format>image/svg+xml</dc:format>
    <dc:creator>
     <cc:Agent>
      <dc:title>Matplotlib v3.8.4, https://matplotlib.org/</dc:title>
     </cc:Agent>
    </dc:creator>
   </cc:Work>
  </rdf:RDF>
 </metadata>
 <defs>
  <style type="text/css">*{stroke-linejoin: round; stroke-linecap: butt}</style>
 </defs>
 <g id="figure_1">
  <g id="patch_1">
   <path d="M 0 136.685625 
L 172.7975 136.685625 
L 172.7975 0 
L 0 0 
L 0 136.685625 
z
" style="fill: none"/>
  </g>
  <g id="axes_1">
   <g id="patch_2">
    <path d="M 23.1075 106.297772 
L 165.5975 106.297772 
L 165.5975 7.2 
L 23.1075 7.2 
L 23.1075 106.297772 
z
" style="fill: none"/>
   </g>
   <g id="PolyCollection_1">
    <defs>
     <path id="m5bdd2be7c3" d="M 29.584318 -38.221779 
L 29.584318 -38.737413 
L 36.402022 -37.931571 
L 43.219725 -37.195401 
L 50.037428 -36.535332 
L 56.855132 -35.954755 
L 63.672835 -37.013919 
L 70.490538 -38.431628 
L 77.308242 -40.063229 
L 84.125945 -41.705765 
L 90.943648 -43.521432 
L 97.761352 -44.798044 
L 104.579055 -46.191343 
L 111.396758 -47.292335 
L 118.214462 -48.449228 
L 125.032165 -47.008801 
L 131.849868 -46.648611 
L 138.667572 -46.252964 
L 145.485275 -45.845074 
L 152.302978 -45.444058 
L 159.120682 -45.064771 
L 159.120682 -43.061409 
L 159.120682 -43.061409 
L 152.302978 -43.507427 
L 145.485275 -43.967671 
L 138.667572 -44.427911 
L 131.849868 -44.869621 
L 125.032165 -45.270422 
L 118.214462 -45.799207 
L 111.396758 -45.132622 
L 104.579055 -44.544219 
L 97.761352 -43.101684 
L 90.943648 -41.993786 
L 84.125945 -40.566735 
L 77.308242 -39.298845 
L 70.490538 -37.860055 
L 63.672835 -36.586228 
L 56.855132 -35.62299 
L 50.037428 -36.152625 
L 43.219725 -36.763331 
L 36.402022 -37.454394 
L 29.584318 -38.221779 
z
" style="stroke: #374f88; stroke-opacity: 0.25"/>
    </defs>
    <g clip-path="url(#p3bf7a43a25)">
     <use xlink:href="#m5bdd2be7c3" x="0" y="136.685625" style="fill: #374f88; fill-opacity: 0.25; stroke: #374f88; stroke-opacity: 0.25"/>
    </g>
   </g>
   <g id="PolyCollection_2">
    <defs>
     <path id="m4a8174b40a" d="M 29.584318 -38.221779 
L 29.584318 -38.737413 
L 36.402022 -37.931571 
L 43.219725 -37.195401 
L 50.037428 -36.535332 
L 56.855132 -35.954755 
L 63.672835 -37.019935 
L 70.490538 -38.290759 
L 77.308242 -40.014654 
L 84.125945 -42.110648 
L 90.943648 -43.740223 
L 97.761352 -44.282915 
L 104.579055 -46.104366 
L 111.396758 -46.156653 
L 118.214462 -46.595873 
L 125.032165 -46.201194 
L 131.849868 -46.386737 
L 138.667572 -46.534149 
L 145.485275 -46.649171 
L 152.302978 -46.738477 
L 159.120682 -46.809092 
L 159.120682 -43.451032 
L 159.120682 -43.451032 
L 152.302978 -43.687922 
L 145.485275 -43.901743 
L 138.667572 -44.081147 
L 131.849868 -44.214507 
L 125.032165 -44.290362 
L 118.214462 -44.497632 
L 111.396758 -44.373506 
L 104.579055 -44.151556 
L 97.761352 -43.297954 
L 90.943648 -42.434006 
L 84.125945 -40.9454 
L 77.308242 -39.178957 
L 70.490538 -37.746 
L 63.672835 -36.594725 
L 56.855132 -35.62299 
L 50.037428 -36.152625 
L 43.219725 -36.763331 
L 36.402022 -37.454394 
L 29.584318 -38.221779 
z
" style="stroke: #b53b3a; stroke-opacity: 0.25"/>
    </defs>
    <g clip-path="url(#p3bf7a43a25)">
     <use xlink:href="#m4a8174b40a" x="0" y="136.685625" style="fill: #b53b3a; fill-opacity: 0.25; stroke: #b53b3a; stroke-opacity: 0.25"/>
    </g>
   </g>
   <g id="matplotlib.axis_1">
    <g id="xtick_1">
     <g id="line2d_1">
      <defs>
       <path id="m5a0c886ea3" d="M 0 0 
L 0 3.5 
" style="stroke: #000000"/>
      </defs>
      <g>
       <use xlink:href="#m5a0c886ea3" x="29.584318" y="106.297772" style="stroke: #000000"/>
      </g>
     </g>
     <g id="text_1">
      <!-- 0 -->
      <g transform="translate(27.65882 126.964138) rotate(-30) scale(0.14 -0.14)">
       <defs>
        <path id="DejaVuSans-30" d="M 2034 4250 
Q 1547 4250 1301 3770 
Q 1056 3291 1056 2328 
Q 1056 1369 1301 889 
Q 1547 409 2034 409 
Q 2525 409 2770 889 
Q 3016 1369 3016 2328 
Q 3016 3291 2770 3770 
Q 2525 4250 2034 4250 
z
M 2034 4750 
Q 2819 4750 3233 4129 
Q 3647 3509 3647 2328 
Q 3647 1150 3233 529 
Q 2819 -91 2034 -91 
Q 1250 -91 836 529 
Q 422 1150 422 2328 
Q 422 3509 836 4129 
Q 1250 4750 2034 4750 
z
" transform="scale(0.015625)"/>
       </defs>
       <use xlink:href="#DejaVuSans-30"/>
      </g>
     </g>
    </g>
    <g id="xtick_2">
     <g id="line2d_2">
      <g>
       <use xlink:href="#m5a0c886ea3" x="56.855132" y="106.297772" style="stroke: #000000"/>
      </g>
     </g>
     <g id="text_2">
      <!-- 1 -->
      <g transform="translate(54.929633 126.964138) rotate(-30) scale(0.14 -0.14)">
       <defs>
        <path id="DejaVuSans-31" d="M 794 531 
L 1825 531 
L 1825 4091 
L 703 3866 
L 703 4441 
L 1819 4666 
L 2450 4666 
L 2450 531 
L 3481 531 
L 3481 0 
L 794 0 
L 794 531 
z
" transform="scale(0.015625)"/>
       </defs>
       <use xlink:href="#DejaVuSans-31"/>
      </g>
     </g>
    </g>
    <g id="xtick_3">
     <g id="line2d_3">
      <g>
       <use xlink:href="#m5a0c886ea3" x="84.125945" y="106.297772" style="stroke: #000000"/>
      </g>
     </g>
     <g id="text_3">
      <!-- 2 -->
      <g transform="translate(82.200447 126.964138) rotate(-30) scale(0.14 -0.14)">
       <defs>
        <path id="DejaVuSans-32" d="M 1228 531 
L 3431 531 
L 3431 0 
L 469 0 
L 469 531 
Q 828 903 1448 1529 
Q 2069 2156 2228 2338 
Q 2531 2678 2651 2914 
Q 2772 3150 2772 3378 
Q 2772 3750 2511 3984 
Q 2250 4219 1831 4219 
Q 1534 4219 1204 4116 
Q 875 4013 500 3803 
L 500 4441 
Q 881 4594 1212 4672 
Q 1544 4750 1819 4750 
Q 2544 4750 2975 4387 
Q 3406 4025 3406 3419 
Q 3406 3131 3298 2873 
Q 3191 2616 2906 2266 
Q 2828 2175 2409 1742 
Q 1991 1309 1228 531 
z
" transform="scale(0.015625)"/>
       </defs>
       <use xlink:href="#DejaVuSans-32"/>
      </g>
     </g>
    </g>
    <g id="xtick_4">
     <g id="line2d_4">
      <g>
       <use xlink:href="#m5a0c886ea3" x="111.396758" y="106.297772" style="stroke: #000000"/>
      </g>
     </g>
     <g id="text_4">
      <!-- 3 -->
      <g transform="translate(109.47126 126.964138) rotate(-30) scale(0.14 -0.14)">
       <defs>
        <path id="DejaVuSans-33" d="M 2597 2516 
Q 3050 2419 3304 2112 
Q 3559 1806 3559 1356 
Q 3559 666 3084 287 
Q 2609 -91 1734 -91 
Q 1441 -91 1130 -33 
Q 819 25 488 141 
L 488 750 
Q 750 597 1062 519 
Q 1375 441 1716 441 
Q 2309 441 2620 675 
Q 2931 909 2931 1356 
Q 2931 1769 2642 2001 
Q 2353 2234 1838 2234 
L 1294 2234 
L 1294 2753 
L 1863 2753 
Q 2328 2753 2575 2939 
Q 2822 3125 2822 3475 
Q 2822 3834 2567 4026 
Q 2313 4219 1838 4219 
Q 1578 4219 1281 4162 
Q 984 4106 628 3988 
L 628 4550 
Q 988 4650 1302 4700 
Q 1616 4750 1894 4750 
Q 2613 4750 3031 4423 
Q 3450 4097 3450 3541 
Q 3450 3153 3228 2886 
Q 3006 2619 2597 2516 
z
" transform="scale(0.015625)"/>
       </defs>
       <use xlink:href="#DejaVuSans-33"/>
      </g>
     </g>
    </g>
    <g id="xtick_5">
     <g id="line2d_5">
      <g>
       <use xlink:href="#m5a0c886ea3" x="138.667572" y="106.297772" style="stroke: #000000"/>
      </g>
     </g>
     <g id="text_5">
      <!-- 4 -->
      <g transform="translate(136.742074 126.964138) rotate(-30) scale(0.14 -0.14)">
       <defs>
        <path id="DejaVuSans-34" d="M 2419 4116 
L 825 1625 
L 2419 1625 
L 2419 4116 
z
M 2253 4666 
L 3047 4666 
L 3047 1625 
L 3713 1625 
L 3713 1100 
L 3047 1100 
L 3047 0 
L 2419 0 
L 2419 1100 
L 313 1100 
L 313 1709 
L 2253 4666 
z
" transform="scale(0.015625)"/>
       </defs>
       <use xlink:href="#DejaVuSans-34"/>
      </g>
     </g>
    </g>
   </g>
   <g id="matplotlib.axis_2">
    <g id="ytick_1">
     <g id="line2d_6">
      <defs>
       <path id="md4fa5cbcee" d="M 0 0 
L -3.5 0 
" style="stroke: #000000"/>
      </defs>
      <g>
       <use xlink:href="#md4fa5cbcee" x="23.1075" y="103.545057" style="stroke: #000000"/>
      </g>
     </g>
     <g id="text_6">
      <!-- 0 -->
      <g transform="translate(7.2 108.863963) scale(0.14 -0.14)">
       <use xlink:href="#DejaVuSans-30"/>
      </g>
     </g>
    </g>
    <g id="ytick_2">
     <g id="line2d_7">
      <g>
       <use xlink:href="#md4fa5cbcee" x="23.1075" y="62.254318" style="stroke: #000000"/>
      </g>
     </g>
     <g id="text_7">
      <!-- 3 -->
      <g transform="translate(7.2 67.573224) scale(0.14 -0.14)">
       <use xlink:href="#DejaVuSans-33"/>
      </g>
     </g>
    </g>
    <g id="ytick_3">
     <g id="line2d_8">
      <g>
       <use xlink:href="#md4fa5cbcee" x="23.1075" y="20.96358" style="stroke: #000000"/>
      </g>
     </g>
     <g id="text_8">
      <!-- 6 -->
      <g transform="translate(7.2 26.282486) scale(0.14 -0.14)">
       <defs>
        <path id="DejaVuSans-36" d="M 2113 2584 
Q 1688 2584 1439 2293 
Q 1191 2003 1191 1497 
Q 1191 994 1439 701 
Q 1688 409 2113 409 
Q 2538 409 2786 701 
Q 3034 994 3034 1497 
Q 3034 2003 2786 2293 
Q 2538 2584 2113 2584 
z
M 3366 4563 
L 3366 3988 
Q 3128 4100 2886 4159 
Q 2644 4219 2406 4219 
Q 1781 4219 1451 3797 
Q 1122 3375 1075 2522 
Q 1259 2794 1537 2939 
Q 1816 3084 2150 3084 
Q 2853 3084 3261 2657 
Q 3669 2231 3669 1497 
Q 3669 778 3244 343 
Q 2819 -91 2113 -91 
Q 1303 -91 875 529 
Q 447 1150 447 2328 
Q 447 3434 972 4092 
Q 1497 4750 2381 4750 
Q 2619 4750 2861 4703 
Q 3103 4656 3366 4563 
z
" transform="scale(0.015625)"/>
       </defs>
       <use xlink:href="#DejaVuSans-36"/>
      </g>
     </g>
    </g>
   </g>
   <g id="line2d_9">
    <path d="M 29.584318 98.206029 
L 36.402022 98.992643 
L 43.219725 99.706259 
L 50.037428 100.341647 
L 56.855132 100.896753 
L 63.672835 99.885552 
L 70.490538 98.539784 
L 77.308242 97.004588 
L 84.125945 95.549375 
L 90.943648 93.928016 
L 97.761352 92.735761 
L 104.579055 91.317844 
L 111.396758 90.473147 
L 118.214462 89.561407 
L 125.032165 90.546014 
L 131.849868 90.92651 
L 138.667572 91.345188 
L 145.485275 91.779253 
L 152.302978 92.209883 
L 159.120682 92.622535 
" clip-path="url(#p3bf7a43a25)" style="fill: none; stroke: #374f88; stroke-opacity: 0.6; stroke-width: 1.5; stroke-linecap: square"/>
   </g>
   <g id="line2d_10">
    <path d="M 29.584318 98.206029 
L 36.402022 98.992643 
L 43.219725 99.706259 
L 50.037428 100.341647 
L 56.855132 100.896753 
L 63.672835 99.878296 
L 70.490538 98.667246 
L 77.308242 97.08882 
L 84.125945 95.157601 
L 90.943648 93.598511 
L 97.761352 92.895191 
L 104.579055 91.557664 
L 111.396758 91.420546 
L 118.214462 91.138873 
L 125.032165 91.439848 
L 131.849868 91.385003 
L 138.667572 91.377977 
L 145.485275 91.410169 
L 152.302978 91.472426 
L 159.120682 91.555564 
" clip-path="url(#p3bf7a43a25)" style="fill: none; stroke: #b53b3a; stroke-width: 1.5; stroke-linecap: square"/>
   </g>
   <g id="LineCollection_1">
    <path d="M 56.855132 90.242815 
L 125.032165 90.242815 
" clip-path="url(#p3bf7a43a25)" style="fill: none; stroke: #444444; stroke-opacity: 0.6; stroke-width: 2"/>
   </g>
   <g id="patch_3">
    <path d="M 23.1075 103.545057 
L 23.1075 20.96358 
" style="fill: none; stroke: #000000; stroke-linejoin: miter; stroke-linecap: square"/>
   </g>
   <g id="patch_4">
    <path d="M 29.584318 106.297772 
L 159.120682 106.297772 
" style="fill: none; stroke: #000000; stroke-linejoin: miter; stroke-linecap: square"/>
   </g>
  </g>
 </g>
 <defs>
  <clipPath id="p3bf7a43a25">
   <rect x="23.1075" y="7.2" width="142.49" height="99.097772"/>
  </clipPath>
 </defs>
</svg>
